<svg width="409" height="880" viewBox="0 0 409 880" fill="none" xmlns="http://www.w3.org/2000/svg">
<rect x="130.032" y="14.7446" width="11.2692" height="32.4576" rx="5.63458" transform="rotate(-16.5145 130.032 14.7446)" fill="#BBD675"/>
<rect x="250.818" y="49.8149" width="11.2692" height="32.4576" rx="5.63458" transform="rotate(71.4502 250.818 49.8149)" fill="#BBD675"/>
<rect x="144.634" y="143.121" width="11.2692" height="32.4576" rx="5.63458" transform="rotate(1.39012 144.634 143.121)" fill="#BBD675"/>
<rect x="146.18" y="186.438" width="11.2692" height="19.5541" rx="5.63458" transform="rotate(-27.5734 146.18 186.438)" fill="#BBD675"/>
<rect x="166.396" y="219.046" width="11.2692" height="43.5262" rx="5.63458" transform="rotate(-47.2661 166.396 219.046)" fill="#BBD675"/>
<rect x="210.716" y="249.437" width="11.2692" height="18.7854" rx="5.63458" transform="rotate(-37.0445 210.716 249.437)" fill="#BBD675"/>
<rect x="228.2" y="325.846" width="11.2692" height="18.7854" rx="5.63458" transform="rotate(5.90426 228.2 325.846)" fill="#BBD675"/>
<rect x="287.694" y="332.773" width="12.3789" height="18.7854" rx="6.18944" transform="rotate(-3.27114 287.694 332.773)" fill="#BBD675"/>
<rect x="318.019" y="279.267" width="12.3789" height="18.7854" rx="6.18944" transform="rotate(-55.3394 318.019 279.267)" fill="#BBD675"/>
<rect x="381.778" y="307.835" width="12.3789" height="18.7854" rx="6.18944" transform="rotate(-33.7129 381.778 307.835)" fill="#BBD675"/>
<rect x="369.906" y="399.713" width="12.3789" height="22.5823" rx="6.18944" transform="rotate(21.187 369.906 399.713)" fill="#BBD675"/>
<rect x="350.382" y="496.129" width="12.3789" height="12.0949" rx="6.04747" transform="rotate(21.187 350.382 496.129)" fill="#BBD675"/>
<rect x="349.898" y="287.82" width="12.3789" height="28.9554" rx="6.18944" transform="rotate(-55.3394 349.898 287.82)" fill="#BBD675"/>
<rect x="240.263" y="269.037" width="12.0957" height="38.8306" rx="6.04784" transform="rotate(-55.4615 240.263 269.037)" fill="#BBD675"/>
<rect x="269.726" y="293.308" width="12.0957" height="37.5834" rx="6.04784" transform="rotate(-104.488 269.726 293.308)" fill="#BBD675"/>
<rect x="242.56" y="322.798" width="12.0957" height="49.078" rx="6.04784" transform="rotate(-134.758 242.56 322.798)" fill="#BBD675"/>
<path d="M233.434 377.396C231.819 376.07 230.987 374.052 231.084 371.965C231.348 366.296 237.886 363.272 242.379 366.74C246.606 370.005 250.499 373.01 254.944 376.443C259.527 379.981 265.717 380.627 270.93 378.108L289.984 368.901C293.86 367.028 298.345 369.918 298.24 374.222C298.199 375.916 297.422 377.5 296.055 378.502C290.513 382.566 275.193 392.886 263.201 392.326C252.174 391.812 238.874 381.86 233.434 377.396Z" fill="#BBD675"/>
<rect x="307.802" y="318.837" width="12.0957" height="49.078" rx="6.04784" transform="rotate(142.367 307.802 318.837)" fill="#BBD675"/>
<path d="M393.868 390.13C392.593 393.928 388.48 395.974 384.681 394.698C380.247 393.209 378.334 387.961 380.588 383.862C383.378 378.789 386.741 372.162 388.544 366.726C390.279 361.498 391.529 354.485 392.332 348.933C393.001 344.303 397.693 341.269 402.128 342.758C405.923 344.033 407.967 348.143 406.692 351.938L393.868 390.13Z" fill="#BBD675"/>
<path d="M347.654 473.122C346.746 476.891 349.066 480.683 352.835 481.59C357.309 482.668 361.626 479.221 361.826 474.624C362.039 469.692 362.534 463.69 363.654 459.122C364.728 454.739 366.93 449.419 368.923 445.086C370.845 440.905 368.574 435.868 364.1 434.79C360.334 433.883 356.546 436.201 355.639 439.967L347.654 473.122Z" fill="#BBD675"/>
<path d="M173.217 604.736C176.885 605.991 180.877 604.036 182.133 600.368C183.623 596.014 180.595 591.394 176.036 590.766C171.146 590.093 165.217 589.04 160.773 587.498C156.51 586.02 151.419 583.33 147.291 580.941C143.307 578.637 138.08 580.427 136.59 584.781C135.335 588.446 137.289 592.434 140.953 593.689L173.217 604.736Z" fill="#BBD675"/>
<path d="M189.916 774.893C188.95 778.405 191.015 782.035 194.527 783.001C198.97 784.222 203.31 780.612 203.482 776.007C203.585 773.259 203.873 770.385 204.519 768.086C205.13 765.912 206.288 763.451 207.54 761.161C209.752 757.119 207.875 751.795 203.433 750.574C199.925 749.61 196.299 751.672 195.335 755.179L189.916 774.893Z" fill="#BBD675"/>
<path d="M319.858 580.174C316.542 577.914 312.022 578.771 309.763 582.088C307.182 585.876 308.698 591.097 312.845 593.048C319.054 595.97 327.55 600.242 333.492 604.317C339.22 608.244 346.02 614.35 350.866 618.934C354.196 622.083 359.614 621.589 362.195 617.801C364.453 614.486 363.596 609.969 360.282 607.712L319.858 580.174Z" fill="#BBD675"/>
<rect x="172.168" y="73.6388" width="23.3528" height="67.8954" rx="11.6764" transform="rotate(39.8959 172.168 73.6388)" fill="#BBD675"/>
<rect x="97.9715" y="113.305" width="23.3528" height="58.6153" rx="11.6764" transform="rotate(-62.5579 97.9715 113.305)" fill="#BBD675"/>
<rect x="195.696" width="11.2692" height="42.5143" rx="5.63458" transform="rotate(21.0985 195.696 0)" fill="#BBD675"/>
<rect x="29.547" y="392.67" width="11.2692" height="32.4576" rx="5.63458" transform="rotate(-33.2241 29.547 392.67)" fill="#BBD675"/>
<rect x="74.6449" y="368.865" width="11.2692" height="28.8667" rx="5.63458" transform="rotate(-13.2701 74.6449 368.865)" fill="#BBD675"/>
<rect x="11.9157" y="491.777" width="11.2692" height="23.3954" rx="5.63458" transform="rotate(-108.765 11.9157 491.777)" fill="#BBD675"/>
<rect x="108.857" y="552.681" width="11.2692" height="15.9573" rx="5.63458" transform="rotate(-23.29 108.857 552.681)" fill="#BBD675"/>
<rect x="202.454" y="587.881" width="11.2692" height="15.9573" rx="5.63458" transform="rotate(57.84 202.454 587.881)" fill="#BBD675"/>
<rect x="277.586" y="578.428" width="11.2692" height="18.5076" rx="5.63458" transform="rotate(-28.178 277.586 578.428)" fill="#BBD675"/>
<rect x="128.626" y="437.036" width="23.3528" height="67.8954" rx="11.6764" transform="rotate(39.8959 128.626 437.036)" fill="#BBD675"/>
<rect x="156.84" y="832.291" width="23.3528" height="57.7743" rx="11.6764" transform="rotate(-126.133 156.84 832.291)" fill="#BBD675"/>
<rect x="54.4286" y="476.702" width="23.3528" height="58.6153" rx="11.6764" transform="rotate(-62.5579 54.4286 476.702)" fill="#BBD675"/>
<rect x="226.702" y="824.917" width="23.3528" height="58.6153" rx="11.6764" transform="rotate(141.321 226.702 824.917)" fill="#BBD675"/>
<rect y="418.587" width="11.2692" height="42.5143" rx="5.63458" transform="rotate(-45.1386 0 418.587)" fill="#BBD675"/>
<rect x="90.196" y="507.437" width="11.2692" height="42.5143" rx="5.63458" transform="rotate(-18.2647 90.196 507.437)" fill="#BBD675"/>
<rect x="232.488" y="865.321" width="11.2692" height="24.0537" rx="5.63458" transform="rotate(-54.5943 232.488 865.321)" fill="#BBD675"/>
<rect x="210.801" y="741.073" width="11.2692" height="18.7488" rx="5.63458" transform="rotate(-140.037 210.801 741.073)" fill="#BBD675"/>
<rect x="277.798" y="692.029" width="11.2692" height="18.7488" rx="5.63458" transform="rotate(-91.077 277.798 692.029)" fill="#BBD675"/>
<rect x="306.82" y="691.187" width="11.2692" height="31.2706" rx="5.63458" transform="rotate(-85.2066 306.82 691.187)" fill="#BBD675"/>
<rect x="232.151" y="718.086" width="11.2692" height="40.1065" rx="5.63458" transform="rotate(-118.659 232.151 718.086)" fill="#BBD675"/>
<rect x="226.36" y="594.08" width="11.2692" height="39.53" rx="5.63458" transform="rotate(-103.514 226.36 594.08)" fill="#BBD675"/>
</svg>
