<svg width="122" height="880" viewBox="0 0 122 880" fill="none" xmlns="http://www.w3.org/2000/svg">
<rect x="97.9715" y="113.305" width="23.3528" height="58.6153" rx="11.6764" transform="rotate(-62.5579 97.9715 113.305)" fill="#BBD675"/>
<rect x="29.5469" y="392.67" width="11.2692" height="32.4576" rx="5.63458" transform="rotate(-33.2241 29.5469 392.67)" fill="#BBD675"/>
<rect x="74.645" y="368.865" width="11.2692" height="28.8667" rx="5.63458" transform="rotate(-13.2701 74.645 368.865)" fill="#BBD675"/>
<rect x="11.9158" y="491.777" width="11.2692" height="23.3954" rx="5.63458" transform="rotate(-108.765 11.9158 491.777)" fill="#BBD675"/>
<rect x="108.857" y="552.681" width="11.2692" height="15.9573" rx="5.63458" transform="rotate(-23.29 108.857 552.681)" fill="#BBD675"/>
<rect x="128.626" y="437.036" width="23.3528" height="67.8954" rx="11.6764" transform="rotate(39.8959 128.626 437.036)" fill="#BBD675"/>
<rect x="54.4286" y="476.702" width="23.3528" height="58.6153" rx="11.6764" transform="rotate(-62.5579 54.4286 476.702)" fill="#BBD675"/>
<rect y="418.587" width="11.2692" height="42.5143" rx="5.63458" transform="rotate(-45.1386 0 418.587)" fill="#BBD675"/>
<rect x="90.196" y="507.437" width="11.2692" height="42.5143" rx="5.63458" transform="rotate(-18.2647 90.196 507.437)" fill="#BBD675"/>
</svg>
