<svg width="110" height="569" viewBox="0 0 110 569" fill="none" xmlns="http://www.w3.org/2000/svg">
<rect x="73.4648" y="199.202" width="12.8026" height="51.0021" rx="6.40128" transform="rotate(-125.01 73.4648 199.202)" fill="#95C11F"/>
<rect y="524.066" width="12.8026" height="58.1154" rx="6.40128" transform="rotate(-70.4683 0 524.066)" fill="#95C11F"/>
<rect x="18" y="503.744" width="12.8026" height="65.7989" rx="6.40128" transform="rotate(-12.375 18 503.744)" fill="#95C11F"/>
<path d="M79.9925 316.407C82.9131 316.54 85.5137 314.677 86.4361 311.903C88.123 306.829 83.4577 301.725 78.1439 302.32C72.9625 302.9 67.1497 303.041 62.8907 301.703C58.686 300.382 54.1385 297.374 50.3841 294.44C46.3557 291.291 40.1093 292.593 38.2236 297.345C36.9398 300.58 38.2079 304.262 41.2862 305.887C46.3136 308.541 53.9922 312.285 60.1184 313.921C66.1654 315.537 74.6852 316.165 79.9925 316.407Z" fill="#95C11F"/>
<path d="M23.4002 256.943C22.8297 259.811 24.2806 262.662 26.8848 263.99C31.6477 266.42 37.3943 262.575 37.6049 257.232C37.8102 252.022 38.5437 246.254 40.5062 242.245C42.4439 238.286 46.1012 234.242 49.5663 230.971C53.2842 227.462 52.936 221.091 48.5209 218.512C45.5151 216.757 41.6846 217.458 39.6158 220.257C36.2369 224.829 31.3819 231.857 28.8433 237.668C26.3375 243.404 24.437 251.733 23.4002 256.943Z" fill="#95C11F"/>
<path d="M127.825 436.832C130.818 434.572 131.371 430.295 129.051 427.348C126.569 424.194 121.883 423.906 118.962 426.658C115.103 430.293 109.842 435.057 105.424 438.367C101.054 441.642 95.049 445.613 90.571 448.498C87.284 450.615 86.4981 455.113 88.9191 458.184C91.1256 460.982 95.1649 461.502 98.0086 459.354L127.825 436.832Z" fill="#95C11F"/>
<path d="M35.7818 481.689C32.601 483.366 31.4056 487.32 33.1245 490.478C35.0656 494.045 39.7904 494.963 43.0821 492.585C45.5411 490.809 48.366 488.915 50.8406 487.628C53.3524 486.322 56.6007 484.922 59.4813 483.752C63.1094 482.279 64.7376 477.973 62.8636 474.535C61.191 471.466 57.3634 470.31 54.2718 471.94L35.7818 481.689Z" fill="#95C11F"/>
</svg>
