<svg width="286" height="272" viewBox="0 0 286 272" fill="none" xmlns="http://www.w3.org/2000/svg">
<path d="M3.92915 228.1L114.213 131.459M43.3425 243.424L154.935 145.414M74.3737 268.771L145.32 207.28M145.32 207.28L187.593 170.64M145.32 207.28C156.517 225.246 182.92 248.842 198.956 199.495C209.749 213.158 237.389 232.514 261.608 200.632C285.827 168.75 257.669 146.336 240.563 139.114C260.741 136.431 296.254 120.094 276.881 76.2089C257.508 32.324 216.439 56.3531 198.326 73.8533C209.543 58.9189 193.395 10.4902 171.336 4.65544C149.277 -1.17929 115.262 15.4918 128.352 79.1059C119.729 69.1732 98.5696 55.0102 82.9098 77.8195C67.25 100.629 84.6617 133.507 95.3249 147.096" stroke="#95C11F" stroke-width="6" stroke-linecap="round" stroke-linejoin="round"/>
</svg>
