<svg width="90" height="98" viewBox="0 0 90 98" fill="none" xmlns="http://www.w3.org/2000/svg">
<path d="M55.1561 88.2583L55.1726 87.1196C52.0175 87.3019 47.9248 83.8727 45.9825 82.2437C40.3344 77.5086 35.9387 71.504 31.8499 65.4315C27.4814 58.9376 23.1087 52.3734 19.5792 45.3768C19.3799 45.0001 19.2022 44.6292 19.0087 44.2309L17.6508 44.2135C18.0378 45.01 18.4169 45.7929 18.8155 46.5463C19.68 48.2329 20.5933 49.9095 21.5419 51.584C19.9653 51.2193 17.9461 50.7822 16.6788 51.3318C15.3489 51.8992 15.1387 53.4595 15.5884 54.7116C17.0127 58.6614 21.7275 58.5622 24.8202 57.1045C27.7861 61.8946 30.9843 66.5506 34.2717 71.0458C36.9056 74.6614 39.7366 78.1452 42.9668 81.2162C45.8217 83.9212 49.3205 87.1104 53.2085 88.0714C53.8686 88.2367 54.5224 88.2964 55.1561 88.2583ZM24.4774 56.5738C22.0797 57.2478 19.2053 57.6323 17.4311 55.5056C15.9007 53.6752 16.6396 52.2104 19.3634 52.2589C20.3045 52.2802 21.2274 52.5852 22.1671 52.6984C22.9163 53.9962 23.6793 55.2861 24.4774 56.5738Z" fill="#95C11F"/>
<path d="M53.2306 73.2505C52.5626 73.0715 52.7677 72.1334 53.4015 72.0953C54.0489 72.0494 54.6848 72.0466 55.3185 72.0085L55.2995 73.4584C54.5875 73.487 53.877 73.4237 53.2306 73.2505Z" fill="#95C11F"/>
<path d="M47.1663 48.8658C48.6159 49.7046 50.4768 48.448 49.585 46.7772C49.3542 46.3458 49.9079 45.9168 50.2617 46.2772C51.6847 47.7324 50.4826 50.1932 48.6072 50.3835C47.7779 50.4616 46.9549 50.1717 46.3226 49.6443C46.3873 50.1351 46.4306 50.6202 46.333 51.1137C46.1552 52.036 45.5606 52.9621 44.5238 52.9961C43.4381 53.04 42.485 52.1149 42.2398 51.0908C42.1383 50.6941 42.6553 50.3592 42.9444 50.7022C43.2551 51.0511 43.519 51.4451 43.9427 51.6741C44.7468 52.1205 45.1959 51.4787 45.3218 50.7503C45.4136 50.2784 45.3919 49.7991 45.3487 49.3141C45.3218 48.9836 45.2675 48.6688 45.2133 48.3541C45.2133 48.3541 45.066 47.7834 44.9592 47.5354C44.7969 47.5381 44.6245 47.4919 44.4752 47.3595C43.774 46.7444 43.0785 46.1077 42.3773 45.4925C42.0787 45.2278 41.7449 44.9651 41.4521 44.6788L43.3697 44.7192C43.6977 45.0034 44.0121 45.2955 44.3401 45.5797C44.3447 45.3038 44.3551 45.0063 44.3598 44.7304L45.6336 44.76C45.6322 45.3254 45.6093 45.8851 45.5727 46.4527C45.9991 47.3175 46.2501 48.3201 47.1663 48.8658Z" fill="#95C11F"/>
<path d="M28.9071 45.6015C30.884 45.3344 32.8077 45.0069 34.7015 44.5328L36.5056 44.5659C34.109 45.4942 31.5448 46.1004 28.9819 46.1411C28.6787 46.1523 28.5981 45.6342 28.9071 45.6015Z" fill="#95C11F"/>
<path d="M33.0808 47.9091C32.7208 47.9166 32.6439 47.3417 33.0075 47.2775C34.7243 47.0331 36.2991 46.5428 37.7602 45.5717C38.0859 45.3472 38.372 45.8742 38.0599 46.0908C36.5836 47.1618 34.9001 47.8423 33.0808 47.9091Z" fill="#95C11F"/>
<path d="M31.0288 53.283C30.6615 53.404 30.5142 52.8334 30.8736 52.6987C34.0262 51.5342 36.536 49.6663 38.9873 47.4132C39.1743 47.2324 39.5354 47.4793 39.3584 47.709C37.3319 50.4454 34.2409 52.2846 31.0288 53.283Z" fill="#95C11F"/>
<path d="M14.8327 22.1075C16.5405 18.5351 20.0655 16.6274 24.0003 17.5431C26.3584 18.0942 28.2601 19.4005 29.8503 21.0506C29.2702 19.5095 28.9286 17.9399 28.9534 16.4685C29.017 13.1714 31.3977 10.4491 34.3449 9.27571C43.0225 5.8503 49.7767 15.1196 53.833 21.3566C54.4949 22.377 55.1353 23.3915 55.7836 24.4197L55.7674 26.5055C52.1127 20.3645 47.8199 12.4244 40.6066 10.3415C36.6298 9.1951 31.5181 10.6892 30.3992 15.1238C29.361 19.2567 32.7137 23.8963 34.6192 27.3861C35.0921 27.2588 35.585 27.2292 36.1137 27.3247C36.4995 27.3934 36.363 27.9458 36.0188 27.9806C35.125 28.0413 34.2507 28.5461 33.7433 29.2761C33.3604 29.8433 32.4363 29.2839 32.8193 28.7168C33.0913 28.3047 33.446 27.9725 33.8206 27.738C33.1971 27.0051 32.5673 26.1666 31.99 25.2613C30.132 22.8004 28.0492 20.3601 25.2169 19.2086C21.4064 17.6564 17.6306 19.035 15.9255 22.7698C12.8329 29.5277 15.8615 37.8334 18.995 44.2389L17.6371 44.2215C14.4199 37.4818 11.5511 29.011 14.8327 22.1075Z" fill="#95C11F"/>
<path d="M38.8763 25.5474C39.238 25.9215 39.7298 25.6376 39.7985 25.2518C39.9062 25.2807 40.0176 25.2528 40.1542 25.1739C40.9854 24.6576 41.681 24.001 42.5653 23.5451C43.51 23.0361 44.4968 22.7578 45.5167 22.4422C45.7043 22.3885 45.7562 22.1946 45.7126 22.0559C45.814 21.9791 45.8701 21.8556 45.889 21.699C46.0833 19.6379 43.6121 16.9665 42.2385 15.6285C40.8276 14.2574 38.7204 12.9422 36.7385 13.8314C31.7201 16.0549 36.5434 23.1787 38.8763 25.5474ZM38.6858 14.8382C41.674 15.408 43.9276 19.2797 44.9742 21.8811C43.0535 22.0247 40.7468 22.9193 39.5538 24.3549C39.5071 24.4001 39.4898 24.4647 39.4645 24.5157C38.2943 23.1513 37.2119 21.7181 36.4493 20.0819C35.5012 18.0611 35.4548 14.2265 38.6858 14.8382Z" fill="#95C11F"/>
<path d="M21.4449 34.1909C21.6357 34.4268 21.898 34.4393 22.0892 34.3289C22.2385 34.4613 22.454 34.519 22.6531 34.4223C23.7408 33.94 24.6522 32.9949 25.7277 32.4285C26.6315 31.9432 27.8005 31.2865 28.831 31.1469L28.8231 31.1332C28.8856 31.1153 28.9324 31.0701 29.0043 30.9739C29.1714 30.6954 28.9547 30.3833 28.6631 30.3513C28.6494 30.3592 28.6279 30.3534 28.6279 30.3534C28.7272 30.2415 28.7891 30.0964 28.7433 29.9225C27.7943 26.8276 24.021 21.3015 20.1981 23.5451C15.8504 26.1099 19.1985 31.4989 21.4449 34.1909ZM20.9494 24.4045C24.0651 22.8607 26.9077 28.068 27.8879 30.2706C27.9116 30.3116 27.9353 30.3526 27.951 30.3799C26.991 30.5153 25.9464 31.0091 25.1578 31.4098C24.2246 31.8757 23.0183 32.4993 22.3138 33.3614C22.3138 33.3614 22.3138 33.3614 22.3059 33.3477C20.5869 31.3166 17.0586 26.3412 20.9494 24.4045Z" fill="#95C11F"/>
<path d="M40.6631 43.659C40.6216 43.5555 40.6231 43.4635 40.6383 43.3637C40.4244 43.214 40.2667 42.9408 40.471 42.6953C40.5372 42.6207 40.6034 42.546 40.6638 42.4929C40.6969 42.4556 40.7242 42.4398 40.7652 42.4162C41.1708 42.1091 41.6768 41.9445 42.1534 41.7604C42.4366 41.6515 42.7198 41.5427 42.9972 41.4554C43.1496 41.4038 43.4623 41.3144 43.6068 41.2492C43.7097 41.0804 43.9304 40.9895 44.1416 40.9768C44.3177 40.9662 44.4864 41.0692 44.5947 41.2252C44.7675 40.9251 45.2446 40.8682 45.3268 41.2943C45.5646 42.432 45.6207 43.6017 45.6064 44.7757L44.3326 44.7462C44.3501 43.8617 44.3677 42.9773 44.4499 42.1102C44.1658 42.4382 43.6871 42.5871 43.2672 42.7748C42.8474 42.9625 42.3262 43.227 41.8065 43.3996C42.2638 43.7184 42.6492 44.1334 43.0676 44.5111C43.1501 44.591 43.2463 44.663 43.3288 44.7428L41.4112 44.7024C41.13 44.373 40.8351 44.0515 40.6631 43.659Z" fill="#95C11F"/>
<path d="M44.7464 32.6861C45.876 31.9611 47.4139 32.8581 47.4296 34.1787C47.4318 34.6874 46.6126 34.8143 46.5241 34.2825C46.5341 34.3314 46.4079 34.1128 46.3922 34.0855C46.3685 34.0445 46.3937 33.9936 46.4132 33.9641C46.1787 33.5895 45.5611 33.3086 45.2059 33.5136C44.9737 33.6477 44.8713 33.9436 44.8509 34.1922C44.8232 34.5542 44.9767 34.757 45.2243 34.9966C45.5859 35.3706 45.1189 35.9499 44.6795 35.6936C43.6241 35.0644 43.7865 33.2949 44.7464 32.6861Z" fill="#95C11F"/>
<path d="M33.549 37.9308C34.6213 37.075 36.144 38.0719 36.3157 39.2842C36.3599 39.5501 35.9774 39.7709 35.8391 39.4683C35.5804 38.9255 34.7687 38.1191 34.1152 38.5329C33.6586 38.8147 33.7066 39.4973 34.1187 39.7694C34.5014 40.022 34.2556 40.6375 33.7952 40.5026C32.6553 40.2318 32.7594 38.5507 33.549 37.9308Z" fill="#95C11F"/>
<path d="M47.1826 38.8933C49.3483 37.5337 51.0278 35.9629 52.6468 33.9718C52.8706 33.6969 53.2811 34.0609 53.122 34.3532C51.9109 36.546 49.7768 38.4337 47.4823 39.4124C47.1386 39.5744 46.8489 39.1042 47.1826 38.8933Z" fill="#95C11F"/>
<path d="M48.8142 40.1733C50.3232 39.4114 51.7749 38.5186 53.0809 37.4367C53.3363 37.2164 53.7195 37.5962 53.4505 37.8244C52.1156 39.014 50.666 39.942 48.9804 40.5873C48.7539 40.6999 48.5877 40.2858 48.8142 40.1733Z" fill="#95C11F"/>
<path d="M50.9462 41.7839C50.5978 41.7483 50.6113 41.2669 50.9497 41.2537C52.626 41.1601 54.164 40.7639 55.6263 40.0472L55.6224 40.9237C54.1874 41.6247 52.5805 41.9332 50.9462 41.7839Z" fill="#95C11F"/>
<path d="M38.0093 43.9526C37.5212 44.1797 37.0173 44.3796 36.5134 44.5794L34.7094 44.5464C35.7608 44.2854 36.8159 43.9677 37.8747 43.5932C38.0817 43.5101 38.2085 43.8558 38.0093 43.9526Z" fill="#95C11F"/>
<path d="M72.5914 60.7245C73.8655 64.7611 75.6969 69.6051 75.0293 73.9066C74.455 77.6442 71.1314 79.9638 67.4259 79.5714C63.4856 79.1507 60.7135 75.7058 59.8284 72.0276C58.8685 72.6364 57.7435 73.0855 56.598 73.3098C58.7787 76.2036 60.3912 80.2269 59.8243 83.8509C59.4058 86.5333 57.5444 88.1361 55.1503 88.2798L55.1667 87.141C56.2093 87.0855 57.1504 86.6333 57.8873 85.6067C60.417 82.0698 57.567 76.5024 55.413 73.4657C55.3778 73.4678 55.3426 73.4699 55.3074 73.472L55.3264 72.0222C55.9738 71.9762 56.6191 71.8951 57.2796 71.7141C58.5438 71.3485 59.6503 70.7096 60.7999 70.0823C61.2586 69.8357 61.6761 70.4326 61.3451 70.8058C61.166 71.0003 60.979 71.1811 60.7704 71.3562C60.8314 71.4303 60.8924 71.5043 60.9203 71.6157C61.7969 75.1532 64.4476 78.577 68.3936 78.5027C73.0732 78.4056 74.508 74.1711 73.8835 70.1239C72.7165 62.4555 69.5989 54.7841 66.5854 47.6718C66.2236 46.8243 65.8697 45.9905 65.4942 45.1508L66.7113 45.1767C66.9979 45.8309 67.2766 46.4714 67.5632 47.1255C69.4123 51.5586 71.1269 56.1058 72.5914 60.7245Z" fill="#95C11F"/>
<path d="M58.8095 29.503C57.8236 27.7954 56.8241 26.0958 55.7836 24.4197L55.7674 26.5055C55.8936 26.724 56.0277 26.9563 56.1676 27.1669C59.6309 32.9448 62.7549 38.9551 65.4785 45.1237L66.6955 45.1496C65.4344 42.2712 64.0914 39.4402 62.68 36.6487C65.9693 35.4053 66.9104 30.1263 65.6293 27.1503C64.9572 25.6076 63.4745 24.8061 61.8608 25.3553C60.0323 25.9739 59.2851 27.7713 58.8095 29.503ZM59.5509 30.7871C59.625 30.7261 59.6696 30.6457 59.6906 30.5243C60.0285 29.0906 60.4295 27.2928 61.8565 26.5781C64.0449 25.4786 64.8575 27.8326 64.9138 29.4758C65.0265 31.9425 64.3983 34.5456 62.3388 36.0261C61.4485 34.2633 60.5094 32.5105 59.5509 30.7871Z" fill="#95C11F"/>
<path d="M57.3782 39.8007C56.8323 40.2434 56.2255 40.6119 55.6144 40.9101L55.6183 40.0336C56.0713 39.8085 56.5221 39.5482 56.9707 39.2527C57.2986 39.0635 57.6824 39.5705 57.3782 39.8007Z" fill="#95C11F"/>
</svg>
