<svg width="107" height="102" viewBox="0 0 107 102" fill="none" xmlns="http://www.w3.org/2000/svg">
<path d="M39.7592 26.9613C40.1421 27.271 40.4991 27.6772 40.769 28.2154C40.8751 28.3991 41.0165 28.644 41.132 28.9855C41.2605 29.2787 41.4019 29.5237 41.4821 29.804C41.7037 30.3292 41.8322 30.6224 41.9417 30.6C42.1124 30.5422 42.2478 30.4232 42.4704 30.1723L43.4122 28.9754C43.8702 28.4252 44.2057 27.9457 44.4895 27.6594C44.7862 27.3248 45.0441 27.1351 45.2631 27.0903C45.4822 27.0455 45.7366 27.0619 45.978 27.1266C46.5576 27.2819 46.8085 27.5044 46.8145 27.8683C46.8369 27.9779 46.7593 28.2676 46.7394 28.7281C46.7359 28.9342 46.6842 29.1274 46.6678 29.3818L46.2821 31.4007L45.774 33.4902C45.7351 33.6351 45.6834 33.8283 45.6316 34.0215C45.5799 34.2147 45.5152 34.4561 45.4505 34.6976C45.3599 35.0356 45.221 35.3608 45.0562 35.7825C44.9562 35.9627 44.8691 36.0946 44.6983 36.1524C44.5276 36.2102 44.3214 36.2067 44.0317 36.1291C43.597 36.0126 43.4073 35.7547 43.5238 35.3201L44.5063 32.4259C44.6228 31.9913 44.7651 31.4601 44.9816 30.8452C45.1982 30.2303 45.3017 29.844 45.3405 29.6991C45.5217 29.023 45.5639 28.672 45.5286 28.6107L45.4674 28.6461C45.3061 28.8617 44.9093 29.3765 44.2512 30.2871C43.5931 31.1978 43.1481 31.6997 42.9161 31.7928L42.6712 31.9342L42.3167 32.098L41.9269 32.2006C41.8173 32.223 41.7208 32.1972 41.5147 32.1937C41.1542 31.9936 40.9515 31.784 40.7618 31.5261C40.6334 31.2329 40.4825 30.8301 40.3221 30.2696C40.1618 29.709 40.0238 29.2579 39.86 28.9035C39.7445 28.562 39.5064 28.2911 39.1589 28.0427C39.0718 28.1747 39.0071 28.4161 38.8812 28.693C38.7423 29.0181 38.6647 29.3078 38.5741 29.6459C38.3411 30.5152 38.0918 31.6389 37.9132 32.885C37.7346 34.1312 37.5594 35.1712 37.4973 35.9828C37.4714 36.0793 37.3972 36.163 37.2394 36.1725C37.0815 36.1819 36.972 36.2043 36.8271 36.1655C36.4891 36.0749 36.3701 35.9395 36.3736 35.7334C36.3521 34.8477 36.4177 33.8301 36.5222 32.6676C36.6291 32.0751 36.7361 31.4827 36.8431 30.8902C36.9501 30.2977 37.1054 29.7182 37.2477 29.187C37.6877 27.545 38.056 26.5567 38.3881 26.2834C38.4623 26.1997 38.5847 26.129 38.7908 26.1325C38.9004 26.1101 38.9487 26.123 39.0582 26.1006C39.1065 26.1135 39.216 26.0911 39.3126 26.117C39.5541 26.1817 39.7343 26.2818 39.805 26.4042C39.8498 26.6233 39.8593 26.7811 39.7592 26.9613Z" fill="#95C11F"/>
<path d="M48.285 37.8381C48.2591 37.9347 48.1979 37.9701 48.1013 37.9442C48.0047 37.9183 47.8727 37.8312 47.7184 37.6345C47.6477 37.5121 47.4804 37.3637 47.2648 37.2024C47.1329 37.1153 47.0751 36.9446 47.0656 36.7867C47.0786 36.7385 47.0915 36.6902 47.1044 36.6419C47.1303 36.5453 47.1433 36.497 47.1562 36.4487C47.2727 36.014 47.4021 35.5311 47.5927 35.0128C47.7833 34.4945 47.9481 34.0728 48.074 33.796C48.1128 33.6511 48.2 33.5192 48.2647 33.2777C48.3294 33.0363 48.3682 32.8914 48.4424 32.8077C48.4682 32.7111 48.5424 32.6275 48.6295 32.4956C48.6425 32.4473 48.6554 32.399 48.7166 32.3636C48.7779 32.3283 48.8391 32.2929 48.8874 32.3058C48.984 32.3317 49.0676 32.4059 49.1513 32.4801C49.4859 32.7768 49.6143 33.07 49.5367 33.3598C49.5238 33.4081 49.5108 33.4563 49.4979 33.5046C49.4849 33.5529 49.4849 33.5529 49.4367 33.54C49.0813 34.48 48.8389 35.1914 48.6965 35.7227C48.5154 36.3988 48.3954 37.0395 48.285 37.8381ZM50.1906 30.5329C50.3804 30.7907 50.4864 30.9744 50.4347 31.1676C50.4217 31.2159 50.4088 31.2642 50.3346 31.3478C50.257 31.6376 50.1569 31.8178 50.131 31.9144C50.0569 31.9981 49.9956 32.0334 49.9473 32.0205C49.899 32.0075 49.7188 31.9075 49.5162 31.6979C49.3359 31.5979 49.2652 31.4754 49.2074 31.3046C49.1497 31.1339 49.1531 30.9277 49.192 30.7829C49.2437 30.5897 49.2696 30.4931 49.2213 30.4802C49.3248 30.0938 49.4732 29.9265 49.6664 29.9783C49.7147 29.9912 49.8112 30.0171 49.8466 30.0783C49.9302 30.1525 49.9656 30.2137 50.0846 30.3492C50.1553 30.4716 50.1906 30.5329 50.1906 30.5329Z" fill="#95C11F"/>
<path d="M56.7147 33.4196C56.7725 33.5904 56.8303 33.7611 56.7785 33.9543C56.7397 34.0992 56.6526 34.2311 56.4689 34.3372C56.2981 34.3949 56.1273 34.4527 55.9342 34.4009C55.7539 34.3009 55.5737 34.2008 55.384 33.943C55.1814 33.7334 54.9658 33.5721 54.7243 33.5074C54.6277 33.4815 54.4828 33.4427 54.2767 33.4392C54.0706 33.4358 53.974 33.4099 53.8291 33.3711C53.3686 33.3512 52.9788 33.4538 52.6338 33.7754C52.4854 33.9427 52.3371 34.11 52.2241 34.3385C52.1111 34.5671 52.0111 34.7473 51.9334 35.0371L51.8653 35.4846C51.7841 35.9805 51.8962 36.5282 52.2015 37.1276C52.4584 37.714 52.9732 38.1108 53.7459 38.3178C53.9391 38.3696 54.084 38.4084 54.2418 38.3989C54.3996 38.3894 54.5445 38.4283 54.654 38.4058C54.9567 38.4352 55.2241 38.4033 55.5173 38.2748C55.6268 38.2524 55.7493 38.1817 55.933 38.0757C56.1167 37.9696 56.2875 37.9118 56.4099 37.8411C56.7161 37.6644 56.9964 37.5842 57.1542 37.5747L57.5052 37.617C57.7467 37.6817 57.9269 37.7817 58.033 37.9654C58.139 38.1492 58.1838 38.3682 58.1321 38.5614C58.0544 38.8511 57.8319 39.1021 57.4292 39.253L56.8073 39.4487L56.2468 39.609L55.6508 39.7082C55.1774 39.7366 54.8134 39.7426 54.4978 39.7615C54.1951 39.7322 53.6992 39.6511 53.1197 39.4958C52.6368 39.3664 52.1797 39.1404 51.8581 38.7954C51.4881 38.4375 51.2277 38.0571 50.9932 37.5802C50.8069 37.1162 50.6819 36.6169 50.6052 36.1305C50.5863 35.8148 50.6027 35.5604 50.6062 35.3543C50.6226 35.0999 50.6743 34.9067 50.739 34.6653C50.9461 33.8926 51.3204 33.2682 51.862 32.7922C52.4037 32.3162 53.0867 32.0852 53.9595 32.112C54.4683 32.1448 54.8193 32.1871 55.1573 32.2776C55.93 32.4847 56.5061 32.8461 56.7147 33.4196Z" fill="#95C11F"/>
<path d="M64.7387 40.1762C64.8681 39.6933 65.0588 39.175 65.3236 38.5731L65.7014 37.7426L66.1663 36.7802C66.2534 36.6483 66.3405 36.5163 66.463 36.4456C66.5855 36.3749 66.7433 36.3655 66.8882 36.4043C67.0813 36.456 67.2133 36.5431 67.284 36.6656C67.403 36.801 67.4125 36.9588 67.3607 37.152C67.3478 37.2003 67.3348 37.2486 67.3219 37.2969L66.857 38.2593L66.4921 39.0415C66.392 39.2217 66.3403 39.4149 66.2402 39.5951C66.1402 39.7753 66.0884 39.9685 66.0496 40.1134C66.0108 40.2583 65.9719 40.4032 65.9814 40.561C65.9426 40.7059 65.965 40.8154 66.0004 40.8766C66.0357 40.9379 66.0711 40.9991 66.1194 41.012C66.3962 41.138 66.6118 41.2993 66.6825 41.4217C66.8851 41.6313 66.9041 41.9469 66.8135 42.285C66.7747 42.4299 66.6746 42.6101 66.5875 42.7421C66.5004 42.874 66.365 42.993 66.2779 43.1249L65.7681 43.8683C65.681 44.0002 65.5585 44.0709 65.4361 44.1416C65.3265 44.1641 65.217 44.1865 65.0721 44.1476C64.9273 44.1088 64.7953 44.0217 64.6763 43.8863C64.5573 43.7509 64.5478 43.5931 64.5996 43.3999C64.6255 43.3033 64.6514 43.2067 64.7126 43.1714L65.2706 42.441C65.3319 42.4056 65.3448 42.3573 65.2965 42.3444C65.2965 42.3444 65.3095 42.2961 65.3224 42.2478C65.3742 42.0546 65.2681 41.8709 65.0266 41.8062C64.7981 41.6932 64.6662 41.6061 64.6308 41.5449C64.1315 41.6699 63.7546 41.7242 63.5355 41.769C63.1587 41.8233 62.7947 41.8293 62.4567 41.7387C61.5874 41.5058 61.0148 40.9383 60.7872 40.0491C60.6975 39.611 60.6691 39.1376 60.7278 38.5322C60.7666 38.3873 60.8089 38.0363 60.903 37.4921C60.9323 37.1894 60.9841 36.9962 61.0358 36.8031C61.0876 36.6099 61.1523 36.3684 61.23 36.0787C61.3076 35.7889 61.3594 35.5957 61.3723 35.5474L61.5405 34.9196C61.5923 34.7264 61.6794 34.5945 61.8502 34.5367C61.9726 34.466 62.1304 34.4565 62.3236 34.5083C62.4685 34.5471 62.6004 34.6342 62.7194 34.7697C62.8384 34.9051 62.8479 35.0629 62.7962 35.2561L62.6279 35.8839C62.5632 36.1253 62.5115 36.3185 62.4597 36.5117C62.4079 36.7049 62.3562 36.898 62.2561 37.0783C62.2044 37.2714 62.1397 37.5129 62.1103 37.8156C62.081 38.1183 61.9904 38.4564 61.9481 38.8074C61.9058 39.1584 61.9248 39.474 61.992 39.8026C62.1299 40.2536 62.3679 40.5244 62.7543 40.628C63.044 40.7056 63.3597 40.6867 63.8107 40.5487C64.091 40.4685 64.3101 40.4237 64.4809 40.366L64.7387 40.1762Z" fill="#95C11F"/>
<path d="M72.8519 37.3295C73.058 37.333 73.2512 37.3847 73.4573 37.3882C73.6634 37.3917 73.8566 37.4434 73.9532 37.4693C74.581 37.6375 75.0734 37.9247 75.3468 38.2568C75.5011 38.4534 75.6555 38.6501 75.8322 38.9562C76.009 39.2624 76.1858 39.5686 76.3979 39.936C76.5746 40.2422 76.5936 40.5578 76.516 40.8476C76.4513 41.089 76.3512 41.2693 76.1675 41.3753C75.9709 41.5297 75.7518 41.5745 75.3879 41.5805L74.2737 41.489C73.6682 41.4303 73.0982 41.4328 72.5282 41.4354C71.9581 41.4379 71.3622 41.537 70.6921 41.7198C70.8395 42.3287 71.1223 42.8185 71.6371 43.2153C72.0907 43.6474 72.7892 43.9381 73.6102 44.1581C74.0932 44.2875 74.7469 44.3591 75.5101 44.4083C75.6679 44.3989 75.7386 44.5213 75.8447 44.705C75.9507 44.8887 75.9602 45.0466 75.9085 45.2397C75.8308 45.5295 75.6954 45.6485 75.441 45.6321C74.6778 45.5829 74.0241 45.5112 73.348 45.3301C71.4162 44.8125 70.1615 43.6998 69.5709 42.0405L69.5226 42.0276L69.4131 42.05C69.3165 42.0241 69.2458 41.9016 69.188 41.7309C69.1303 41.5601 69.1337 41.354 69.1243 41.1962C69.176 41.003 69.2502 40.9194 69.3597 40.897C69.3632 40.6908 69.3537 40.533 69.3925 40.3881C69.4184 40.2916 69.4089 40.1337 69.4478 39.9889C69.5125 39.7474 69.6255 39.5189 69.7385 39.2903C69.8515 39.0618 70.0127 38.8462 70.187 38.5823C70.5095 38.1512 70.8675 37.7812 71.3573 37.4984C71.7342 37.4441 72.2819 37.332 72.8519 37.3295ZM75.1413 40.3757L75.0611 40.0954C75.0034 39.9247 74.8973 39.741 74.7559 39.496C74.6498 39.3123 74.4472 39.1027 74.2446 38.8932C74.0419 38.6836 73.7651 38.5576 73.4753 38.48C72.8475 38.3118 72.2516 38.4109 71.6263 38.8127C71.3201 38.9895 71.0976 39.2404 70.8751 39.4914C70.6526 39.7423 70.5266 40.0191 70.436 40.3572L70.3584 40.6469C71.2829 40.4806 72.1815 40.4108 72.9707 40.3634L73.9529 40.3678L74.7291 40.3688C74.9706 40.4335 75.1284 40.424 75.1413 40.3757Z" fill="#95C11F"/>
<path d="M25.7545 44.8443C25.9934 44.3389 26.2065 43.9301 26.3324 43.6533C26.5713 43.148 26.7361 42.7263 26.8396 42.3399C26.8784 42.195 26.9172 42.0502 26.9561 41.9053C27.1338 41.4353 27.2468 41.2068 27.2597 41.1585C27.2726 41.1102 27.2856 41.0619 27.2985 41.0136C27.3115 40.9653 27.3244 40.917 27.3373 40.8687C27.3408 40.6626 27.4409 40.4824 27.6246 40.3763C27.8083 40.2702 27.9661 40.2608 28.111 40.2996C28.2558 40.3384 28.3878 40.4255 28.4585 40.548C28.5292 40.6705 28.5999 40.7929 28.5611 40.9378C28.5223 41.0827 28.5317 41.2405 28.4929 41.3854C28.4541 41.5303 28.3894 41.7717 28.2505 42.0968C28.1116 42.422 28.0599 42.6151 28.0211 42.76C27.9081 42.9885 27.8434 43.23 27.7304 43.4585C27.6174 43.6871 27.4914 43.9639 27.3043 44.2761C27.4362 44.3632 27.5199 44.4373 27.5776 44.6081C27.6483 44.7306 27.6578 44.8884 27.619 45.0333C27.5931 45.1299 27.506 45.2618 27.3835 45.3325C27.2481 45.4515 27.1869 45.4869 27.1127 45.5705C27.0998 45.6188 27.0256 45.7025 27.048 45.812C27.0221 45.9086 27.0928 46.031 27.1635 46.1535C27.2342 46.276 27.3179 46.3501 27.4145 46.376C27.7267 46.5632 27.9552 46.6762 28.0259 46.7987C28.0966 46.9211 28.1897 47.1531 28.2569 47.4817C28.2794 47.5912 28.2535 47.6878 28.2147 47.8327C28.15 48.0742 28.024 48.351 27.8369 48.6632C27.7368 48.8434 27.6368 49.0236 27.4884 49.1909C27.3884 49.3712 27.2529 49.4902 27.0822 49.5479C26.9114 49.6057 26.7536 49.6152 26.5604 49.5634C26.3672 49.5116 26.2353 49.4245 26.1646 49.3021C26.0939 49.1796 26.0361 49.0088 26.0879 48.8157C26.2362 48.6484 26.3846 48.4811 26.5329 48.3138C26.6813 48.1465 26.7201 48.0016 26.7589 47.8567C26.7753 47.6023 26.5727 47.3927 26.1993 47.2409C25.8259 47.0891 25.6103 46.9278 25.5525 46.7571C25.5172 46.6958 25.543 46.5992 25.4723 46.4768C25.4016 46.3543 25.4275 46.2577 25.4405 46.2094C25.0506 46.312 24.722 46.3792 24.503 46.4241C24.1261 46.4784 23.7622 46.4844 23.4241 46.3938C23.1827 46.3291 22.8575 46.1902 22.5583 45.9548C22.1978 45.7546 21.9952 45.5451 21.8408 45.3484L21.7701 45.226C21.4769 45.3544 21.1966 45.4346 20.9163 45.5148C20.6973 45.5596 20.4912 45.5561 20.3333 45.5656C20.1272 45.5622 19.9211 45.5587 19.7279 45.5069C19.4735 45.4905 19.2804 45.4388 19.0872 45.387C18.7974 45.3094 18.5206 45.1834 18.2921 45.0704C18.0635 44.9574 17.8962 44.8091 17.7419 44.6124C17.5039 44.3416 17.3271 44.0355 17.2116 43.6939C17.0478 43.3395 16.9935 42.9626 16.9875 42.5987C17.0039 42.3442 17.0073 42.1381 17.0367 41.8354C17.0531 41.581 17.1307 41.2913 17.2213 40.9532C17.3507 40.4703 17.5155 40.0486 17.6802 39.6269C17.8062 39.35 17.8709 39.1086 17.958 38.9766C18.0451 38.8447 18.1581 38.6162 18.3453 38.304C18.4324 38.1721 18.5195 38.0401 18.6773 38.0306C18.7998 37.9599 18.9447 37.9988 19.0412 38.0246C19.1861 38.0635 19.3181 38.1506 19.4371 38.286C19.5561 38.4214 19.5655 38.5792 19.5138 38.7724C19.5008 38.8207 19.4879 38.869 19.475 38.9173C19.3878 39.0492 19.3007 39.1812 19.236 39.4226C19.136 39.6029 19.0713 39.8443 18.9712 40.0246C18.8582 40.2531 18.8065 40.4463 18.7547 40.6394C18.7029 40.8326 18.6382 41.0741 18.5865 41.2672C18.47 41.7019 18.4148 42.1012 18.4208 42.4651C18.4303 42.6229 18.4397 42.7808 18.4975 42.9515C18.5906 43.1835 18.732 43.4284 18.9217 43.6863C19.0054 43.7605 19.089 43.8347 19.1727 43.9088C19.2563 43.983 19.4012 44.0218 19.4978 44.0477C19.6427 44.0865 19.7393 44.1124 19.8488 44.09C19.9454 44.1159 20.0549 44.0935 20.1515 44.1194C20.2481 44.1452 20.3576 44.1228 20.5154 44.1133C20.6733 44.1039 20.7828 44.0815 20.8923 44.059C21.0018 44.0366 21.1597 44.0272 21.2209 43.9918C21.2821 43.9565 21.3916 43.934 21.5754 43.828C21.5693 43.464 21.6246 43.0648 21.741 42.6301C21.7928 42.4369 21.9222 41.954 22.1646 41.2425C22.2422 40.9528 22.3682 40.676 22.4329 40.4345C22.5235 40.0964 22.5657 39.7454 22.608 39.3944C22.6115 39.1883 22.7116 39.0081 22.8823 38.9503C23.066 38.8443 23.2238 38.8348 23.417 38.8866C23.5619 38.9254 23.6938 39.0125 23.7775 39.0867C23.8482 39.2091 23.9189 39.3316 23.8671 39.5248C23.8637 39.7309 23.8248 39.8758 23.7731 40.0689C23.7343 40.2138 23.6696 40.4553 23.6049 40.6968C23.5143 41.0348 23.3978 41.4695 23.1942 42.036C23.0036 42.5543 22.926 42.8441 22.913 42.8924L22.8095 43.2787C23.0156 43.2822 23.1476 43.3693 23.2536 43.553C23.3597 43.7367 23.3691 43.8945 23.3174 44.0877C23.2656 44.2809 23.1302 44.3999 22.9595 44.4577C23.0431 44.5318 23.1267 44.606 23.307 44.7061C23.4389 44.7932 23.6321 44.8449 23.777 44.8838C24.115 44.9743 24.4177 45.0037 24.6239 45.0072C24.83 45.0106 25.062 44.9175 25.3422 44.8373L25.7545 44.8443Z" fill="#95C11F"/>
<path d="M37.0037 50.1883C36.82 50.2943 36.6139 50.2909 36.3724 50.2262C36.2276 50.1873 36.1439 50.1132 36.0603 50.039C35.9766 49.9648 35.9189 49.794 35.9094 49.6362L35.8551 49.2594C35.0108 49.706 34.0509 49.8111 32.9884 49.5265C32.4089 49.3712 31.9165 49.0839 31.5466 48.726C31.1896 48.3198 30.9197 47.7816 30.6886 47.0986C30.586 46.7088 30.5671 46.3931 30.5352 46.1258C30.5033 45.8584 30.5197 45.604 30.5844 45.3626C30.6974 45.134 30.7362 44.9891 30.8587 44.9184C31.007 44.7511 31.1683 44.5356 31.3909 44.2846C31.578 43.9724 31.7876 43.7698 32.0455 43.5801C32.3034 43.3904 32.5966 43.2619 33.0476 43.124C33.6082 42.9636 34.1783 42.9611 34.8061 43.1293L35.1441 43.2199C35.3278 43.1138 35.4374 43.0914 35.5952 43.0819C35.8979 43.1113 36.1842 43.395 36.5895 43.8142L36.7896 43.4537C36.8767 43.3218 36.9509 43.2381 37.0733 43.1674C37.2441 43.1097 37.4019 43.1002 37.5468 43.139C37.74 43.1908 37.9202 43.2908 38.0392 43.4262C38.2065 43.5746 38.216 43.7324 38.1642 43.9256C38.1383 44.0222 38.0995 44.167 38.0253 44.2507C37.9512 44.3343 37.9253 44.4309 37.9123 44.4792L37.6734 44.9846C37.657 45.239 37.6018 45.6383 37.6526 46.2213C37.7034 46.8042 37.6482 47.2035 37.5706 47.4933C37.5317 47.6382 37.3929 47.9633 37.2281 48.385L37.3014 49.0775C37.3108 49.2353 37.3332 49.3449 37.2944 49.4897C37.3039 49.6476 37.278 49.7441 37.2392 49.889C37.0908 50.0563 37.065 50.1529 37.0037 50.1883ZM35.7345 47.7777C35.8958 47.5621 36.0571 47.3466 36.1347 47.0568C36.2512 46.6222 36.2357 46.1004 36.1624 45.4079C36.153 45.2501 36.1176 45.1888 35.9727 45.15L35.8279 45.1112L35.5734 45.0948C35.4415 45.0077 35.2871 44.811 35.0362 44.5885C34.7982 44.3177 34.5697 44.2047 34.3765 44.1529C34.0384 44.0623 33.6745 44.0683 33.2847 44.1709C32.8949 44.2735 32.6241 44.5115 32.3886 44.8108C32.3757 44.8591 32.2403 44.9781 32.0919 45.1454C31.9694 45.2161 31.8953 45.2997 31.8694 45.3963C31.8435 45.4929 31.7823 45.5282 31.7564 45.6248L31.7529 45.8309C31.7157 47.322 32.1977 48.2276 33.2602 48.5123C33.7431 48.6417 34.2166 48.6133 34.7289 48.44C35.2058 48.2054 35.512 48.0287 35.7345 47.7777Z" fill="#95C11F"/>
<path d="M46.1618 45.7582C46.2196 45.9289 46.2774 46.0997 46.2256 46.2929C46.1868 46.4378 46.0997 46.5697 45.916 46.6758C45.7452 46.7335 45.5744 46.7913 45.3813 46.7395C45.201 46.6395 45.0208 46.5394 44.8311 46.2816C44.6285 46.072 44.4129 45.9107 44.1714 45.846C44.0748 45.8201 43.9299 45.7813 43.7238 45.7778C43.5177 45.7743 43.4211 45.7485 43.2762 45.7096C42.8157 45.6898 42.4259 45.7924 42.0809 46.114C41.9326 46.2813 41.7842 46.4486 41.6712 46.6771C41.5582 46.9056 41.4582 47.0859 41.3805 47.3756L41.3124 47.8232C41.2313 48.3191 41.3433 48.8667 41.6486 49.4661C41.9055 50.0526 42.4203 50.4493 43.193 50.6564C43.3862 50.7081 43.5311 50.747 43.6889 50.7375C43.8467 50.728 43.9916 50.7668 44.1011 50.7444C44.4038 50.7738 44.6712 50.7419 44.9644 50.6134C45.0739 50.591 45.1964 50.5203 45.3801 50.4142C45.5638 50.3082 45.7346 50.2504 45.857 50.1797C46.1632 50.0029 46.4435 49.9228 46.6013 49.9133L46.9523 49.9556C47.1938 50.0203 47.374 50.1203 47.4801 50.304C47.5861 50.4877 47.6309 50.7068 47.5792 50.9C47.5015 51.1897 47.279 51.4407 46.8763 51.5915L46.2545 51.7873L45.6939 51.9476L45.098 52.0468C44.6245 52.0752 44.2606 52.0812 43.9449 52.1001C43.6422 52.0708 43.1463 51.9897 42.5668 51.8344C42.0839 51.705 41.6268 51.479 41.3052 51.134C40.9352 50.7761 40.6748 50.3957 40.4403 49.9188C40.254 49.4548 40.129 48.9555 40.0523 48.4691C40.0334 48.1534 40.0498 47.899 40.0533 47.6929C40.0697 47.4385 40.1214 47.2453 40.1861 47.0038C40.3932 46.2311 40.7675 45.6068 41.3091 45.1308C41.8508 44.6548 42.5338 44.4237 43.4066 44.4505C43.9154 44.4834 44.2664 44.5256 44.6044 44.6162C45.4384 44.7879 45.9532 45.1847 46.1618 45.7582Z" fill="#95C11F"/>
<path d="M54.4336 47.9226C54.4689 47.9839 54.5043 48.0451 54.5267 48.1546C54.7319 48.9343 54.7758 49.9295 54.6713 51.092C54.5962 51.9518 54.5858 52.5702 54.5176 53.0177C54.5012 53.2722 54.5331 53.5395 54.565 53.8068C54.6193 54.1837 54.6512 54.4511 54.709 54.6218C54.7314 54.7314 54.7055 54.8279 54.6796 54.9245C54.6279 55.1177 54.5537 55.2014 54.37 55.3074C54.1992 55.3652 54.0284 55.4229 53.8836 55.3841C53.787 55.3582 53.7033 55.2841 53.6197 55.2099C53.536 55.1357 53.5136 55.0262 53.4559 54.8554C53.3921 54.3207 53.3249 53.9922 53.3507 53.8956C53.2964 53.5187 53.2775 53.2031 53.2939 52.9486C53.3655 52.295 53.3889 51.6283 53.4605 50.9746C53.4968 50.2597 53.5072 49.6413 53.4434 49.1066C53.0113 49.5602 52.6404 49.9785 52.3049 50.4579C52.1566 50.6252 52.0436 50.8538 51.8918 51.2272C51.7529 51.5523 51.6399 51.7808 51.5657 51.8645C51.2785 52.3569 51.0655 52.7656 50.7558 53.1485C50.4332 53.5797 50.1107 54.0109 49.7657 54.3325C49.6044 54.5481 49.3853 54.5929 49.1439 54.5282C48.9507 54.4765 48.8187 54.3893 48.748 54.2669C48.629 54.1315 48.6196 53.9736 48.6713 53.7805C48.6972 53.6839 48.7714 53.6002 48.8456 53.5166C49.1293 53.2303 49.3777 52.8828 49.7132 52.4033C49.9616 52.0558 50.223 51.66 50.449 51.2029C50.6879 50.6975 50.9751 50.2051 51.227 49.6515C51.5366 49.2686 51.8463 48.8857 52.2171 48.4675C52.5751 48.0976 52.933 47.7276 53.3392 47.3706C53.5359 47.2163 53.7066 47.1585 53.8998 47.2103C54.0447 47.2491 54.1283 47.3233 54.2473 47.4587C54.3534 47.6424 54.4241 47.7648 54.4336 47.9226Z" fill="#95C11F"/>
<path d="M60.0136 49.3143C59.9135 49.4945 59.8488 49.736 59.7099 50.0611C59.571 50.3862 59.4934 50.676 59.4028 51.014C59.157 51.9316 59.0336 52.7785 59.0326 53.5547C59.0317 54.3308 59.218 54.7948 59.5431 54.9337C59.5914 54.9466 59.6879 54.9725 59.7845 54.9984C60.1709 55.1019 60.5607 54.9993 60.8927 54.726C61.286 54.4173 61.644 54.0473 61.857 53.6386L62.2253 52.6503C62.2771 52.4571 62.303 52.3605 62.3289 52.2639C62.3418 52.2156 62.4548 51.9871 62.5937 51.662C62.6678 51.5783 62.8386 51.5206 63.1284 51.5982C63.3215 51.65 63.5147 51.7017 63.6467 51.7889C63.7786 51.876 63.8139 51.9372 63.7881 52.0338L63.0643 53.9621L62.5149 55.6265C62.4372 55.9162 62.3596 56.206 62.3432 56.4604C62.2785 56.7019 62.2621 56.9563 62.2327 57.259C62.2068 57.3556 62.049 57.365 61.7592 57.2874C61.3246 57.1709 61.1444 57.0709 61.122 56.9613C61.0901 56.694 61.1453 56.2947 61.3006 55.7152C60.9685 55.9885 60.6141 56.1524 60.2855 56.2196C59.9569 56.2868 59.7025 56.2704 59.4127 56.1928L59.0747 56.1022C57.6293 55.5079 57.2707 53.7555 58.0342 50.9061C58.1636 50.4232 58.3284 50.0015 58.4931 49.5798L58.7579 48.9779C58.9322 48.714 59.2124 48.6338 59.5988 48.7373C59.9851 48.8408 60.0912 49.0245 60.0136 49.3143Z" fill="#95C11F"/>
<path d="M66.9178 54.8394L66.892 54.9359C66.879 54.9842 66.9144 55.0455 66.9014 55.0938C66.9368 55.155 66.9721 55.2162 66.9721 55.2162C66.904 55.6638 66.897 56.076 66.8289 56.5236C66.8642 56.5849 66.8996 56.6461 66.9479 56.659C67.0315 56.7332 67.0798 56.7461 67.1635 56.8203C67.2471 56.8945 67.2825 56.9557 67.3661 57.0299C67.4851 57.1653 67.5558 57.2878 67.6748 57.4232C67.7102 57.4844 67.8421 57.5715 68.0353 57.6233L68.2767 57.688C68.5665 57.7656 68.7726 57.7691 68.9787 57.7726C69.1849 57.776 69.4039 57.7312 69.7325 57.664C69.7808 57.6769 69.842 57.6416 69.8903 57.6545C69.9869 57.6804 70.0481 57.645 70.0481 57.645C70.0611 57.5967 70.1094 57.6097 70.1223 57.5614C70.1352 57.5131 70.1352 57.5131 70.1482 57.4648C70.2094 57.4294 70.2707 57.3941 70.3802 57.3717C70.4897 57.3493 70.551 57.3139 70.6122 57.2786C70.6122 57.2786 70.6734 57.2432 70.6863 57.1949C70.6993 57.1466 70.7122 57.0983 70.7122 57.0983C70.9218 56.8957 71.0702 56.7284 71.1832 56.4999C71.2962 56.2713 71.4092 56.0428 71.4739 55.8013C71.5386 55.5599 71.5067 55.2925 71.3299 54.9863C71.1885 54.7414 71.0212 54.5931 70.7573 54.4188C70.6254 54.3317 70.5547 54.2093 70.5322 54.0997C70.5098 53.9902 70.4874 53.8807 70.5262 53.7358C70.5651 53.5909 70.6522 53.459 70.7876 53.34C70.923 53.221 71.0808 53.2115 71.274 53.2633C71.3706 53.2891 71.4189 53.3021 71.5025 53.3763C71.9466 53.6505 72.3036 54.0568 72.5382 54.5337C72.8081 55.0719 72.8718 55.6066 72.7295 56.1378C72.626 56.5241 72.4871 56.8492 72.2999 57.1614C72.1127 57.4736 71.8902 57.7245 71.6065 58.0108C71.5323 58.0945 71.4452 58.2264 71.4193 58.323C71.2968 58.3937 71.1873 58.4161 71.0778 58.4385C71.0519 58.5351 71.039 58.5834 70.9777 58.6188C70.9036 58.7024 70.7328 58.7602 70.562 58.8179C70.3913 58.8757 70.2334 58.8852 70.1239 58.9076C69.7341 59.0102 69.4055 59.0774 69.0899 59.0964C68.7742 59.1153 68.4232 59.073 68.0369 58.9695C67.7471 58.8919 67.5057 58.8272 67.3254 58.7271C67.1452 58.6271 66.965 58.527 66.8589 58.3433C66.7528 58.1596 66.6338 58.0242 66.5148 57.8888C66.2993 57.7275 66.1803 57.5921 66.1096 57.4696C65.9069 57.26 65.8008 57.0763 65.7914 56.9185C65.7819 56.7607 65.7371 56.5416 65.8276 56.2036C65.8699 55.8526 65.8863 55.5982 65.8769 55.4404C65.8898 55.3921 65.8674 55.2825 65.845 55.173C65.8226 55.0635 65.8002 54.954 65.826 54.8574C65.839 54.8091 65.8519 54.7608 65.8649 54.7125C65.8778 54.6642 65.8907 54.6159 65.9037 54.5676C65.9166 54.5193 65.9425 54.4227 65.9813 54.2779L66.1944 53.8691L65.7951 53.8139C65.589 53.8104 65.4217 53.6621 65.351 53.5396C65.2449 53.3559 65.2354 53.1981 65.2872 53.0049C65.326 52.86 65.4131 52.7281 65.5356 52.6574C65.6581 52.5867 65.8288 52.5289 66.022 52.5806L66.9655 52.7299L67.2009 52.4307C67.3269 52.1539 67.4528 51.877 67.5787 51.6002C67.6529 51.5166 67.7271 51.4329 67.8495 51.3622C67.972 51.2915 68.0591 51.1596 68.1592 50.9793C68.2592 50.7991 68.4205 50.5835 68.5948 50.3196C68.8173 50.0687 68.9656 49.9014 69.101 49.7824C69.5685 49.39 69.9488 49.1296 70.3645 48.9305C70.8897 48.7089 71.4727 48.658 72.004 48.8004C72.4869 48.9298 72.8215 49.2265 72.9724 49.6292C73.075 50.019 73.1034 50.4925 72.9352 51.1203C72.754 51.7964 72.528 52.2535 72.2089 52.4785C71.8898 52.7036 71.5836 52.8804 71.387 53.0347C71.142 53.1761 70.9454 53.3305 70.7488 53.4849C70.578 53.5426 70.4555 53.6133 70.3943 53.6487C70.2718 53.7194 70.1623 53.7418 70.0528 53.7642C69.7595 53.8927 69.5405 53.9375 69.418 54.0082C69.1377 54.0884 68.9187 54.1332 68.7126 54.1298C68.5677 54.0909 68.4228 54.0521 68.2909 53.965C68.0718 54.0098 67.8657 54.0064 67.6113 53.99C67.4371 54.2538 67.3241 54.4824 67.2111 54.7109L67.1593 54.9041L66.9178 54.8394ZM68.0926 52.7731C68.2375 52.812 68.3824 52.8508 68.5756 52.9025C68.6721 52.9284 68.8429 52.8707 69.0266 52.7646C69.1491 52.6939 69.2715 52.6232 69.4423 52.5654C69.5518 52.543 69.6131 52.5076 69.7355 52.4369C69.8451 52.4145 69.9063 52.3792 69.9675 52.3438C70.0288 52.3085 70.09 52.2731 70.1642 52.1895C70.2383 52.1058 70.3125 52.0222 70.435 51.9515C70.6187 51.8454 70.8024 51.7393 70.9861 51.6333C71.1827 51.4789 71.357 51.2151 71.4734 50.7804C71.4864 50.7321 71.5122 50.6355 71.5381 50.5389C71.564 50.4424 71.5899 50.3458 71.6028 50.2975C71.6546 50.1043 71.5839 49.9818 71.439 49.943C71.1009 49.8524 70.7853 49.8714 70.4791 50.0481C70.2471 50.1413 69.9893 50.331 69.7055 50.6173C69.5701 50.7363 69.4217 50.9036 69.2605 51.1191C69.1733 51.2511 69.0992 51.3347 69.0121 51.4667C68.8861 51.7435 68.7507 51.8625 68.6765 51.9461C68.5411 52.0651 68.4057 52.1841 68.3186 52.3161C68.2574 52.3514 68.2315 52.448 68.2186 52.4963C68.1314 52.6283 68.1185 52.6766 68.0926 52.7731Z" fill="#95C11F"/>
<path d="M77.4956 53.9986C77.3955 54.1789 77.3308 54.4203 77.1919 54.7454C77.0531 55.0706 76.9754 55.3603 76.8848 55.6984C76.639 56.616 76.5156 57.4628 76.5146 58.239C76.5137 59.0152 76.6999 59.4791 77.0251 59.618C77.0734 59.631 77.1699 59.6568 77.2665 59.6827C77.6529 59.7862 78.0427 59.6837 78.3747 59.4103C78.768 59.1016 79.126 58.7317 79.339 58.3229L79.7073 57.3346C79.7591 57.1414 79.785 57.0448 79.8109 56.9483C79.8238 56.9 79.9368 56.6714 80.0757 56.3463C80.1498 56.2627 80.3206 56.2049 80.6104 56.2825C80.8035 56.3343 80.9967 56.3861 81.1287 56.4732C81.2606 56.5603 81.296 56.6215 81.2701 56.7181L80.5464 58.6464L79.9968 60.3108C79.9192 60.6005 79.8416 60.8903 79.8252 61.1447C79.7605 61.3862 79.7441 61.6406 79.7147 61.9433C79.6888 62.0399 79.531 62.0494 79.2412 61.9717C78.8066 61.8553 78.6264 61.7552 78.604 61.6457C78.5721 61.3783 78.6273 60.979 78.7826 60.3995C78.4505 60.6729 78.0961 60.8367 77.7675 60.9039C77.4389 60.9712 77.1845 60.9548 76.8947 60.8771L76.5567 60.7865C75.1113 60.1922 74.7527 58.4398 75.5162 55.5905C75.6456 55.1075 75.8104 54.6858 75.9751 54.2641L76.2399 53.6622C76.4142 53.3983 76.6944 53.3181 77.0808 53.4216C77.4189 53.5122 77.5732 53.7089 77.4956 53.9986Z" fill="#95C11F"/>
<path d="M84.9564 55.3244C85.0849 55.6176 85.2358 56.0204 85.4444 56.5939L85.8359 57.8375C86.0808 57.6961 86.4482 57.484 86.9381 57.2012C87.4763 56.9313 87.8307 56.7675 88.111 56.6873C88.2818 56.6295 88.3913 56.6071 88.5844 56.6589C88.7776 56.7106 88.9096 56.7977 88.9673 56.9685C89.0251 57.1393 89.0829 57.31 89.0441 57.4549C89.0182 57.5515 88.944 57.6351 88.8828 57.6705C87.9548 58.043 87.0492 58.525 86.2402 59.0329L86.6541 60.386C86.9205 61.1303 87.0679 61.7392 87.1705 62.129L87.167 62.3351C87.1282 62.48 87.0057 62.5507 86.835 62.6085C86.6642 62.6662 86.5064 62.6757 86.2649 62.611C86.0847 62.5109 85.9528 62.4238 85.9304 62.3143L85.4682 60.9482C85.2725 60.3264 85.1699 59.9366 85.0992 59.8141L84.0289 60.7178L82.9456 61.6698L82.7878 61.6793C82.6429 61.6405 82.511 61.5534 82.3566 61.3567C82.2023 61.1601 82.1445 60.9893 82.1833 60.8444L82.3446 60.6288C82.5671 60.3779 82.7897 60.127 83.0475 59.9373L83.7116 59.3906L84.6948 58.6188C84.3482 57.5942 84.0594 56.7404 83.8154 56.1057C83.7576 55.9349 83.7352 55.8254 83.7611 55.7288C83.8129 55.5356 83.9483 55.4166 84.132 55.3106C84.3157 55.2045 84.5347 55.1597 84.6796 55.1985C84.8374 55.189 84.9211 55.2632 84.9564 55.3244Z" fill="#95C11F"/>
<path d="M41.1423 58.699C41.1164 58.7956 41.0423 58.8792 41.0164 58.9758C40.9905 59.0724 40.9163 59.156 40.8292 59.288C40.7421 59.4199 40.6421 59.6002 40.5773 59.8416L40.5928 60.3634L40.6083 60.8851C40.6178 61.043 40.579 61.1878 40.5143 61.4293C40.3978 61.8639 40.2072 62.3822 39.8941 62.9712C39.794 63.1515 39.681 63.38 39.6034 63.6698C39.5257 63.9595 39.4127 64.188 39.3351 64.4778C39.2316 64.8641 39.0927 65.1893 38.9668 65.4661C38.8408 65.7429 38.6536 66.0551 38.4665 66.3673C38.1793 66.8597 37.773 67.2167 37.1995 67.4253C36.5648 67.6693 35.9335 67.7072 35.2091 67.5131C34.6779 67.3708 34.2337 67.0965 33.7189 66.6997C33.2524 66.3159 32.86 65.8485 32.6255 65.3715L32.5583 65.043C32.5971 64.8981 32.6842 64.7661 32.8808 64.6118C33.0645 64.5057 33.2353 64.448 33.3931 64.4385C33.5734 64.5385 33.7277 64.7352 33.9174 64.9931L34.4512 65.7055C34.6055 65.9021 34.8211 66.0634 35.0497 66.1764L35.5197 66.3541C36.6787 66.6646 37.5041 65.9023 37.9958 64.0672C37.8121 64.1732 37.4835 64.2405 37.1067 64.2948C36.9005 64.2913 36.7427 64.3008 36.5849 64.3103C36.4271 64.3197 36.2339 64.268 36.0407 64.2162L35.4871 63.9643C35.3551 63.8772 35.1396 63.7159 34.8757 63.5417L34.1582 62.9354L33.7046 62.5033C33.4407 62.329 33.2769 61.9746 33.2131 61.4399C33.1813 61.1725 33.1977 60.9181 33.2141 60.6637C33.2434 60.361 33.2598 60.1066 33.3375 59.8169L33.4539 59.3822C33.4927 59.2373 33.5799 59.1054 33.667 58.9735C33.7541 58.8415 33.8895 58.7225 34.0379 58.5552C34.3087 58.3172 34.6407 58.0439 35.0211 57.7834C35.4014 57.523 35.6593 57.3333 35.8559 57.179C36.2009 56.8573 36.6873 56.7806 37.3634 56.9618C37.7981 57.0782 38.1585 57.2783 38.4578 57.5138C38.5802 57.4431 38.6898 57.4207 38.8476 57.4112C39.1373 57.4889 39.3753 57.7597 39.6452 58.2978L39.8936 57.9503C39.9807 57.8184 40.1032 57.7477 40.2257 57.677C40.3481 57.6063 40.506 57.5968 40.6508 57.6356C40.8923 57.7003 41.0243 57.7874 41.1786 57.9841C41.2105 58.2514 41.2553 58.4705 41.1423 58.699ZM38.192 58.8919C37.7997 58.4245 37.4521 58.176 37.1141 58.0855C36.8726 58.0208 36.6536 58.0656 36.4086 58.207C36.1637 58.3484 35.9058 58.5381 35.5608 58.8598L34.7967 59.5867C34.7354 59.6221 34.6224 59.8506 34.4706 60.224C34.393 60.5138 34.3636 60.8165 34.3826 61.1321C34.4015 61.4478 34.5076 61.6315 34.6878 61.7315C34.8198 61.8186 35 61.9187 35.1544 62.1153L35.6433 62.6087C35.7623 62.7441 35.9425 62.8441 36.1228 62.9442C36.2676 62.983 36.3159 62.9959 36.3642 63.0089C36.7023 63.0995 37.0662 63.0935 37.456 62.9909C37.8459 62.8883 38.1037 62.6986 38.3262 62.4476C38.4298 62.0613 38.5462 61.6266 38.7369 61.1083C38.9275 60.59 39.0181 60.252 39.0569 60.1071C38.9957 60.1425 38.8991 60.1166 38.7413 60.1261C38.561 60.026 38.4291 59.9389 38.3713 59.7681L38.2687 59.3783L38.2144 59.0014C38.2627 59.0144 38.2274 58.9531 38.192 58.8919Z" fill="#95C11F"/>
<path d="M42.7776 66.6943C42.7518 66.7909 42.6905 66.8263 42.594 66.8004C42.4974 66.7745 42.3654 66.6874 42.2111 66.4908C42.1404 66.3683 41.9731 66.2199 41.7575 66.0586C41.6255 65.9715 41.5678 65.8008 41.5583 65.6429C41.5712 65.5947 41.5842 65.5464 41.5971 65.4981C41.623 65.4015 41.6359 65.3532 41.6489 65.3049C41.7653 64.8703 41.8947 64.3873 42.0854 63.869C42.276 63.3507 42.4408 62.929 42.5667 62.6522C42.6055 62.5073 42.6926 62.3754 42.7573 62.1339C42.822 61.8925 42.8609 61.7476 42.935 61.6639C43.0092 61.5803 43.0351 61.4837 43.1222 61.3518C43.1352 61.3035 43.1481 61.2552 43.2093 61.2198C43.2706 61.1845 43.3318 61.1491 43.3801 61.162C43.4767 61.1879 43.5603 61.2621 43.644 61.3363C43.9786 61.633 44.107 61.9262 44.0294 62.216C44.0164 62.2643 44.0035 62.3125 43.9906 62.3608C43.9776 62.4091 43.9776 62.4091 43.9293 62.3962C43.5739 63.3362 43.3315 64.0477 43.1892 64.5789C43.021 65.2067 42.8881 65.8957 42.7776 66.6943ZM44.7316 59.402C44.9213 59.6599 45.0274 59.8436 44.9756 60.0367C44.9627 60.085 44.9498 60.1333 44.8756 60.217C44.7979 60.5067 44.6979 60.687 44.672 60.7836C44.5978 60.8672 44.5366 60.9026 44.4883 60.8896C44.44 60.8767 44.2598 60.7766 44.0571 60.567C43.8769 60.467 43.8062 60.3445 43.7484 60.1738C43.6906 60.003 43.6941 59.7969 43.7329 59.652C43.7847 59.4588 43.8106 59.3622 43.7623 59.3493C43.8658 58.963 44.0142 58.7957 44.2073 58.8474C44.2556 58.8604 44.3522 58.8862 44.3876 58.9475C44.4712 59.0217 44.5066 59.0829 44.6256 59.2183C44.648 59.3278 44.6833 59.3891 44.7316 59.402Z" fill="#95C11F"/>
<path d="M48.1574 60.5268C48.1927 60.588 48.1668 60.6846 48.128 60.8295C48.0892 60.9743 48.0504 61.1192 48.0374 61.1675C48.0116 61.2641 47.9374 61.3477 47.8373 61.528L47.6243 61.9367C48.1754 61.6186 48.855 61.5936 49.7242 61.8265C50.1589 61.943 50.5323 62.0948 50.8315 62.3303C51.1308 62.5657 51.3205 62.8236 51.3265 63.1875C52.0673 63.1272 52.7693 63.2118 53.3488 63.3671C54.6527 63.7165 55.4021 64.5902 55.5615 65.9269C55.6158 66.3038 55.5606 66.7031 55.4312 67.186C55.2888 67.7172 54.9981 68.4158 54.5108 69.2686C54.4237 69.4006 54.2529 69.4583 53.9502 69.429C53.6122 69.3384 53.4449 69.1901 53.413 68.9227C53.4035 68.7649 53.407 68.5588 53.4363 68.2561C53.4881 68.0629 53.627 67.7378 53.84 67.329C54.0531 66.9203 54.179 66.6434 54.2437 66.402C54.3731 65.919 54.2705 65.5292 53.9972 65.1972C53.7238 64.8651 53.328 64.6038 52.7968 64.4614C52.2172 64.3062 51.6955 64.3216 51.2315 64.5079L51.1927 64.6528C51.1797 64.7011 51.1539 64.7976 51.1409 64.8459L50.8303 66.005L50.6104 66.826C50.3904 67.647 49.9712 68.0523 49.3046 68.0289L49.1243 67.9289C48.9441 67.8288 48.8993 67.6097 48.9769 67.32C49.0157 67.1751 49.1676 66.8017 49.4548 66.3093C49.742 65.8169 49.9068 65.3952 49.9715 65.1537L50.0491 64.864C50.075 64.7674 50.1138 64.6225 50.0784 64.5612C49.8275 64.3387 49.7473 64.0584 49.7637 63.804C49.8508 63.6721 49.938 63.5401 50.1217 63.4341C50.2217 63.2539 50.0544 63.1055 49.6681 63.002C49.1852 62.8726 48.7117 62.901 48.164 63.0131C47.7259 63.1027 47.4198 63.2795 47.149 63.5175C46.8781 63.7555 46.7168 63.9711 46.6039 64.1996C46.4909 64.4281 46.3779 64.6567 46.3002 64.9464C46.1872 65.1749 46.1096 65.4647 46.0449 65.7062C45.7801 66.3081 45.4351 66.6298 44.865 66.6323C44.6848 66.5322 44.6012 66.4581 44.5787 66.3485C44.5434 66.2873 44.5339 66.1295 44.5374 65.9234C44.5762 65.7785 44.615 65.6336 44.7151 65.4534C44.8022 65.3214 44.854 65.1283 45.0152 64.9127L45.8027 63.5191C45.6837 63.3837 45.626 63.2129 45.6907 62.9715C45.7424 62.7783 45.8296 62.6463 45.9296 62.4661C46.065 62.3471 46.2134 62.1798 46.4583 62.0384L46.5101 61.8452L46.6748 61.4235L46.8784 60.8569C46.9172 60.7121 47.0043 60.5801 47.0914 60.4482C47.1785 60.3162 47.301 60.2455 47.4105 60.2231L47.7132 60.2525C47.8581 60.2913 48.0384 60.3913 48.1574 60.5268Z" fill="#95C11F"/>
<path d="M61.3084 64.5683C61.5146 64.5717 61.7077 64.6235 61.9139 64.627C62.12 64.6304 62.3131 64.6822 62.4097 64.7081C63.0375 64.8763 63.5299 65.1635 63.8033 65.4956C63.9577 65.6922 64.112 65.8888 64.2888 66.195C64.4655 66.5012 64.6423 66.8074 64.8544 67.1748C65.0312 67.4809 65.0501 67.7966 64.9725 68.0863C64.9078 68.3278 64.8077 68.508 64.624 68.6141C64.4274 68.7684 64.2084 68.8133 63.8444 68.8193L62.7302 68.7278C62.1248 68.6691 61.5547 68.6716 60.9847 68.6741C60.4146 68.6767 59.8187 68.7758 59.1486 68.9586C59.296 69.5675 59.5789 70.0573 60.0937 70.4541C60.5473 70.8862 61.2458 71.1769 62.0668 71.3969C62.5497 71.5263 63.2034 71.5979 63.9666 71.6471C64.1244 71.6376 64.1952 71.7601 64.3012 71.9438C64.4073 72.1275 64.4168 72.2853 64.365 72.4785C64.2874 72.7683 64.1519 72.8873 63.8975 72.8709C63.1343 72.8216 62.4806 72.75 61.8045 72.5688C59.8728 72.0512 58.6181 70.9386 58.0275 69.2793L57.9792 69.2664L57.8696 69.2888C57.773 69.2629 57.7023 69.1404 57.6446 68.9697C57.5868 68.7989 57.5903 68.5928 57.5808 68.435C57.6326 68.2418 57.7067 68.1581 57.8163 68.1357C57.8197 67.9296 57.8103 67.7718 57.8491 67.6269C57.875 67.5303 57.8655 67.3725 57.9043 67.2276C57.969 66.9862 58.082 66.7576 58.195 66.5291C58.308 66.3006 58.4693 66.085 58.6435 65.8211C58.9661 65.3899 59.324 65.02 59.8139 64.7372C60.1908 64.6829 60.6901 64.5579 61.3084 64.5683ZM63.5979 67.6145L63.5177 67.3342C63.4599 67.1634 63.3539 66.9797 63.2124 66.7348C63.1064 66.5511 62.9037 66.3415 62.7011 66.1319C62.4985 65.9223 62.2216 65.7964 61.9319 65.7188C61.304 65.5505 60.7081 65.6497 60.0828 66.0515C59.7767 66.2283 59.5541 66.4792 59.3316 66.7301C59.1091 66.9811 58.9832 67.2579 58.8926 67.596L58.8149 67.8857C59.7395 67.7194 60.6381 67.6496 61.4272 67.6022L62.4095 67.6066L63.1856 67.6075C63.4271 67.6722 63.5366 67.6498 63.5979 67.6145Z" fill="#95C11F"/>
<path d="M69.5988 67.0485C69.4988 67.2287 69.4341 67.4702 69.2952 67.7953C69.1563 68.1204 69.0787 68.4102 68.9881 68.7482C68.7422 69.6658 68.6188 70.5127 68.6179 71.2888C68.617 72.065 68.8032 72.529 69.1283 72.6679C69.1766 72.6808 69.2732 72.7067 69.3698 72.7326C69.7561 72.8361 70.146 72.7335 70.478 72.4601C70.8713 72.1514 71.2292 71.7815 71.4423 71.3727L71.8106 70.3844C71.8624 70.1913 71.8882 70.0947 71.9141 69.9981C71.9271 69.9498 72.0401 69.7213 72.1789 69.3962C72.2531 69.3125 72.4239 69.2547 72.7136 69.3324C72.9068 69.3841 73.1 69.4359 73.2319 69.523C73.3639 69.6101 73.3992 69.6714 73.3733 69.768L72.6496 71.6962L72.1001 73.3606C72.0225 73.6504 71.9448 73.9402 71.9284 74.1946C71.8637 74.436 71.8473 74.6904 71.818 74.9931C71.7921 75.0897 71.6343 75.0992 71.3445 75.0216C70.9099 74.9051 70.7296 74.805 70.7072 74.6955C70.6753 74.4282 70.7306 74.0289 70.8858 73.4493C70.5538 73.7227 70.1993 73.8865 69.8707 73.9538C69.5422 74.021 69.2878 74.0046 68.998 73.927L68.6599 73.8364C67.2146 73.2421 66.856 71.4896 67.6195 68.6403C67.7489 68.1574 67.9136 67.7357 68.0784 67.314L68.3432 66.712C68.5174 66.4481 68.7977 66.368 69.1841 66.4715C69.5704 66.575 69.6765 66.7587 69.5988 67.0485ZM72.5024 68.1888C72.3576 68.15 72.1161 68.0853 71.8134 68.056C71.4624 68.0137 71.2209 67.949 71.076 67.9101C70.9312 67.8713 70.7863 67.8325 70.738 67.8196C70.6897 67.8066 70.606 67.7324 70.5224 67.6583C70.3198 67.4487 70.262 67.2779 70.3267 67.0365C70.3655 66.8916 70.4526 66.7596 70.6363 66.6536C70.7717 66.5346 70.9296 66.5251 71.1227 66.5769C71.2193 66.6027 71.303 66.6769 71.3866 66.7511C71.4703 66.8253 71.7859 66.8063 72.3689 66.7555C72.6975 66.6883 72.9036 66.6917 73.0002 66.7176C73.1934 66.7694 73.3123 66.9048 73.3701 67.0755C73.4279 67.2463 73.4244 67.4524 73.3726 67.6456C73.3209 67.8388 73.2208 68.019 73.0854 68.138C72.8534 68.2311 72.6956 68.2406 72.5024 68.1888Z" fill="#95C11F"/>
<path d="M95.9902 46.0141C93.6444 47.0419 90.6543 48.1559 88.0783 47.7245L87.9265 48.0979C87.8041 48.1686 87.7498 47.7917 87.6437 47.608C86.8625 46.467 86.7608 45.301 86.5048 43.9384C86.2617 42.5275 86.0799 41.0812 86.1041 39.6384C86.0905 37.5643 86.5409 35.304 87.8795 33.5922C89.1439 31.9641 90.7644 31.5184 92.5797 32.4706C94.0345 33.2228 94.9114 35.1659 94.6422 36.7501C95.7513 35.7015 97.6969 35.3946 99.0069 36.108C100.893 37.1827 101.113 39.2602 100.521 41.2756C99.7513 43.761 98.2136 45.0571 95.9902 46.0141Z" fill="#95C11F"/>
<path d="M96.1571 54.858C96.1668 52.1173 95.8609 49.3955 95.3842 46.7315C95.0427 46.847 94.7366 47.0238 94.3951 47.1393C96.4517 58.9743 93.7444 71.3961 84.2141 79.9193C76.6537 86.6928 65.4965 90.2769 55.3918 88.9669C49.982 88.2937 44.7318 86.0588 40.559 82.5079C37.821 80.1697 37.8564 80.231 40.4162 78.0182C41.2286 77.3042 44.9718 73.9593 44.4708 72.7381C43.7205 72.6406 39.5867 76.8643 38.5586 77.417C35.5099 79.1364 32.0852 80.1339 28.6674 80.7192C21.7577 81.9734 15.9969 81.2579 9.83962 78.1588C14.2112 77.1044 17.8335 75.1764 20.7427 71.6598C21.9812 70.1282 23.0784 68.3518 23.8728 66.546C24.2894 65.5706 26.5452 59.0838 25.3318 58.3964C24.347 57.8219 23.6771 65.9242 21.7479 65.9766C20.4983 66.0041 18.1028 62.7742 17.3181 61.8393C15.6072 59.7245 14.2285 57.3364 13.2524 54.7974C6.49098 37.1468 21.03 19.9759 36.7763 13.9464C55.2936 6.84783 76.3815 12.7571 87.4275 29.4853C88.019 30.3684 88.5493 31.2869 89.0796 32.2054C89.3728 32.077 89.7144 31.9614 90.03 31.9425C89.0401 30.2279 87.9407 28.5358 86.7188 26.9144C80.4679 18.5623 72.2677 13.6218 62.3676 10.969C52.4191 8.30333 40.9351 10.4023 31.8346 15.0033C26.9912 17.4323 22.6073 20.6573 18.9857 24.7077C15.7221 28.3882 13.1664 32.5171 11.612 36.9662C10.274 40.8003 9.69587 44.8898 10.0482 49.1768C10.4359 53.5251 11.5661 59.1593 14.2961 62.6859C15.3697 64.4746 16.5657 66.1926 17.9454 67.8046C19.7175 69.884 20.0909 70.0358 17.9468 72.0493C16.3572 73.5386 14.5297 74.757 12.5607 75.7305C11.6681 76.1642 6.70055 77.3177 6.5418 78.1033C6.15266 80.3283 17.0127 82.8759 18.5357 83.1805C23.359 84.1105 27.7013 83.3589 32.4817 82.5176C34.9879 82.0504 35.4888 83.2716 37.6706 84.7879C39.817 86.2429 42.1117 87.5307 44.4971 88.4804C49.7248 90.6058 55.4597 91.4179 61.0929 91.0639C70.5493 90.5438 79.6169 86.4516 86.4331 79.9445C93.5459 73.1028 96.1908 64.391 96.1571 54.858Z" fill="#95C11F"/>
</svg>
