<svg width="103" height="151" viewBox="0 0 103 151" fill="none" xmlns="http://www.w3.org/2000/svg">
<path d="M155.562 149.727L83.7248 99.4295M158.851 124.652L86.0326 73.7891M169.155 103.018L123.336 70.565M123.336 70.565L96.0346 51.2276M123.336 70.565C132.177 61.503 142.124 42.8071 111.177 40.5191C117.577 32.3045 124.884 13.4933 102.917 3.96539C80.9498 -5.56256 71.9396 13.9846 70.1804 24.9491C65.7489 13.6107 51.203 -4.69081 28.4711 12.8107C5.73915 30.3123 25.5441 50.7457 38.2881 58.7747C28.0163 54.3858 2.186 70.6613 1.93782 84.305C1.68965 97.9486 16.2163 115.332 51.3026 98.6712C46.761 105.094 41.5474 119.401 57.0258 125.249C72.5043 131.097 89.1227 116.302 95.4971 108.174" stroke="#95C11F" stroke-width="2" stroke-linecap="round" stroke-linejoin="round"/>
</svg>
