<svg width="105" height="162" viewBox="0 0 105 162" fill="none" xmlns="http://www.w3.org/2000/svg">
<path d="M-63.4541 135.764L2.50057 77.9679M-39.8831 144.928L26.8542 86.314M-21.325 160.087L21.104 123.312M21.104 123.312L46.3855 101.4M21.104 123.312C27.8003 134.057 43.5905 148.168 53.1808 118.657C59.6355 126.828 76.1659 138.404 90.65 119.337C105.134 100.27 88.2943 86.8651 78.0639 82.5459C90.1314 80.9414 111.37 71.1712 99.7838 44.926C88.1977 18.6808 63.6366 33.0513 52.8043 43.5172C59.5126 34.5858 49.855 5.62319 36.6628 2.13375C23.4706 -1.35569 3.12821 8.61441 10.9564 46.6585C5.79978 40.7183 -6.85472 32.2482 -16.22 45.8892C-25.5853 59.5302 -15.1723 79.1932 -8.79519 87.3196" stroke="#95C11F" stroke-width="2" stroke-linecap="round" stroke-linejoin="round"/>
</svg>
