<svg width="106" height="103" viewBox="0 0 106 103" fill="none" xmlns="http://www.w3.org/2000/svg">
<path d="M50.1604 2.33088C51.084 -0.378627 54.916 -0.378632 55.8396 2.33087L63.9915 26.2473C64.5322 27.8336 66.2675 28.6693 67.8448 28.103L91.6261 19.5648C94.3203 18.5975 96.7096 21.5935 95.167 24.0049L81.551 45.29C80.6479 46.7017 81.0765 48.5795 82.5027 49.4596L104.006 62.7291C106.442 64.2324 105.589 67.9684 102.742 68.2659L77.611 70.8915C75.9442 71.0656 74.7433 72.5715 74.9445 74.2353L77.9768 99.3202C78.3203 102.162 74.8677 103.825 72.86 101.784L55.1384 83.7733C53.9631 82.5788 52.0369 82.5788 50.8616 83.7733L33.14 101.784C31.1323 103.825 27.6797 102.162 28.0232 99.3202L31.0555 74.2353C31.2567 72.5715 30.0558 71.0656 28.389 70.8915L3.2582 68.2659C0.411121 67.9684 -0.441607 64.2324 1.99446 62.7291L23.4973 49.4596C24.9235 48.5795 25.3521 46.7017 24.449 45.29L10.833 24.0049C9.29044 21.5935 11.6797 18.5975 14.3739 19.5647L38.1552 28.103C39.7325 28.6693 41.4678 27.8336 42.0085 26.2473L50.1604 2.33088Z" fill="#EA560D"/>
</svg>
