<svg width="139" height="129" viewBox="0 0 139 129" fill="none" xmlns="http://www.w3.org/2000/svg">
<path d="M39.0276 33.6779C39.7391 33.9941 40.4506 34.4684 41.083 35.1799C41.3202 35.4171 41.6364 35.7333 41.9527 36.2077C42.2689 36.603 42.5851 36.9192 42.8223 37.3145C43.3757 38.026 43.6919 38.4213 43.85 38.3422C44.0872 38.1841 44.2453 37.9469 44.4824 37.4726L45.4311 35.259C45.9055 34.2313 46.2217 33.3617 46.5379 32.8083C46.8541 32.1758 47.1704 31.7805 47.4866 31.6224C47.8028 31.4643 48.1981 31.3853 48.5934 31.3853C49.5421 31.3853 50.0164 31.6224 50.1745 32.1758C50.2536 32.3339 50.2535 32.8083 50.4117 33.5198C50.4907 33.836 50.4907 34.1522 50.5698 34.5475L50.8069 37.7888L50.886 41.1882C50.886 41.4254 50.886 41.7416 50.886 42.0578C50.886 42.3741 50.886 42.7693 50.886 43.1646C50.886 43.718 50.807 44.2714 50.7279 44.9829C50.6488 45.2991 50.5698 45.5363 50.3326 45.6944C50.0955 45.8525 49.7792 45.9316 49.3049 45.9316C48.5934 45.9316 48.1981 45.6154 48.1981 44.9039L48.5143 40.0814C48.5143 39.3699 48.5143 38.5003 48.5934 37.4726C48.6724 36.4448 48.6724 35.8124 48.6724 35.5752C48.6724 34.4684 48.5934 33.9151 48.5143 33.836L48.4353 33.915C48.2771 34.3103 47.8819 35.259 47.2494 36.9192C46.617 38.5794 46.1426 39.528 45.8264 39.7652L45.5102 40.0814L45.0358 40.4767L44.4824 40.7929C44.3243 40.872 44.1662 40.872 43.85 40.9511C43.2176 40.7929 42.8223 40.5558 42.427 40.2395C42.1108 39.8443 41.7155 39.2909 41.2412 38.5003C40.7668 37.7097 40.3715 37.0773 39.9763 36.603C39.66 36.1286 39.1857 35.8124 38.5532 35.5752C38.4742 35.8124 38.4742 36.2077 38.3951 36.682C38.3161 37.2354 38.3161 37.7097 38.3161 38.2631C38.3161 39.6862 38.3951 41.5044 38.6323 43.4808C38.8695 45.4573 39.0276 47.1174 39.2648 48.3823C39.2648 48.5404 39.1857 48.6986 38.9485 48.7776C38.7113 48.8567 38.5532 48.9357 38.3161 48.9357C37.7627 48.9357 37.5255 48.7776 37.4464 48.4614C37.0512 47.1174 36.735 45.5363 36.4187 43.718C36.3397 42.7693 36.2606 41.8207 36.1815 40.872C36.1025 39.9233 36.1025 38.9746 36.1025 38.105C36.1025 35.4171 36.2606 33.7569 36.6559 33.2035C36.7349 33.0454 36.8931 32.8873 37.2093 32.8083C37.3674 32.7292 37.4465 32.7292 37.6046 32.6502C37.6836 32.6502 37.8417 32.5711 37.9999 32.5711C38.3951 32.5711 38.7114 32.6501 38.8695 32.8083C39.0276 33.1245 39.1066 33.3617 39.0276 33.6779Z" fill="#95C11F"/>
<path d="M56.499 46.8014C56.499 46.9595 56.4199 47.0385 56.2618 47.0385C56.1037 47.0385 55.8665 46.9595 55.5503 46.7223C55.3922 46.5642 55.076 46.4061 54.6807 46.248C54.4435 46.1689 54.2854 45.9318 54.2063 45.6946C54.2063 45.6155 54.2063 45.5365 54.2063 45.4574C54.2063 45.2993 54.2063 45.2203 54.2063 45.1412C54.2063 44.4297 54.2063 43.6391 54.2854 42.7695C54.3644 41.8999 54.4435 41.1884 54.5225 40.7141C54.5225 40.4769 54.6016 40.2397 54.6016 39.8444C54.6016 39.4492 54.6016 39.212 54.6807 39.0539C54.6807 38.8958 54.7597 38.7376 54.8388 38.5005C54.8388 38.4214 54.8388 38.3424 54.9178 38.2633C54.9969 38.1843 55.0759 38.1052 55.155 38.1052C55.3131 38.1052 55.4712 38.1843 55.6293 38.2633C56.2618 38.5795 56.578 38.9748 56.578 39.4492C56.578 39.5282 56.578 39.6073 56.578 39.6863C56.578 39.7654 56.578 39.7654 56.499 39.7654C56.3408 41.3465 56.2618 42.5323 56.2618 43.402C56.2618 44.5087 56.3408 45.5365 56.499 46.8014ZM56.4199 34.8639C56.8152 35.1801 57.0524 35.4173 57.0524 35.7335C57.0524 35.8126 57.0524 35.8916 56.9733 36.0497C56.9733 36.5241 56.8942 36.8403 56.8942 36.9984C56.8152 37.1565 56.7361 37.2356 56.6571 37.2356C56.578 37.2356 56.2618 37.1565 55.8665 36.9194C55.5503 36.8403 55.3922 36.6822 55.2341 36.445C55.0759 36.2078 54.9969 35.8916 54.9969 35.6545C54.9969 35.3382 54.9969 35.1801 54.9178 35.1801C54.9178 34.5477 55.0759 34.2314 55.3922 34.2314C55.4712 34.2314 55.6293 34.2314 55.7084 34.3105C55.8665 34.3896 55.9456 34.4686 56.1827 34.6267C56.3408 34.7848 56.4199 34.8639 56.4199 34.8639Z" fill="#95C11F"/>
<path d="M67.5669 36.6029C67.725 36.8401 67.8831 37.0772 67.8831 37.3934C67.8831 37.6306 67.8041 37.8678 67.5669 38.105C67.3297 38.2631 67.0926 38.4212 66.7763 38.4212C66.4601 38.3421 66.1439 38.2631 65.7486 37.9468C65.3533 37.7097 64.958 37.5516 64.5628 37.5516C64.4046 37.5516 64.1675 37.5516 63.8512 37.6306C63.535 37.7097 63.3769 37.7097 63.1397 37.7097C62.4282 37.8678 61.8748 38.184 61.4796 38.8165C61.3214 39.1327 61.1633 39.4489 61.0843 39.8442C61.0052 40.2395 60.9262 40.5557 60.9262 41.03L61.0052 41.7415C61.0843 42.5321 61.4796 43.3227 62.1911 44.1132C62.8235 44.9038 63.7722 45.2991 65.0371 45.2991C65.3533 45.2991 65.5905 45.2991 65.8276 45.22C66.0648 45.141 66.302 45.1409 66.4601 45.0619C66.9344 44.9828 67.3297 44.8247 67.725 44.5085C67.8831 44.4294 68.0412 44.2713 68.2784 44.0342C68.5156 43.797 68.7527 43.6389 68.9109 43.4808C69.3061 43.0855 69.7014 42.8483 69.9386 42.7693L70.492 42.6902C70.8873 42.6902 71.2035 42.7693 71.4406 43.0064C71.6778 43.2436 71.8359 43.5598 71.8359 43.876C71.8359 44.3504 71.5987 44.8247 71.0454 45.22L70.1757 45.7734L69.3852 46.2477L68.5156 46.643C67.8041 46.8802 67.2507 47.0383 66.7763 47.1964C66.302 47.2755 65.5114 47.3545 64.5628 47.3545C63.7722 47.3545 62.9816 47.1964 62.3492 46.8011C61.6377 46.4058 61.0843 45.9315 60.5309 45.2991C60.0566 44.6666 59.6613 43.9551 59.345 43.2436C59.1869 42.7693 59.1079 42.374 59.0288 42.0578C58.9498 41.6625 58.9498 41.3463 58.9498 40.951C58.9498 39.6861 59.266 38.5793 59.8984 37.6306C60.5309 36.6819 61.4796 36.0495 62.8235 35.7333C63.6141 35.5752 64.1675 35.4961 64.7209 35.4961C65.9858 35.4961 67.0135 35.8123 67.5669 36.6029Z" fill="#95C11F"/>
<path d="M82.5875 43.6392C82.5875 42.8486 82.6666 41.979 82.8247 40.9512L83.0619 39.5282L83.3781 37.8681C83.4571 37.6309 83.5362 37.3937 83.6943 37.2356C83.8524 37.0775 84.0896 36.9984 84.3268 36.9984C84.643 36.9984 84.8801 37.0775 85.0383 37.2356C85.2754 37.3937 85.3545 37.6309 85.3545 37.9471C85.3545 38.0262 85.3545 38.1052 85.3545 38.1843L85.0383 39.8445L84.8011 41.1884C84.722 41.5046 84.722 41.8209 84.643 42.1371C84.5639 42.4533 84.5639 42.7695 84.5639 43.0067C84.5639 43.2439 84.5639 43.481 84.643 43.7182C84.643 43.9554 84.722 44.1135 84.8011 44.1925C84.8801 44.2716 84.9592 44.3507 85.0383 44.3507C85.5126 44.4297 85.9079 44.5878 86.066 44.7459C86.4613 44.9831 86.6194 45.4574 86.6194 46.0108C86.6194 46.248 86.5403 46.5642 86.4613 46.8014C86.3822 47.0386 86.2241 47.2757 86.145 47.5129L85.6707 48.8569C85.5916 49.094 85.4335 49.2521 85.2754 49.4103C85.1173 49.4893 84.9592 49.5684 84.722 49.5684C84.4849 49.5684 84.2477 49.4893 84.0105 49.3312C83.7733 49.1731 83.6943 48.9359 83.6943 48.6197C83.6943 48.4616 83.6943 48.3035 83.7734 48.2244L84.3268 46.8805C84.4058 46.8014 84.4058 46.7223 84.3268 46.7223C84.3268 46.7223 84.3268 46.6433 84.3268 46.5642C84.3268 46.248 84.0896 46.0108 83.6943 46.0108C83.299 45.9318 83.0618 45.8527 82.9828 45.7737C82.2713 46.169 81.7179 46.4061 81.4017 46.5642C80.8483 46.8014 80.2949 46.9595 79.7415 46.9595C78.3185 46.9595 77.2117 46.3271 76.5002 45.0622C76.1839 44.4297 75.9468 43.7182 75.7887 42.7695C75.7887 42.5324 75.7096 41.979 75.6306 41.1094C75.5515 40.635 75.5515 40.3188 75.5515 40.0026C75.5515 39.6863 75.5515 39.2911 75.5515 38.8167C75.5515 38.3424 75.5515 38.0262 75.5515 37.9471V36.9194C75.5515 36.6032 75.6306 36.366 75.8677 36.2079C76.0258 36.0498 76.263 35.9707 76.5792 35.9707C76.8164 35.9707 77.0536 36.0498 77.2907 36.2079C77.5279 36.366 77.607 36.6032 77.607 36.9194V37.9471C77.607 38.3424 77.607 38.6586 77.607 38.9748C77.607 39.2911 77.607 39.6073 77.5279 39.9235C77.5279 40.2397 77.5279 40.635 77.607 41.1094C77.686 41.5837 77.686 42.1371 77.7651 42.6905C77.8441 43.2439 78.0023 43.7182 78.2394 44.1925C78.6347 44.825 79.109 45.1412 79.7415 45.1412C80.2158 45.1412 80.6902 44.9831 81.3226 44.5878C81.7179 44.3507 82.0341 44.1926 82.2713 44.0344L82.5875 43.6392Z" fill="#95C11F"/>
<path d="M93.8136 35.9706C94.1298 35.8915 94.446 35.8915 94.7622 35.8125C95.0785 35.7334 95.3947 35.7334 95.5528 35.7334C96.5805 35.7334 97.4501 35.9706 98.0035 36.3658C98.3198 36.603 98.636 36.8402 99.0313 37.2355C99.4265 37.6307 99.8218 38.026 100.296 38.5004C100.691 38.8956 100.85 39.37 100.85 39.8443C100.85 40.2396 100.771 40.5558 100.533 40.793C100.296 41.1092 99.9799 41.2673 99.4265 41.4254L97.6873 41.7417C96.7386 41.8998 95.869 42.1369 94.9994 42.3741C94.1298 42.6113 93.2602 43.0066 92.3115 43.56C92.7858 44.4296 93.4183 45.062 94.3669 45.4573C95.2366 45.9316 96.4224 46.0898 97.7664 46.0898C98.5569 46.0898 99.5847 45.9316 100.771 45.6945C101.008 45.6154 101.166 45.7735 101.403 46.0107C101.64 46.2479 101.719 46.485 101.719 46.8013C101.719 47.2756 101.561 47.5128 101.166 47.5918C99.9799 47.829 98.9522 47.9871 97.8454 47.9871C94.6832 47.9871 92.3115 46.8013 90.7304 44.5086H90.6513L90.4932 44.5877C90.3351 44.5877 90.177 44.4296 90.0189 44.1924C89.8607 43.9552 89.7817 43.639 89.7026 43.4018C89.7026 43.0856 89.7817 42.9275 89.9398 42.8485C89.8607 42.5322 89.7817 42.2951 89.7817 42.0579C89.7817 41.8998 89.7026 41.6626 89.7026 41.4254C89.7026 41.0302 89.7817 40.6349 89.8608 40.2396C89.9398 39.8443 90.0979 39.449 90.256 38.9747C90.5723 38.1841 90.9675 37.4726 91.6 36.8402C92.1534 36.603 92.9439 36.2077 93.8136 35.9706ZM98.5569 39.6862L98.3198 39.2909C98.1616 39.0538 97.9245 38.8166 97.6083 38.5004C97.3711 38.2632 96.9758 38.026 96.5805 37.7889C96.1853 37.5517 95.7109 37.4726 95.2366 37.4726C94.2088 37.4726 93.3392 37.8679 92.5487 38.7375C92.1534 39.1328 91.9162 39.6072 91.679 40.0815C91.4419 40.5558 91.3628 41.0302 91.3628 41.5836V42.0579C92.7068 41.4254 94.0507 40.9511 95.2366 40.5558L96.7386 40.1605L97.9245 39.8443C98.3198 39.8443 98.5569 39.7653 98.5569 39.6862Z" fill="#95C11F"/>
<path d="M24.9556 66.7234C25.1137 65.8537 25.2718 65.1422 25.3509 64.6679C25.509 63.7983 25.588 63.0868 25.588 62.4543C25.588 62.2172 25.588 61.98 25.588 61.7428C25.6671 60.9523 25.7462 60.557 25.7462 60.4779C25.7462 60.3989 25.7462 60.3198 25.7462 60.2408C25.7462 60.1617 25.7462 60.0826 25.7462 60.0036C25.6671 59.6874 25.7461 59.3711 25.9833 59.134C26.2205 58.8968 26.4576 58.8177 26.6948 58.8177C26.932 58.8177 27.1692 58.8968 27.3273 59.0549C27.4854 59.213 27.6435 59.3711 27.6435 59.6083C27.6435 59.8455 27.7226 60.0826 27.7226 60.3198C27.7226 60.557 27.7226 60.9523 27.6435 61.5056C27.5644 62.059 27.5644 62.3753 27.5644 62.6124C27.4854 63.0077 27.4854 63.403 27.4063 63.7983C27.3273 64.1936 27.2482 64.6679 27.0901 65.2213C27.3273 65.3003 27.4854 65.3794 27.6435 65.6166C27.8016 65.7747 27.8807 66.0119 27.8807 66.249C27.8807 66.4071 27.8016 66.6443 27.6435 66.8024C27.4854 67.0396 27.4063 67.1186 27.3273 67.2767C27.3273 67.3558 27.2482 67.5139 27.3273 67.672C27.3273 67.8301 27.4854 67.9883 27.6435 68.1464C27.8016 68.3045 27.9597 68.3835 28.1178 68.3835C28.6712 68.5416 29.0665 68.6207 29.2246 68.7788C29.3827 68.9369 29.6199 69.2532 29.8571 69.7275C29.9361 69.8856 29.9361 70.0437 29.9361 70.2809C29.9361 70.6762 29.8571 71.1505 29.699 71.7039C29.6199 72.0201 29.5409 72.3363 29.3827 72.6526C29.3037 72.9688 29.1456 73.206 28.9084 73.3641C28.6712 73.5222 28.4341 73.6012 28.1178 73.6012C27.8016 73.6012 27.5645 73.5222 27.4063 73.3641C27.2482 73.206 27.0901 72.9688 27.0901 72.6526C27.2482 72.3363 27.4063 72.0201 27.5644 71.7039C27.7226 71.3877 27.7226 71.1505 27.7226 70.9133C27.6435 70.5181 27.2482 70.2809 26.6158 70.2018C25.9833 70.1228 25.588 69.9647 25.4299 69.7275C25.3509 69.6484 25.3509 69.4903 25.1928 69.3322C25.0346 69.1741 25.0347 69.016 25.0347 68.9369C24.4813 69.2532 24.0069 69.4903 23.6907 69.6484C23.1373 69.8856 22.5839 70.0437 22.0305 70.0437C21.6352 70.0437 21.0818 69.9647 20.5284 69.7275C19.896 69.5694 19.5007 69.3322 19.1845 69.095L19.0264 68.9369C18.6311 69.2532 18.2358 69.4903 17.8405 69.7275C17.5243 69.8856 17.2081 69.9647 16.9709 70.0437C16.6547 70.1228 16.3385 70.2018 16.0222 70.2018C15.627 70.2809 15.3107 70.2809 14.9945 70.2809C14.5202 70.2809 14.0458 70.2018 13.6505 70.1228C13.2553 70.0437 12.939 69.8856 12.6228 69.6484C12.1485 69.3322 11.7532 68.9369 11.437 68.4626C11.0417 67.9883 10.8045 67.4349 10.6464 66.8815C10.5674 66.4862 10.4883 66.17 10.4093 65.6956C10.3302 65.3003 10.3302 64.826 10.3302 64.2726C10.3302 63.4821 10.4092 62.7705 10.4883 62.059C10.5674 61.5847 10.5674 61.1894 10.6464 60.9523C10.7255 60.7151 10.8045 60.3198 10.9626 59.7664C11.0417 59.5292 11.1208 59.2921 11.3579 59.213C11.516 59.0549 11.7532 59.0549 11.9113 59.0549C12.1485 59.0549 12.3857 59.134 12.6228 59.2921C12.86 59.4502 12.939 59.6874 12.939 60.0036C12.939 60.0826 12.939 60.1617 12.939 60.2408C12.86 60.4779 12.7809 60.7151 12.7809 61.1104C12.7019 61.4266 12.7019 61.8219 12.6228 62.1381C12.5438 62.5334 12.5438 62.8496 12.5438 63.1658C12.5438 63.4821 12.5438 63.8773 12.5438 64.1936C12.5438 64.9051 12.6228 65.5375 12.7809 66.0909C12.86 66.3281 12.9391 66.5652 13.0972 66.8024C13.3343 67.1186 13.6505 67.4349 14.0458 67.7511C14.2039 67.8301 14.3621 67.9092 14.5202 67.9883C14.6783 68.0673 14.9155 68.0673 15.0736 68.0673C15.3107 68.0673 15.4688 68.0673 15.627 67.9883C15.7851 67.9883 15.9432 67.9092 16.1013 67.9092C16.2594 67.9092 16.4175 67.8301 16.6547 67.7511C16.8919 67.672 17.05 67.593 17.2081 67.5139C17.3662 67.4349 17.6034 67.3558 17.6824 67.2767C17.7615 67.1977 17.9196 67.1186 18.1568 66.8815C17.9986 66.3281 17.9196 65.6956 17.9196 64.9841C17.9196 64.6679 17.9196 63.8773 17.9986 62.6915C17.9986 62.2172 18.0777 61.7428 18.0777 61.3475C18.0777 60.7941 17.9987 60.2407 17.9196 59.6874C17.8405 59.3711 17.9196 59.0549 18.1568 58.8968C18.3939 58.6596 18.6311 58.5806 18.9473 58.5806C19.1845 58.5806 19.4216 58.6596 19.5798 58.7387C19.7379 58.8968 19.896 59.0549 19.896 59.3711C19.9751 59.6874 19.975 59.9245 19.975 60.2408C19.975 60.4779 19.975 60.8732 19.975 61.2685C19.975 61.8219 19.9751 62.5334 19.896 63.4821C19.8169 64.3517 19.8169 64.826 19.8169 64.9051V65.5375C20.1332 65.4585 20.3703 65.5375 20.6075 65.7747C20.8447 66.0119 20.9237 66.249 20.9237 66.5652C20.9237 66.8815 20.7656 67.1186 20.5284 67.2767C20.6866 67.3558 20.8447 67.4349 21.1609 67.5139C21.3981 67.593 21.7143 67.593 21.9514 67.593C22.5048 67.593 22.9792 67.5139 23.2954 67.4349C23.6116 67.3558 23.9278 67.1186 24.3231 66.8815L24.9556 66.7234Z" fill="#95C11F"/>
<path d="M44.3244 70.2808C44.0872 70.518 43.7709 70.597 43.3757 70.597C43.1385 70.597 42.9804 70.518 42.8223 70.4389C42.6642 70.3599 42.5061 70.1227 42.427 69.8855L42.1898 69.3321C41.083 70.3599 39.66 70.9133 37.9208 70.9133C36.9721 70.9133 36.1025 70.6761 35.391 70.2808C34.6795 69.8065 34.047 69.095 33.4146 68.1463C33.0984 67.5929 32.9403 67.1186 32.7821 66.7233C32.624 66.328 32.545 65.9327 32.545 65.5374C32.624 65.1422 32.624 64.905 32.7821 64.7469C32.9403 64.4306 33.0984 64.0354 33.3355 63.561C33.4937 63.0076 33.7308 62.6124 34.047 62.2171C34.3633 61.8218 34.7585 61.5056 35.391 61.1103C36.1815 60.6359 37.0512 60.3988 38.0789 60.3988H38.6323C38.8695 60.1616 39.0276 60.0826 39.2648 60.0035C39.7391 59.9244 40.2925 60.2407 41.083 60.715L41.2412 60.0826C41.3202 59.8454 41.3993 59.6873 41.5574 59.5292C41.7946 59.3711 42.0317 59.292 42.2689 59.292C42.5851 59.292 42.9013 59.3711 43.1385 59.5292C43.4547 59.6873 43.5338 59.9244 43.5338 60.2407C43.5338 60.3988 43.5338 60.6359 43.4547 60.7941C43.3757 60.9522 43.3757 61.1103 43.3757 61.1893L43.2176 62.059C43.2966 62.4542 43.3757 63.0867 43.6919 63.9563C44.0081 64.8259 44.0872 65.4584 44.0872 65.9327C44.0872 66.1699 44.0081 66.7233 43.9291 67.4348L44.3244 68.4625C44.4034 68.6997 44.4824 68.8578 44.4824 69.095C44.5615 69.3321 44.5615 69.4902 44.5615 69.7274C44.4034 70.0436 44.4034 70.2017 44.3244 70.2808ZM41.3993 67.1186C41.5574 66.7233 41.7155 66.328 41.7155 65.8537C41.7155 65.1422 41.4783 64.3516 41.083 63.3239C41.004 63.0867 40.9249 63.0076 40.6878 63.0076H40.4506L40.0553 63.0867C39.8182 63.0076 39.5019 62.7705 39.0276 62.5333C38.5532 62.2171 38.158 62.138 37.8417 62.138C37.2883 62.138 36.7349 62.2961 36.1815 62.6124C35.6282 62.9286 35.3119 63.4029 35.0748 63.9563C35.0748 64.0354 34.9167 64.2725 34.7585 64.5888C34.6004 64.7469 34.5214 64.905 34.5214 65.0631C34.5214 65.2212 34.4423 65.3003 34.4423 65.4584L34.5214 65.7746C35.0748 68.0672 36.1816 69.2531 37.9208 69.2531C38.7114 69.2531 39.4229 69.0159 40.1344 68.5416C40.7668 67.9882 41.1621 67.5929 41.3993 67.1186Z" fill="#95C11F"/>
<path d="M56.499 59.7666C56.6571 60.0038 56.8152 60.2409 56.8152 60.5572C56.8152 60.7943 56.7362 61.0315 56.499 61.2687C56.2618 61.4268 56.0246 61.5849 55.7084 61.5849C55.3922 61.5059 55.076 61.4268 54.6807 61.1106C54.2854 60.8734 53.8901 60.7153 53.4949 60.7153C53.3367 60.7153 53.0996 60.7153 52.7833 60.7943C52.4671 60.8734 52.309 60.8734 52.0718 60.8734C51.3603 61.0315 50.8069 61.3477 50.4116 61.9802C50.2535 62.2964 50.0954 62.6126 50.0164 63.0079C49.9373 63.4032 49.8583 63.7194 49.8583 64.1938L49.9373 64.9053C50.0164 65.6958 50.4117 66.4864 51.1232 67.2769C51.7556 68.0675 52.7043 68.4628 53.9692 68.4628C54.2854 68.4628 54.5226 68.4628 54.7597 68.3837C54.9969 68.3047 55.2341 68.3047 55.3922 68.2256C55.8665 68.1466 56.2618 67.9885 56.6571 67.6722C56.8152 67.5932 56.9733 67.4351 57.2105 67.1979C57.4477 66.9607 57.6848 66.8026 57.843 66.6445C58.2382 66.2492 58.6335 66.0121 58.8707 65.933L59.4241 65.8539C59.8194 65.8539 60.1356 65.933 60.3727 66.1702C60.6099 66.4073 60.768 66.7236 60.768 67.0398C60.768 67.5141 60.5308 67.9885 59.9775 68.3837L59.1078 68.9371L58.3173 69.4115L57.4477 69.8068C56.7362 70.0439 56.1828 70.202 55.7084 70.3601C55.2341 70.4392 54.4435 70.5183 53.4949 70.5183C52.7043 70.5183 51.9137 70.3601 51.2813 69.9649C50.5698 69.5696 50.0164 69.0952 49.463 68.4628C48.9887 67.8303 48.5934 67.1188 48.2771 66.4073C48.119 65.933 48.04 65.5377 47.9609 65.2215C47.8819 64.8262 47.8819 64.51 47.8819 64.1147C47.8819 62.8498 48.1981 61.743 48.8305 60.7943C49.463 59.8457 50.4117 59.2132 51.7556 58.897C52.5462 58.7389 53.0996 58.6598 53.653 58.6598C54.9969 58.5808 55.9456 58.9761 56.499 59.7666Z" fill="#95C11F"/>
<path d="M70.0176 59.6875C70.0967 59.7665 70.1757 59.8456 70.2548 60.0037C70.8872 61.1105 71.3616 62.6126 71.6778 64.4309C71.915 65.7748 72.1521 66.7235 72.2312 67.435C72.3102 67.8303 72.4683 68.2256 72.6264 68.6208C72.8636 69.1742 73.0217 69.5695 73.1798 69.8067C73.2589 69.9648 73.2589 70.1229 73.2589 70.281C73.2589 70.5972 73.1798 70.7554 72.9427 70.9925C72.7055 71.1506 72.4683 71.3088 72.2312 71.3088C72.0731 71.3088 71.9149 71.2297 71.7568 71.1506C71.5987 71.0716 71.5197 70.9135 71.3615 70.6763C71.0453 69.8857 70.8082 69.4114 70.8082 69.2533C70.571 68.6999 70.4129 68.2256 70.3338 67.8303C70.1757 66.8025 69.9385 65.7748 69.7804 64.7471C69.5432 63.6403 69.3061 62.6916 68.9899 61.9011C68.5155 62.7707 68.1202 63.5612 67.804 64.4309C67.6459 64.7471 67.5668 65.1424 67.4878 65.7748C67.4087 66.3282 67.3297 66.7235 67.2506 66.8816C67.0135 67.7512 66.8554 68.4627 66.5391 69.1742C66.2229 69.9648 65.9067 70.7554 65.5114 71.3878C65.3533 71.7831 65.037 71.9412 64.6418 71.9412C64.3255 71.9412 64.0884 71.8621 63.9303 71.704C63.6931 71.5459 63.614 71.3088 63.614 70.9925C63.614 70.8344 63.6931 70.6763 63.7722 70.5182C64.0884 69.9648 64.3255 69.3323 64.6418 68.4627C64.8789 67.8303 65.1161 67.1188 65.2742 66.3282C65.4323 65.4586 65.6695 64.589 65.8276 63.6403C66.1438 62.9288 66.4601 62.2173 66.8554 61.4267C67.2506 60.7152 67.6459 60.0037 68.1203 59.2922C68.3574 58.976 68.5946 58.8179 68.9108 58.8179C69.148 58.8179 69.3061 58.8969 69.5433 59.055C69.7804 59.2922 69.9385 59.4503 70.0176 59.6875Z" fill="#95C11F"/>
<path d="M79.1091 59.5294C79.0301 59.8456 79.03 60.2409 78.951 60.7943C78.8719 61.3477 78.8719 61.822 78.8719 62.3754C78.8719 63.8775 79.03 65.2214 79.3463 66.4073C79.6625 67.5931 80.1368 68.2256 80.6902 68.3046C80.7693 68.3046 80.9274 68.3046 81.0855 68.3046C81.718 68.3046 82.2714 67.9884 82.6666 67.435C83.141 66.8025 83.5362 66.091 83.6944 65.3795L83.8525 63.7194C83.8525 63.4031 83.8525 63.245 83.8525 63.0869C83.8525 63.0079 83.9315 62.6126 84.0106 62.0592C84.0896 61.9011 84.3268 61.7429 84.8011 61.7429C85.1174 61.7429 85.4336 61.743 85.6708 61.822C85.9079 61.9011 85.987 61.9801 85.987 62.1382L85.6708 65.3795L85.5127 68.1465C85.5127 68.6208 85.5126 69.0952 85.5917 69.4905C85.5917 69.8857 85.6708 70.281 85.7498 70.7554C85.7498 70.9135 85.5127 70.9925 85.0383 70.9925C84.3268 70.9925 84.0106 70.9135 83.9315 70.7554C83.7734 70.3601 83.6944 69.7276 83.6944 68.7789C83.2991 69.3323 82.8248 69.7276 82.3504 69.9648C81.8761 70.202 81.4808 70.281 81.0065 70.281H80.4531C78.0023 69.9648 76.7374 67.435 76.7374 62.7707C76.7374 61.9801 76.8165 61.2686 76.8955 60.5571L77.0536 59.5294C77.2118 59.055 77.607 58.8179 78.2395 58.8179C78.8719 58.8179 79.1091 59.055 79.1091 59.5294Z" fill="#95C11F"/>
<path d="M91.9162 65.1424V65.3006C91.9162 65.3796 91.9953 65.4587 91.9953 65.5377C92.0743 65.6168 92.1534 65.6958 92.1534 65.6958C92.2325 66.4073 92.3906 67.0398 92.4696 67.7513C92.5487 67.8304 92.6277 67.9094 92.7068 67.9094C92.8649 67.9885 92.9439 67.9885 93.1021 68.0675C93.2602 68.1466 93.3392 68.2256 93.4973 68.3047C93.7345 68.4628 93.8926 68.6209 94.1298 68.779C94.2089 68.8581 94.446 68.9371 94.7622 68.9371H95.1575C95.6319 68.9371 95.9481 68.8581 96.2643 68.779C96.5805 68.7 96.8968 68.5419 97.3711 68.3047C97.4502 68.3047 97.5292 68.2256 97.6083 68.2256C97.7664 68.2256 97.8454 68.1466 97.8454 68.1466C97.8454 68.0675 97.9245 68.0675 97.9245 67.9885C97.9245 67.9094 97.9245 67.9094 97.9245 67.8304C98.0035 67.7513 98.0826 67.6722 98.2407 67.5932C98.3988 67.5141 98.4779 67.4351 98.557 67.356C98.557 67.356 98.636 67.277 98.636 67.1979C98.636 67.1188 98.636 67.0398 98.636 67.0398C98.8732 66.6445 99.0313 66.3283 99.1103 65.933C99.1894 65.5377 99.2685 65.1424 99.2685 64.7472C99.2685 64.3519 99.1103 63.9566 98.715 63.5613C98.3988 63.2451 98.0826 63.087 97.6083 62.9289C97.3711 62.8498 97.213 62.6917 97.1339 62.5336C97.0549 62.3755 96.9758 62.2174 96.9758 61.9802C96.9758 61.743 97.0549 61.5059 97.213 61.2687C97.3711 61.0315 97.6083 60.9525 97.9245 60.9525C98.0826 60.9525 98.1617 60.9525 98.3198 61.0315C99.1103 61.2687 99.8218 61.743 100.375 62.3755C101.008 63.087 101.324 63.8775 101.324 64.7472C101.324 65.3796 101.245 65.933 101.087 66.4864C100.929 67.0398 100.691 67.5141 100.375 68.0675C100.296 68.2256 100.217 68.4628 100.217 68.6209C100.059 68.779 99.9009 68.8581 99.7428 68.9371C99.7428 69.0953 99.7428 69.1743 99.6637 69.2534C99.5847 69.4115 99.3475 69.5696 99.1103 69.7277C98.8732 69.8858 98.636 69.9649 98.4779 70.0439C97.9245 70.3601 97.4502 70.5973 96.9758 70.7554C96.5015 70.9135 95.9481 70.9926 95.3156 70.9926C94.8413 70.9926 94.446 70.9926 94.1298 70.9135C93.8136 70.8345 93.4973 70.7554 93.2602 70.5183C93.023 70.2811 92.7858 70.123 92.5487 69.9649C92.1534 69.8068 91.9162 69.6486 91.7581 69.4905C91.3628 69.2534 91.1257 69.0162 91.0466 68.779C90.9676 68.5419 90.8094 68.2256 90.8094 67.6722C90.7304 67.1188 90.6513 66.7236 90.5723 66.4864C90.5723 66.4073 90.4932 66.2492 90.4141 66.0911C90.3351 65.933 90.2561 65.7749 90.2561 65.6168C90.2561 65.5377 90.2561 65.4587 90.2561 65.3796C90.2561 65.3006 90.2561 65.2215 90.2561 65.1424C90.2561 65.0634 90.2561 64.9053 90.2561 64.6681L90.4141 63.9566L89.7817 64.0357C89.4655 64.1147 89.1493 63.9566 88.9911 63.7985C88.754 63.5613 88.6749 63.3242 88.6749 63.0079C88.6749 62.7708 88.754 62.5336 88.9121 62.3755C89.0702 62.2174 89.3074 62.0592 89.6236 62.0592L91.1256 61.9011L91.3628 61.3477C91.4419 60.8734 91.5209 60.3991 91.6 59.9247C91.679 59.7666 91.7581 59.6085 91.9162 59.4504C92.0743 59.2923 92.1534 59.0551 92.2325 58.7389C92.3115 58.4227 92.4696 58.0274 92.6277 57.553C92.8649 57.0787 93.023 56.7625 93.1811 56.5253C93.7345 55.7348 94.2088 55.1814 94.7622 54.707C95.4737 54.1536 96.3434 53.8374 97.213 53.8374C98.0035 53.8374 98.636 54.1536 99.0313 54.707C99.3475 55.2604 99.5847 55.9719 99.5847 56.9997C99.5847 58.1064 99.4265 58.897 99.0313 59.3713C98.636 59.8457 98.2407 60.241 98.0035 60.5572C97.6873 60.8734 97.4502 61.1896 97.213 61.5059C96.9758 61.664 96.8177 61.8221 96.7386 61.9011C96.5805 62.0592 96.4224 62.1383 96.2643 62.2174C95.869 62.5336 95.5528 62.6917 95.3947 62.8498C94.9994 63.087 94.6832 63.2451 94.367 63.3241C94.1298 63.3241 93.8926 63.3241 93.6555 63.2451C93.3392 63.4032 93.023 63.4823 92.6277 63.5613C92.4696 64.0357 92.3905 64.4309 92.3115 64.8262V65.1424H91.9162ZM92.8649 61.5059C93.1021 61.5059 93.3392 61.5059 93.6555 61.5059C93.8136 61.5059 94.0507 61.3477 94.2879 61.1106C94.446 60.9525 94.6041 60.7944 94.8413 60.6362C94.9994 60.5572 95.0785 60.4781 95.2366 60.32C95.3947 60.241 95.4737 60.1619 95.5528 60.0828C95.6319 60.0038 95.7109 59.9247 95.79 59.7666C95.869 59.6085 95.9481 59.4504 96.1062 59.2923C96.3434 59.0551 96.5805 58.8179 96.8177 58.5808C97.0549 58.2645 97.213 57.7902 97.213 57.0787C97.213 56.9997 97.213 56.8415 97.213 56.6834C97.213 56.5253 97.213 56.3672 97.213 56.2881C97.213 55.9719 97.0549 55.8138 96.8177 55.8138C96.2643 55.8138 95.79 55.9719 95.3947 56.3672C95.0785 56.6044 94.7622 56.9997 94.446 57.553C94.2879 57.7902 94.1298 58.1064 93.9717 58.5017C93.8926 58.7389 93.8136 58.897 93.7345 59.1342C93.6555 59.6085 93.4974 59.8457 93.4183 60.0038C93.2602 60.241 93.1021 60.4781 93.023 60.7153C92.944 60.7944 92.944 60.9525 92.944 61.0315C92.8649 61.2687 92.8649 61.3477 92.8649 61.5059Z" fill="#95C11F"/>
<path d="M107.727 59.5294C107.648 59.8456 107.648 60.2409 107.569 60.7943C107.49 61.3477 107.49 61.822 107.49 62.3754C107.49 63.8775 107.648 65.2214 107.965 66.4073C108.281 67.5931 108.755 68.2256 109.309 68.3046C109.388 68.3046 109.546 68.3046 109.704 68.3046C110.336 68.3046 110.89 67.9884 111.285 67.435C111.759 66.8025 112.155 66.091 112.313 65.3795L112.471 63.7194C112.471 63.4031 112.471 63.245 112.471 63.0869C112.471 63.0079 112.55 62.6126 112.629 62.0592C112.708 61.9011 112.945 61.7429 113.419 61.7429C113.736 61.7429 114.052 61.743 114.289 61.822C114.526 61.9011 114.605 61.9801 114.605 62.1382L114.289 65.3795L114.131 68.1465C114.131 68.6208 114.131 69.0952 114.21 69.4905C114.21 69.8857 114.289 70.281 114.368 70.7554C114.368 70.9135 114.131 70.9925 113.657 70.9925C112.945 70.9925 112.629 70.9135 112.55 70.7554C112.392 70.3601 112.313 69.7276 112.313 68.7789C111.917 69.3323 111.443 69.7276 110.969 69.9648C110.494 70.202 110.099 70.281 109.625 70.281H109.071C106.621 69.9648 105.356 67.435 105.356 62.7707C105.356 61.9801 105.435 61.2686 105.514 60.5571L105.672 59.5294C105.83 59.055 106.225 58.8179 106.858 58.8179C107.411 58.8179 107.727 59.055 107.727 59.5294Z" fill="#95C11F"/>
<path d="M119.665 58.5014C119.981 58.8967 120.376 59.4501 120.93 60.2407L122.037 61.9799C122.353 61.6637 122.827 61.1894 123.46 60.5569C124.171 59.9245 124.645 59.5292 125.041 59.292C125.278 59.1339 125.436 59.0548 125.752 59.0548C126.068 59.0548 126.306 59.1339 126.464 59.3711C126.622 59.6082 126.78 59.8454 126.78 60.0826C126.78 60.2407 126.701 60.3988 126.622 60.4779C125.357 61.4265 124.171 62.5333 123.143 63.6401L124.329 65.5375C125.041 66.5652 125.515 67.4348 125.831 67.9882L125.91 68.3044C125.91 68.5416 125.752 68.6997 125.515 68.8578C125.278 69.0159 125.041 69.095 124.645 69.095C124.329 69.0159 124.092 68.9369 124.013 68.7788L122.748 66.8814C122.195 66.0118 121.878 65.4584 121.72 65.3003L120.455 67.1186L119.191 69.0159L118.953 69.095C118.716 69.095 118.479 69.0159 118.163 68.7788C117.847 68.5416 117.688 68.3044 117.688 68.0672L117.847 67.672C118.084 67.1976 118.321 66.7233 118.637 66.328L119.428 65.2212L120.614 63.6401C119.665 62.2171 118.874 61.0312 118.242 60.1616C118.084 59.9245 118.005 59.7663 118.005 59.6082C118.005 59.292 118.163 59.0548 118.4 58.8177C118.637 58.5805 118.953 58.4224 119.191 58.4224C119.428 58.3433 119.586 58.4224 119.665 58.5014Z" fill="#95C11F"/>
<path d="M54.1273 81.5861C54.1273 81.7442 54.0482 81.9023 54.0482 82.0604C54.0482 82.2185 53.9692 82.3767 53.8901 82.6138C53.8111 82.851 53.732 83.1672 53.732 83.5625L53.9691 84.3531L54.2063 85.1436C54.2854 85.3808 54.2854 85.618 54.2854 86.0132C54.2854 86.7247 54.2063 87.5944 53.9691 88.6221C53.8901 88.9383 53.8111 89.3336 53.8111 89.8079C53.8111 90.2823 53.732 90.6776 53.732 91.1519C53.732 91.7843 53.6529 92.3377 53.5739 92.8121C53.4948 93.2864 53.3367 93.8398 53.1786 94.3932C52.9414 95.2628 52.4671 95.9743 51.6765 96.5277C50.8069 97.1602 49.8582 97.4764 48.6724 97.4764C47.8028 97.4764 47.0122 97.2392 46.0635 96.8439C45.1939 96.4487 44.4034 95.8953 43.85 95.2628L43.6128 94.7885C43.6128 94.5513 43.6919 94.3141 43.929 93.9979C44.1662 93.7608 44.4034 93.6026 44.6405 93.5236C44.9568 93.6026 45.273 93.8398 45.6682 94.156L46.7751 95.0257C47.0913 95.2628 47.4866 95.4209 47.8818 95.5L48.6724 95.579C50.5697 95.579 51.5184 94.077 51.5184 91.0728C51.2813 91.31 50.8069 91.5472 50.2535 91.7843C49.9373 91.8634 49.7001 91.9425 49.463 92.0215C49.2258 92.1006 48.9096 92.1006 48.5933 92.1006L47.6447 91.9425C47.4075 91.8634 47.0122 91.7053 46.5379 91.5472L45.1939 90.9147L44.3243 90.4404C43.85 90.2823 43.4547 89.8079 43.1385 89.0174C42.9804 88.6221 42.9013 88.2268 42.8222 87.8315C42.7432 87.3572 42.6641 86.9619 42.6641 86.4876V85.7761C42.6641 85.5389 42.7432 85.3017 42.8222 85.0646C42.9013 84.8274 43.0594 84.5902 43.2175 84.274C43.5338 83.7997 43.929 83.2463 44.4034 82.6929C44.8777 82.1395 45.1939 81.7442 45.4311 81.428C45.8264 80.7955 46.5379 80.4793 47.6447 80.4793C48.3562 80.4793 48.9886 80.6374 49.542 80.8746C49.7001 80.7165 49.8582 80.6374 50.0954 80.5584C50.5697 80.5584 51.0441 80.8746 51.6765 81.5861L51.9137 80.9536C51.9928 80.7165 52.1509 80.5584 52.309 80.4003C52.4671 80.2421 52.7043 80.1631 52.9414 80.1631C53.3367 80.1631 53.5739 80.2421 53.8901 80.4793C54.0482 80.8746 54.2063 81.1908 54.1273 81.5861ZM49.7001 83.0882C48.9096 82.5348 48.2771 82.2976 47.7237 82.2976C47.3284 82.2976 47.0122 82.4557 46.696 82.7719C46.3798 83.0882 46.0635 83.4834 45.6682 84.1159L44.7987 85.5389C44.7196 85.618 44.6405 86.0132 44.5615 86.6457C44.5615 87.12 44.6405 87.5944 44.7987 88.0687C44.9568 88.543 45.1939 88.7802 45.5102 88.8593C45.7473 88.9383 46.0635 89.0174 46.3798 89.2545L47.3284 89.8079C47.5656 89.9661 47.8818 90.0451 48.1981 90.1242C48.4352 90.1242 48.5143 90.1242 48.5933 90.1242C49.1467 90.1242 49.7001 89.9661 50.2535 89.6498C50.8069 89.3336 51.1231 88.9383 51.3603 88.464C51.3603 87.8315 51.3603 87.12 51.4394 86.2504C51.5184 85.3808 51.5184 84.8274 51.5184 84.5902C51.4394 84.6693 51.2813 84.6693 51.0441 84.7483C50.7279 84.6693 50.4907 84.5902 50.3326 84.3531L50.0163 83.7997L49.7792 83.2463C49.8582 83.2463 49.7792 83.1672 49.7001 83.0882Z" fill="#95C11F"/>
<path d="M59.8985 93.128C59.8985 93.2861 59.8194 93.3652 59.6613 93.3652C59.5032 93.3652 59.2661 93.2862 58.9498 93.049C58.7917 92.8909 58.4755 92.7328 58.0802 92.5746C57.843 92.4956 57.6849 92.2584 57.6059 92.0213C57.6059 91.9422 57.6059 91.8631 57.6059 91.7841C57.6059 91.626 57.6059 91.5469 57.6059 91.4679C57.6059 90.7564 57.6059 89.9658 57.6849 89.0962C57.764 88.2266 57.843 87.515 57.9221 87.0407C57.9221 86.8035 58.0011 86.5664 58.0011 86.1711C58.0011 85.7758 58.0012 85.5387 58.0802 85.3805C58.1593 85.2224 58.1593 85.0643 58.2383 84.8271C58.2383 84.7481 58.2383 84.669 58.3174 84.59C58.3964 84.5109 58.4755 84.4319 58.5545 84.4319C58.7127 84.4319 58.8708 84.5109 59.0289 84.59C59.6613 84.9062 59.9776 85.3015 59.9776 85.7758C59.9776 85.8549 59.9776 85.9339 59.9776 86.013C59.9776 86.092 59.9775 86.092 59.8985 86.092C59.7404 87.6732 59.6613 88.859 59.6613 89.7286C59.6613 90.7564 59.7404 91.8631 59.8985 93.128ZM59.8985 81.1906C60.2938 81.5068 60.531 81.7439 60.531 82.0602C60.531 82.1392 60.5309 82.2183 60.4519 82.3764C60.4519 82.8507 60.3728 83.167 60.3728 83.3251C60.2938 83.4832 60.2147 83.5622 60.1357 83.5622C60.0566 83.5622 59.7404 83.4832 59.3451 83.246C59.0289 83.167 58.8708 83.0088 58.7126 82.7717C58.5545 82.5345 58.4755 82.2183 58.4755 81.9811C58.4755 81.6649 58.4755 81.5068 58.3964 81.5068C58.3964 80.8743 58.5545 80.5581 58.8708 80.5581C58.9498 80.5581 59.1079 80.5581 59.187 80.6372C59.3451 80.7162 59.4242 80.7953 59.6613 80.9534C59.7404 81.1115 59.8194 81.1906 59.8985 81.1906Z" fill="#95C11F"/>
<path d="M65.5904 81.5067C65.6694 81.5858 65.6695 81.7439 65.6695 81.981C65.6695 82.2182 65.6695 82.4554 65.6695 82.5344C65.6695 82.6925 65.5904 82.8507 65.5113 83.1669L65.3532 83.8784C66.0647 83.1669 67.0925 82.8507 68.5155 82.8507C69.227 82.8507 69.8594 82.9297 70.4128 83.1669C70.9662 83.4041 71.3615 83.7203 71.5196 84.2737C72.6264 83.8784 73.7332 83.7203 74.6819 83.7203C76.8164 83.7203 78.3184 84.748 79.109 86.7244C79.3462 87.2778 79.4252 87.9103 79.4252 88.7008C79.4252 89.5704 79.2671 90.7563 78.8718 92.2583C78.7928 92.4955 78.5556 92.6536 78.0813 92.7327C77.5279 92.7327 77.2116 92.5746 77.0535 92.1793C76.9745 91.9421 76.8954 91.6259 76.8164 91.1516C76.8164 90.8353 76.8954 90.2819 77.0535 89.5704C77.2116 88.8589 77.2907 88.3846 77.2907 87.9893C77.2907 87.1987 76.9745 86.6454 76.4211 86.2501C75.8677 85.8548 75.1562 85.6176 74.2866 85.6176C73.3379 85.6176 72.5473 85.8548 71.9149 86.3291V86.5663C71.9149 86.6454 71.9149 86.8035 71.9149 86.8825V88.7799V90.1238C71.9149 91.4678 71.4406 92.2584 70.4128 92.4955L70.0966 92.4165C69.7804 92.3374 69.6223 92.0212 69.6223 91.5468C69.6223 91.3097 69.7013 90.6772 69.9385 89.8076C70.1756 88.938 70.2547 88.2265 70.2547 87.8312V87.3569C70.2547 87.1988 70.2547 86.9616 70.1756 86.8825C69.7013 86.6454 69.4641 86.2501 69.3851 85.8548C69.4641 85.6176 69.5432 85.3805 69.7804 85.1433C69.8594 84.8271 69.5432 84.6689 68.9108 84.6689C68.1202 84.6689 67.4087 84.9061 66.6181 85.3014C65.9857 85.6176 65.5904 86.0129 65.2742 86.4872C64.9579 86.9616 64.7998 87.3569 64.7208 87.7521C64.6417 88.1474 64.5627 88.5427 64.5627 89.017C64.4836 89.4123 64.4836 89.8867 64.4836 90.2819C64.3255 91.3097 63.9302 91.9421 63.0606 92.1793C62.7444 92.1002 62.5863 92.0212 62.5072 91.8631C62.4281 91.784 62.3491 91.5468 62.27 91.2306C62.27 90.9934 62.27 90.7563 62.3491 90.4401C62.4281 90.2029 62.4282 89.8867 62.5863 89.4914L63.2187 87.0406C62.9815 86.8825 62.8234 86.6454 62.8234 86.2501C62.8234 85.9338 62.9025 85.6967 62.9815 85.3805C63.1397 85.1433 63.2978 84.8271 63.614 84.5108V84.1946L63.693 83.4831L63.7721 82.5344C63.7721 82.2973 63.8511 82.0601 63.9302 81.8229C64.0093 81.5858 64.1674 81.4276 64.3255 81.3486L64.7998 81.2695C65.037 81.2695 65.3532 81.3486 65.5904 81.5067Z" fill="#95C11F"/>
<path d="M87.3308 82.2972C87.6471 82.2182 87.9633 82.2182 88.2795 82.1391C88.5957 82.0601 88.912 82.0601 89.0701 82.0601C90.0978 82.0601 90.9674 82.2972 91.5208 82.6925C91.837 82.9297 92.1533 83.1669 92.5486 83.5621C92.9438 83.9574 93.3391 84.3527 93.8135 84.827C94.2087 85.2223 94.3668 85.6967 94.3668 86.171C94.3668 86.5663 94.2878 86.8825 94.0506 87.1197C93.8134 87.4359 93.4972 87.594 92.9438 87.7521L91.2046 88.0683C90.2559 88.2264 89.3863 88.4636 88.5167 88.7008C87.6471 88.938 86.7775 89.3332 85.8288 89.8866C86.3031 90.7562 86.9356 91.3887 87.8842 91.784C88.7539 92.2583 89.9397 92.4164 91.2837 92.4164C92.0742 92.4164 93.1019 92.2583 94.2878 92.0211C94.5249 91.9421 94.6831 92.1002 94.9202 92.3374C95.1574 92.5745 95.2365 92.8117 95.2365 93.1279C95.2365 93.6023 95.0783 93.8394 94.6831 93.9185C93.4972 94.1557 92.4695 94.3138 91.3627 94.3138C88.2005 94.3138 85.8288 93.1279 84.2477 90.8353H84.1686L84.0105 90.9144C83.8524 90.9144 83.6943 90.7562 83.5362 90.5191C83.378 90.2819 83.299 89.9657 83.2199 89.7285C83.2199 89.4123 83.299 89.2542 83.4571 89.1751C83.378 88.8589 83.299 88.6217 83.299 88.3846C83.299 88.2264 83.2199 87.9893 83.2199 87.7521C83.2199 87.3568 83.299 86.9616 83.378 86.5663C83.4571 86.171 83.6152 85.7757 83.7733 85.3014C84.0895 84.5108 84.4848 83.7993 85.1173 83.1669C85.6707 82.9297 86.3822 82.5344 87.3308 82.2972ZM92.0742 86.0129L91.8371 85.6176C91.6789 85.3804 91.4418 85.1432 91.1255 84.827C90.8884 84.5899 90.4931 84.3527 90.0978 84.1155C89.7025 83.8784 89.2282 83.7993 88.7538 83.7993C87.7261 83.7993 86.8565 84.1946 86.0659 85.0642C85.6707 85.4595 85.4335 85.9338 85.1963 86.4081C84.9591 86.8825 84.8801 87.3568 84.8801 87.9102V88.3846C86.224 87.7521 87.568 87.2778 88.7538 86.8825L90.2559 86.4872L91.4418 86.171C91.8371 86.171 91.9952 86.0919 92.0742 86.0129Z" fill="#95C11F"/>
<path d="M101.008 82.6928C100.929 83.009 100.929 83.4043 100.85 83.9577C100.77 84.5111 100.77 84.9854 100.77 85.5388C100.77 87.0408 100.929 88.3848 101.245 89.5706C101.561 90.7565 102.035 91.3889 102.589 91.468C102.668 91.468 102.826 91.468 102.984 91.468C103.616 91.468 104.17 91.1518 104.565 90.5984C105.039 89.9659 105.435 89.2544 105.593 88.5429L105.751 86.8827C105.751 86.5665 105.751 86.4084 105.751 86.2503C105.751 86.1712 105.83 85.7759 105.909 85.2225C105.988 85.0644 106.225 84.9063 106.7 84.9063C107.016 84.9063 107.332 84.9063 107.569 84.9854C107.806 85.0644 107.886 85.1435 107.886 85.3016L107.569 88.5429L107.411 91.3099C107.411 91.7842 107.411 92.2586 107.49 92.6538C107.49 93.0491 107.569 93.4444 107.648 93.9187C107.648 94.0768 107.411 94.1559 106.937 94.1559C106.225 94.1559 105.909 94.0768 105.83 93.9187C105.672 93.5234 105.593 92.891 105.593 91.9423C105.198 92.4957 104.723 92.891 104.249 93.1282C103.775 93.3653 103.379 93.4444 102.905 93.4444H102.352C99.9008 93.1282 98.6359 90.5984 98.6359 85.9341C98.6359 85.1435 98.715 84.432 98.794 83.7205L98.9522 82.6928C99.1103 82.2184 99.5056 81.9813 100.138 81.9813C100.77 81.9813 101.008 82.2184 101.008 82.6928ZM105.909 83.2461C105.672 83.2461 105.277 83.2461 104.802 83.3252C104.249 83.4043 103.854 83.4043 103.616 83.4043C103.379 83.4043 103.142 83.4043 103.063 83.4043C102.984 83.4043 102.826 83.3252 102.668 83.2461C102.273 83.009 102.114 82.7718 102.114 82.3765C102.114 82.1394 102.193 81.9022 102.431 81.665C102.589 81.4279 102.826 81.3488 103.142 81.3488C103.3 81.3488 103.458 81.4279 103.616 81.5069C103.775 81.586 104.249 81.4279 105.119 81.1116C105.593 80.8745 105.909 80.7954 106.067 80.7954C106.383 80.7954 106.621 80.9535 106.779 81.1907C106.937 81.4279 107.016 81.7441 107.016 82.0603C107.016 82.3765 106.937 82.6928 106.779 82.9299C106.463 83.1671 106.225 83.2461 105.909 83.2461Z" fill="#95C11F"/>
<path d="M132.709 39.7651C129.547 42.2949 125.436 45.22 121.325 45.6153L121.246 46.2477C121.088 46.4058 120.851 45.8524 120.614 45.6153C118.953 44.1923 118.321 42.453 117.372 40.4766C116.424 38.4212 115.554 36.2866 115.001 34.0731C114.131 30.9108 113.894 27.2742 115.238 24.112C116.503 21.1078 118.795 19.7639 121.958 20.4754C124.487 21.0288 126.622 23.6376 126.859 26.1674C128.124 24.112 130.97 22.8471 133.263 23.4005C136.583 24.2701 137.769 27.3533 137.69 30.6736C137.532 34.7846 135.713 37.3934 132.709 39.7651Z" fill="#EA560D"/>
<path d="M136.583 53.2048C135.476 49.0148 133.895 44.983 132.077 41.1092C131.602 41.4254 131.207 41.8207 130.733 42.137C138.717 59.3712 139.666 79.4515 128.598 96.3695C119.823 109.809 104.249 119.849 88.2795 121.984C79.7415 123.17 70.8081 121.905 62.9816 118.189C57.8429 115.738 57.922 115.817 60.9261 111.39C61.8748 109.967 66.2229 103.326 64.958 101.666C63.7721 101.824 59.1869 109.967 57.8429 111.232C53.8901 115.106 49.0676 118.031 44.0871 120.324C34.047 125.067 24.9555 126.332 14.2829 124.118C20.5284 120.719 25.2717 116.292 28.2759 109.73C29.5408 106.884 30.4895 103.722 30.9638 100.639C31.201 98.9783 31.9915 88.1477 29.857 87.5943C28.1178 87.1199 30.4104 99.7689 27.4853 100.639C25.588 101.192 20.6074 97.2391 19.0263 96.1323C15.5478 93.6025 12.4646 90.5193 9.93485 87.0409C-7.61563 62.8497 7.56315 30.6738 29.1455 15.0207C54.5225 -3.39942 89.1491 -3.00413 112.866 18.0248C114.131 19.1316 115.317 20.3174 116.503 21.5033C116.898 21.1871 117.372 20.8708 117.847 20.7127C115.633 18.4991 113.261 16.3646 110.731 14.3882C97.7663 4.18998 83.2199 0 67.0134 0C50.7278 0 34.047 7.90562 22.0304 18.6573C15.6269 24.3493 10.2511 31.0691 6.37732 38.7375C2.89885 45.6945 0.685278 53.0467 0.131885 60.478C-0.342452 66.8815 0.4481 73.3641 2.74073 79.7677C5.11241 86.2503 9.14429 94.3931 14.7573 98.6621C17.129 100.955 19.6588 103.089 22.4257 104.987C25.9832 107.437 26.6157 107.516 24.165 111.469C22.3467 114.394 20.054 117.003 17.4452 119.296C16.2593 120.324 9.14429 124.118 9.22335 125.383C9.53957 128.941 27.1691 128.387 29.6198 128.229C37.3673 127.676 43.6918 124.751 50.6488 121.509C54.2854 119.77 55.5503 121.43 59.5031 122.853C63.3768 124.197 67.4087 125.225 71.4406 125.699C80.2948 126.806 89.3863 125.699 97.8453 122.853C112.075 118.189 124.25 108.228 131.998 95.4999C140.061 82.1394 140.536 67.7512 136.583 53.2048Z" fill="#95C11F"/>
</svg>
