<svg width="100" height="272" viewBox="0 0 100 272" fill="none" xmlns="http://www.w3.org/2000/svg">
<path d="M-182.071 228.101L-71.7873 131.459M-142.658 243.424L-31.0653 145.415M-111.626 268.772L-40.6803 207.281M-40.6803 207.281L1.59319 170.64M-40.6803 207.281C-29.4833 225.247 -3.08028 248.842 12.9556 199.496C23.7487 213.159 51.3894 232.515 75.6084 200.633C99.8274 168.751 71.6694 146.336 54.5631 139.114C74.7412 136.431 110.254 120.094 90.8811 76.2096C71.5079 32.3248 30.439 56.3538 12.3261 73.854C23.5431 58.9196 7.39454 10.4909 -14.6643 4.65618C-36.7231 -1.17856 -70.7378 15.4926 -57.6482 79.1066C-66.2706 69.1739 -87.4304 55.0109 -103.09 77.8202C-118.75 100.629 -101.338 133.508 -90.6751 147.096" stroke="#95C11F" stroke-width="6" stroke-linecap="round" stroke-linejoin="round"/>
</svg>
