<svg width="115" height="82" viewBox="0 0 115 82" fill="none" xmlns="http://www.w3.org/2000/svg">
<path fill-rule="evenodd" clip-rule="evenodd" d="M84.8317 55.651C84.5377 55.6027 84.1212 55.5304 83.8517 55.6027C83.4352 55.6992 83.6802 55.5545 83.5822 55.8679C83.5332 56.0126 83.5577 56.2536 83.5332 56.4224C83.4842 57.242 83.3862 58.0376 83.3127 58.8572C83.2637 59.4599 83.4352 60.2313 83.1657 60.8099C82.9207 61.3161 82.3817 61.6536 81.8182 61.6295C80.4952 61.5813 80.3727 60.2072 80.4217 59.1706C80.4952 57.8206 80.6912 56.4706 80.7157 55.1206C80.7402 53.626 80.7157 52.1313 80.6912 50.6367C80.6912 49.9376 80.6667 49.2385 80.6667 48.5393C80.6667 47.9367 80.5197 47.2135 80.7402 46.6349C81.0342 45.8393 82.0387 44.2724 82.9942 45.0197C83.3862 45.309 83.7782 45.9599 83.7537 46.4661C83.7292 46.7072 83.6067 46.9001 83.5577 47.1411C83.4842 47.4545 83.5087 47.7679 83.5332 48.1054C83.6067 49.4795 83.5577 50.8536 83.5822 52.2277C83.5822 52.6617 83.5822 52.6858 84.0232 52.7099C84.1947 52.7099 84.8317 52.8304 84.9297 52.734C85.0277 52.6376 84.9787 52.0349 85.0032 51.9144C85.0277 51.5286 85.0522 51.167 85.0522 50.7813C85.1013 49.4313 85.1012 48.0813 85.1502 46.7313C85.1747 45.8635 85.0767 44.5134 85.7628 43.8384C86.0813 43.5251 86.5713 43.4286 87.0123 43.525C87.2328 43.5733 87.3798 43.742 87.6003 43.7902C87.9433 43.8867 88.3108 43.7661 88.6538 43.9349C89.9033 44.4893 89.2908 46.0804 89.3888 47.1411C89.6338 49.8652 89.8788 52.6135 89.7318 55.3617C89.6583 56.8563 89.4133 58.2786 88.9478 59.6769C88.6538 60.5688 88.3843 61.9911 87.2818 62.1358C86.9388 62.184 86.7183 62.0635 86.4243 61.9188C86.1303 61.7983 85.8363 61.7742 85.5668 61.6536C84.9542 61.3885 84.7337 60.7858 84.6847 60.159C84.6357 59.4599 84.7827 58.7367 84.8072 58.0376C84.8562 57.242 84.8072 56.4465 84.8317 55.651Z" fill="#EA560D"/>
<path fill-rule="evenodd" clip-rule="evenodd" d="M73.5377 55.0003C73.0721 56.1575 72.6556 57.3387 72.0431 58.4235C71.5041 59.3878 70.8181 60.4003 69.6421 60.5209C68.5151 60.6414 67.8781 60.0869 67.7556 58.978C67.6331 57.6521 67.5841 56.3262 67.5105 55.0003C67.437 53.6021 67.388 52.2039 67.388 50.8298C67.388 49.6726 67.2655 48.4432 67.5105 47.286C67.6821 46.5146 68.1231 45.7914 68.9806 45.7432C69.6666 45.695 70.3036 46.153 70.4751 46.8521C70.6221 47.4789 70.2546 48.0333 70.2301 48.636C70.2056 49.3351 70.2546 50.0583 70.2546 50.7575C70.2791 52.2039 70.3281 53.6744 70.3771 55.1209C71.6511 52.6619 71.7491 49.6244 72.2636 46.9485C72.3126 46.6592 72.3616 46.3941 72.3126 46.1048C72.2636 45.7914 72.1901 45.6708 72.3616 45.3816C72.6311 44.9476 73.2436 44.6583 73.7092 44.5378C73.9787 44.4655 74.1992 44.4173 74.4442 44.3208C74.7137 44.2003 74.9342 44.0798 75.2282 44.0557C75.8652 44.0557 76.4532 44.5137 76.6247 45.1164C76.7962 45.7191 76.6492 46.3941 76.7472 47.0208C76.8452 47.7923 77.0902 48.5155 77.3107 49.2628C77.7027 50.6851 77.8987 52.1557 77.9722 53.6503C78.0457 55.1691 78.0457 56.7601 77.5802 58.2307C77.1637 59.5566 76.9432 61.3405 75.9877 62.4012C75.4732 62.9557 74.6647 62.9798 74.0767 62.5218C73.4641 62.0396 73.5131 61.3405 73.5866 60.6414C73.7582 58.761 73.5867 56.8807 73.5377 55.0003Z" fill="#EA560D"/>
<path fill-rule="evenodd" clip-rule="evenodd" d="M96.567 49.6961C97.008 49.431 97.3265 48.756 97.596 48.3461C97.939 47.8158 98.282 47.2613 98.6495 46.731C99.213 45.9354 100.095 44.8265 101.198 45.164C102.227 45.4533 102.594 46.731 101.884 47.5265C101.565 47.8881 101.149 48.1533 100.855 48.5631C100.463 49.1176 100.144 49.7202 99.7765 50.2747C99.409 50.8051 99.017 51.3354 98.625 51.8417C98.4045 52.1069 98.2085 52.372 97.988 52.6372C97.6695 53.0229 97.449 53.0953 97.694 53.5533C98.3555 54.7828 99.017 55.9881 99.703 57.1935C100.046 57.772 100.389 58.3506 100.757 58.9051C101.075 59.3872 101.467 59.6765 101.835 60.0863C102.472 60.8337 102.031 61.9426 101.198 62.2801C99.997 62.7863 99.0905 61.5569 98.5025 60.689C97.7185 59.5319 97.057 58.3024 96.273 57.1453C96.2975 58.1819 97.0325 60.906 95.587 61.2676C95.4155 61.3158 95.195 61.2194 95.0235 61.2676C94.803 61.3399 94.6314 61.6051 94.3864 61.7015C93.8474 61.9185 93.1859 61.7497 92.8184 61.2917C92.1079 60.3756 92.2304 58.7604 92.2304 57.6756C92.2059 54.7828 92.2059 51.8899 92.3039 48.9729C92.3529 47.4783 91.8874 44.1515 94.1169 44.2238C94.4599 44.2238 94.7049 44.4167 94.999 44.4408C95.293 44.489 95.5625 44.3685 95.881 44.4408C96.371 44.5854 96.714 44.947 96.8365 45.4533C96.959 46.056 96.6405 46.6104 96.616 47.2131C96.5915 48.0086 96.567 48.8524 96.567 49.6961Z" fill="#EA560D"/>
<path fill-rule="evenodd" clip-rule="evenodd" d="M110.264 59.6526C109.749 59.6043 109.259 59.5802 108.745 59.5561C108.377 59.5561 108.328 59.5079 108.108 59.749C107.985 59.8936 107.887 60.207 107.838 60.3999C107.569 61.1954 107.495 62.0392 106.466 62.1356C105.805 62.1838 105.217 61.774 104.996 61.1713C104.653 60.1829 105.266 59.4597 105.535 58.5918C105.633 58.2302 105.511 57.8686 105.658 57.5311C105.829 57.1695 106.197 57.049 106.368 56.6874C106.76 55.9159 106.883 54.9034 107.103 54.0597C107.667 51.9383 108.157 49.7686 108.451 47.599C108.524 47.1409 108.622 46.6829 108.671 46.2008C108.696 45.9356 108.671 45.6222 108.794 45.357C108.941 44.9713 109.161 45.0677 109.431 44.8749C109.749 44.6579 109.872 44.4409 110.313 44.3927C110.999 44.2963 111.66 44.4891 112.052 45.0918C112.518 45.815 112.91 46.707 113.228 47.5025C114.698 51.432 114.649 55.6267 114.821 59.749C114.87 60.7133 115.213 62.1115 114.796 63.0035C114.478 63.6785 113.375 63.9436 112.714 63.6543C112.542 63.582 112.42 63.4615 112.297 63.341C112.052 63.0999 112.003 63.124 111.66 63.0999C111.268 63.0517 110.876 62.8829 110.631 62.5454C109.97 61.7499 110.386 60.5686 110.264 59.6526ZM110.117 51.5526C109.945 52.6615 109.823 53.7463 109.676 54.8552C109.602 55.3374 109.504 55.7954 109.431 56.2776C109.382 56.6151 109.333 56.5668 109.578 56.6874C109.676 56.7356 110.239 56.7838 110.337 56.7356C110.754 56.4704 110.46 54.3249 110.435 53.7463C110.411 53.2642 110.362 52.782 110.313 52.2758C110.313 52.1311 110.337 51.89 110.288 51.7454C110.313 51.7454 110.117 51.2874 110.117 51.5526Z" fill="#EA560D"/>
<path fill-rule="evenodd" clip-rule="evenodd" d="M46.7594 50.7811C47.2004 50.54 47.5189 49.8409 47.7884 49.4311C48.1314 48.9007 48.4744 48.3463 48.8419 47.8159C49.4054 47.0204 50.2874 45.9356 51.3899 46.249C52.419 46.5382 52.7865 47.8159 52.076 48.6115C51.7575 48.9731 51.3409 49.2382 51.0469 49.6481C50.6549 50.2025 50.3364 50.8052 49.9689 51.3597C49.6014 51.89 49.2094 52.4204 48.8174 52.9266C48.5969 53.1918 48.4009 53.457 48.1804 53.7222C47.8619 54.1079 47.6414 54.1802 47.8864 54.6383C48.5479 55.8677 49.2094 57.0731 49.8954 58.2784C50.2384 58.857 50.5814 59.4356 50.9489 59.99C51.2674 60.4722 51.6594 60.7615 52.027 61.1713C52.664 61.9186 52.223 63.0275 51.3899 63.365C50.1894 63.8713 49.2829 62.6418 48.6949 61.774C47.9109 60.6168 47.2494 59.3874 46.4654 58.2302C46.4899 59.2668 47.2249 61.9909 45.7793 62.3525C45.6078 62.4008 45.3873 62.3043 45.2158 62.3525C44.9953 62.4249 44.8238 62.6901 44.5788 62.7865C44.0398 63.0034 43.3783 62.8347 43.0108 62.3767C42.3003 61.4606 42.4228 59.8454 42.4228 58.7606C42.3983 55.8677 42.3983 52.9749 42.4963 50.0579C42.5453 48.5632 42.0553 45.2365 44.3093 45.3088C44.6523 45.3088 44.8973 45.5016 45.1913 45.5498C45.4853 45.5981 45.7548 45.4775 46.0734 45.5498C46.5634 45.6945 46.9064 46.0561 47.0289 46.5623C47.1514 47.165 46.8329 47.7195 46.8084 48.3222C46.7594 49.0936 46.7594 49.9374 46.7594 50.7811Z" fill="#EA560D"/>
<path fill-rule="evenodd" clip-rule="evenodd" d="M35.1207 57.0971C35.1452 57.9891 35.0717 58.881 35.0717 59.773C35.0717 60.6167 35.2922 61.5087 35.1207 62.3284C34.9737 63.0516 34.3612 63.5337 33.6262 63.4855C33.4792 63.4855 33.3567 63.4373 33.2097 63.4132C32.9647 63.3891 32.8667 63.3891 32.5972 63.4132C32.2541 63.4373 31.9356 63.365 31.6661 63.1721C30.4166 62.3284 30.5391 60.3516 30.5636 59.0498C30.6126 57.1453 30.9311 55.265 31.2006 53.3846C31.4211 51.8176 31.5191 50.2507 31.6416 48.6837C31.7151 47.6471 31.8621 46.056 33.0872 45.7667C33.3567 45.6944 33.6997 45.6703 33.9692 45.7426C34.0427 45.7667 34.2877 45.8873 34.3612 45.8873C34.4347 45.8873 34.6797 45.6944 34.7287 45.6703C35.6842 45.2605 36.4192 45.9355 37.1542 46.4417C38.2077 47.1649 39.1388 47.9605 39.5798 49.2382C40.7068 52.4926 38.5017 56.5185 35.1207 57.0971ZM37.0072 51.2391C37.0807 49.8408 36.3457 49.3828 35.2922 48.7078C34.9982 50.4917 35.1452 52.3239 35.1207 54.1078C36.1987 53.6016 36.9582 52.4444 37.0072 51.2391Z" fill="#EA560D"/>
<path fill-rule="evenodd" clip-rule="evenodd" d="M63.59 54.1561C64.0555 54.7588 64.5455 55.1204 64.815 55.8677C65.0845 56.591 65.158 57.3865 65.06 58.1579C64.8885 59.7972 63.884 60.9544 62.5364 61.774C61.8504 62.2079 61.1399 62.449 60.3559 62.5936C59.6699 62.7142 58.8124 62.907 58.1754 62.5695C58.1264 62.5454 58.0774 62.5213 58.0284 62.4731C57.9549 62.3285 57.8569 62.3285 57.7834 62.449C57.6364 62.449 57.4649 62.5454 57.3179 62.5695C57.0483 62.5695 56.7298 62.5213 56.4848 62.3767C55.8478 62.0392 55.4803 61.1713 55.2843 60.4963C54.8188 58.9776 54.9903 57.2901 55.0148 55.7231C55.0638 53.891 55.1373 52.0829 55.3333 50.2508C55.4803 49.0454 55.4313 46.5865 56.9258 46.249C57.3914 46.1285 57.3914 46.1284 57.7099 45.8151C57.9304 45.5981 58.1999 45.4293 58.5184 45.3811C59.2534 45.2847 60.0374 45.791 60.6254 46.1526C62.0709 46.9963 63.7615 48.057 64.5945 49.5517C65.452 51.0945 65.109 53.1918 63.59 54.1561ZM59.9639 52.324C60.5764 52.2758 61.8259 52.2758 62.1444 51.6008C62.3404 51.1427 61.9239 50.7329 61.6299 50.4436C61.1399 50.0097 60.6009 49.5035 60.0129 49.2142C59.9884 50.2508 59.9884 51.2874 59.9639 52.324ZM60.0374 59.6767C61.2134 59.3874 62.4384 58.5919 62.1934 57.2177C61.9974 56.1329 60.7479 56.1329 59.9884 55.6508C59.9884 56.9767 60.0374 58.3267 60.0374 59.6767Z" fill="#EA560D"/>
<path fill-rule="evenodd" clip-rule="evenodd" d="M10.8406 54.2285C10.4976 54.2044 10.5711 55.916 10.5466 56.1571C10.4976 57.0973 10.4241 58.0616 10.3261 59.0017C10.1791 60.4 9.93413 62.1357 8.53761 62.8348C6.72458 63.7509 6.13657 61.1232 5.86706 59.8696C5.64656 58.9535 5.45055 58.0133 5.25455 57.0973C5.08305 56.2535 5.00955 55.1446 4.59304 54.3732C4.20103 54.4696 4.47054 55.4821 4.47054 55.7473C4.51954 56.5428 4.54404 57.3142 4.56854 58.1098C4.59304 58.8089 4.61754 59.508 4.69104 60.2071C4.76454 60.9544 5.05855 61.7741 5.03405 62.5214C5.03405 63.0518 4.74004 63.5098 4.29904 63.775C4.05403 63.9196 3.80903 63.9678 3.53952 63.9678C3.39252 63.9678 3.29452 63.9196 3.17202 63.8955C2.90251 63.8714 2.87801 63.8955 2.60851 63.9196C1.21198 64.1125 0.697474 62.5455 0.403469 61.4607C-0.013038 59.966 0.0114634 58.375 0.0359638 56.8321C0.0604642 55.2651 0.182967 53.6741 0.427971 52.1071C0.648475 50.7089 0.942479 49.2142 1.60399 47.9607C2.1675 46.8758 3.49052 45.8151 4.74004 46.4178C5.03405 46.5624 5.27905 46.8035 5.42605 47.1169C5.57306 47.4785 5.45055 47.7678 5.49956 48.1294C5.54856 48.4428 5.74456 48.7321 5.84256 49.0455C5.98956 49.4794 6.11207 49.9133 6.23457 50.3473C6.79808 52.1794 7.31259 54.0116 7.8516 55.8678C7.9986 54.325 8.2436 52.8062 8.43961 51.2633C8.53761 50.4919 8.63561 49.6964 8.73361 48.9249C8.80711 48.3223 8.68461 47.5267 9.05212 47.0205C9.73813 46.0321 11.1837 45.9839 11.8207 46.9964C12.4822 48.0571 12.8497 49.4794 13.1682 50.6848C13.8787 53.3848 13.9032 56.2535 14.0992 59.0259C14.1482 59.7491 14.1972 60.4482 14.2707 61.1714C14.3442 61.8464 14.5892 62.6419 14.4912 63.2928C14.2707 64.5946 12.5557 64.8839 11.8452 63.8232C11.5022 63.3169 11.5022 62.5937 11.4532 61.991C11.3797 61.1955 11.3307 60.4 11.2572 59.6285C11.1102 57.8205 11.0612 56.0125 10.8406 54.2285Z" fill="#EA560D"/>
<path fill-rule="evenodd" clip-rule="evenodd" d="M22.1606 46.7073C22.4301 46.6109 22.6996 46.8037 22.9691 46.8519C23.3121 46.9243 23.6551 46.876 24.0226 46.876C24.7822 46.876 25.4682 47.0207 26.0562 47.5028C27.1587 48.3707 27.6732 49.7689 27.8937 51.1189C28.1632 52.7823 28.1387 54.518 28.0407 56.2055C27.9672 57.6037 27.8447 59.1948 27.0607 60.4002C26.7177 60.9305 26.2277 61.3162 25.6642 61.5814C25.2967 61.7502 24.9537 61.7502 24.5861 61.8707C24.2676 61.9671 24.1206 62.2082 23.8266 62.377C22.5526 63.1966 20.5926 63.1484 19.2696 62.4975C17.9955 61.8466 17.187 60.2555 16.9175 58.8814C16.599 57.2903 16.7215 55.5064 16.893 53.9153C17.0645 52.1796 17.5055 50.251 18.363 48.7323C18.7306 48.1055 19.1961 47.5028 19.8086 47.1171C20.5681 46.6591 21.3031 46.7314 22.1606 46.7073ZM21.8421 51.1912C21.5971 51.7216 21.3766 52.276 21.2296 52.8546C21.1561 53.1198 21.1316 53.3368 21.0091 53.5778C20.9111 53.7466 20.7641 53.8671 20.6906 54.0841C20.4211 54.9278 20.7396 56.2537 20.9601 57.0975C21.2051 57.9895 21.5726 58.6645 22.5281 58.9055C23.2141 59.0743 24.4636 59.3395 24.8067 58.5439C25.1742 57.6519 25.1497 56.4225 25.1742 55.4823C25.2232 54.1805 25.2232 52.8064 25.0272 51.5287C24.8802 50.6127 24.6351 49.7689 23.6061 49.8171C22.6996 49.793 22.2341 50.3716 21.8421 51.1912Z" fill="#EA560D"/>
<path fill-rule="evenodd" clip-rule="evenodd" d="M24.7818 14.1869C24.5613 16.4771 24.2673 18.7673 24.3163 21.0574C24.3408 21.9494 24.3653 22.8414 24.4388 23.7092C24.4878 24.4566 24.7573 25.4932 24.6103 26.2405C24.5613 26.4575 24.3653 26.7467 24.2673 26.9396C22.9932 29.5432 21.5967 32.0985 20.0532 34.5334C19.2692 35.7628 18.4362 36.92 17.6032 38.1012C17.0886 38.8485 16.5251 40.1503 15.5206 40.3432C14.1976 40.6084 12.4091 38.7521 11.5026 37.9566C10.4245 36.9682 9.42002 35.8834 8.56251 34.7021C7.9745 33.9066 6.65147 32.3396 7.33748 31.303C7.95 30.3628 9.51802 29.5914 10.4245 28.9646C10.89 28.6271 17.0151 25.0592 16.9661 24.9628C16.8926 24.7217 15.9861 24.77 15.7411 24.7217C11.0615 24.095 6.50447 23.1307 1.94739 21.853C1.18788 21.636 0.428369 21.3226 0.183364 20.4789C-0.502647 17.8271 0.893877 14.8619 1.77589 12.4271C2.85391 9.4619 4.29943 6.56904 6.28397 4.11011C6.72497 3.57975 7.41099 2.83242 8.1705 2.88064C9.19952 2.95296 10.3265 3.82082 11.2086 4.35118C14.3691 6.27975 17.4807 8.47351 20.4452 10.7396C21.8417 11.8244 23.2138 13.4155 24.7818 14.1869Z" fill="#95C11F"/>
<path fill-rule="evenodd" clip-rule="evenodd" d="M45.8027 1.21707C48.5223 1.62689 51.2173 2.10903 53.9124 2.59118C55.9704 2.97689 58.1019 3.07332 60.1355 3.65189C60.405 3.72421 60.699 3.82064 60.9685 3.91707C61.1155 3.96528 61.238 4.0135 61.3605 4.08582C61.5075 4.15814 61.6055 4.15814 61.532 4.32689C61.434 4.56796 61.483 4.83314 61.4585 5.09832C61.434 5.41171 61.4095 5.72511 61.385 6.01439C61.336 6.64118 61.287 7.24386 61.238 7.87064C61.14 9.10011 61.042 10.3296 60.9195 11.5832C60.699 14.0421 60.4785 16.5251 60.307 18.9841C60.1355 21.443 59.9885 23.926 59.915 26.385C59.915 26.4091 59.915 26.6019 59.915 26.6019C60.2335 26.4573 60.3805 25.9028 60.5275 25.6135C61.581 23.6367 62.463 21.5635 63.1735 19.4421C63.9085 17.3207 64.472 15.151 64.9375 12.9573C65.158 11.8483 65.3786 10.7394 65.5501 9.63047C65.7216 8.54565 65.9176 7.43672 65.9911 6.32779C66.0156 6.11082 66.0156 5.86975 66.0156 5.65279C66.0156 5.45993 65.9666 5.24297 66.0156 5.07421C68.4166 5.53225 70.7686 6.08671 73.1452 6.66529C73.4392 6.73761 73.7332 6.80993 74.0272 6.88225C75.3502 7.19565 76.6487 7.50904 77.9718 7.84654C78.6088 7.99118 80.3973 8.0635 80.6423 8.85904C80.7648 9.26886 80.6668 9.96797 80.6178 10.426C80.4218 13.8251 79.2458 17.0555 78.7803 20.4064C78.5353 22.0698 78.4863 23.7814 78.8048 25.4689C78.8783 25.8546 79.4173 28.2653 79.9563 28.2412C80.2258 28.2412 80.5443 27.2287 80.6423 26.9876C82.9944 21.4671 84.2439 15.6573 84.7829 9.70279C89.8055 10.9323 94.7545 12.5233 99.6546 14.2349C100.145 14.4037 100.169 14.3796 100.096 14.8858C100.022 15.2715 99.9731 15.6573 99.8996 16.043C99.5566 17.9957 99.0911 20.0689 99.0421 22.118C99.0421 22.7207 99.2381 27.3734 100.194 27.3734C100.904 27.3734 101.713 24.2635 101.958 23.6608C102.203 22.9858 104.31 17.7546 103.893 15.8019C106.319 16.501 108.622 17.6582 110.753 19.0082C112.15 19.9001 115.237 21.5876 114.894 23.6608C114.502 26.0716 111.586 27.3975 109.626 28.193C106.613 29.4225 103.501 30.4591 100.365 31.3028C99.7526 31.4716 92.378 33.1591 92.378 33.1832C92.133 28.1689 92.0595 23.1546 91.692 18.1403C91.643 17.4412 91.7165 16.6698 91.5695 15.9948C91.153 16.0671 90.81 17.3689 90.6875 17.7064C88.8745 22.4314 89.0459 27.7591 89.242 32.7492C89.242 32.9903 89.1195 33.6412 89.3155 33.8341C83.0679 35.7144 76.4772 35.7144 70.1316 37.0885C70.2541 37.0644 70.6706 32.7734 70.7441 32.3153C71.0136 30.5314 71.2831 28.7233 71.3811 26.9153C71.5282 24.1912 71.4302 19.5144 69.1271 17.5858C68.9066 17.8028 69.0291 18.4537 69.0046 18.743C68.7351 22.3108 68.8821 25.9028 68.5881 29.4466C68.3921 31.6885 68.1961 33.9305 67.7796 36.1484C67.7306 36.4135 67.6816 36.6546 67.6326 36.9198C67.5591 37.2573 67.5836 37.3296 67.2896 37.4501C66.7996 37.643 66.1136 37.6189 65.5991 37.6671C64.472 37.7876 63.3695 37.9082 62.2425 38.0528C59.9395 38.318 57.6119 38.5591 55.3089 38.776C54.1819 38.8725 53.0548 38.9689 51.9278 39.0171C51.4868 39.0412 51.4868 39.1135 51.3888 38.7278C51.2908 38.3421 51.3643 37.9564 51.4133 37.5707C51.4378 37.1609 51.4133 36.7269 51.3888 36.3171C51.3398 35.3046 51.1928 34.3162 51.1683 33.3278C51.1438 32.3153 51.1438 31.3028 51.1438 30.2903C51.1438 29.4225 51.1438 28.5305 51.0948 27.6626C50.9233 23.7814 50.4333 19.876 50.4333 15.9707C50.3843 15.5126 50.3108 15.0546 50.2618 14.5965C50.2373 14.4037 50.3108 13.8251 50.0413 14.0662C49.7228 14.3314 49.6738 15.609 49.6003 16.0189C48.2528 23.4439 47.0277 31.2787 47.0522 38.8484C47.0522 39.1376 47.1012 39.3064 46.9052 39.4028C46.7337 39.4993 46.2927 39.451 46.0967 39.451C43.9897 39.5716 41.8582 39.6439 39.7511 39.6439C38.0851 39.6439 35.635 40.0537 34.018 39.4993C33.724 39.4028 33.8465 39.5716 33.773 39.2582C33.3565 37.5225 33.8465 35.2564 33.92 33.4725C34.2875 27.6867 34.557 21.8769 34.8265 16.0912C34.851 15.4403 34.998 14.5965 34.802 13.9215C34.2385 13.9215 33.7975 16.2117 33.675 16.6457C33.3565 17.7305 33.038 18.7912 32.744 19.876C32.1805 21.9974 31.764 24.0948 31.225 26.2162C30.245 30.1698 29.2404 34.6537 29.4854 38.776C26.6434 38.8484 25.7859 34.5332 25.4184 32.4118C24.7569 28.5305 24.7569 24.4323 25.1734 20.5269C25.5654 16.9832 25.9329 13.3671 26.8884 9.91975C27.7214 7.00279 28.5054 3.94118 30.3675 1.55457C30.9555 0.807244 31.6905 0.252781 32.6215 0.0840308C33.626 -0.108827 34.704 0.0840301 35.7086 0.132244C37.8891 0.228673 40.0696 0.638494 42.2502 0.831351C41.9807 2.63939 41.7357 4.51975 41.6376 6.3519C41.4661 9.55815 41.0741 12.7403 41.1476 15.9465C41.1966 17.4412 41.1476 18.9358 41.1966 20.4546C41.2946 23.251 41.6131 26.0475 41.8337 28.868C42.4462 29.0126 44.1367 16.8385 44.3082 15.5608C44.9207 10.7394 45.1902 5.94207 45.8027 1.21707Z" fill="#EA560D"/>
<path d="M18.0922 69.9702C18.0922 70.139 18.0677 70.38 18.0677 70.7175C18.0677 71.055 18.0432 71.4166 18.0187 71.8506C17.9942 72.2604 17.9697 72.7184 17.9452 73.1765C17.9207 73.6345 17.8717 74.0684 17.8472 74.4783C17.7982 75.2015 17.7247 75.8765 17.6757 76.455C17.6267 77.0577 17.4797 77.5881 17.3082 78.1184C17.1121 78.6247 16.8426 79.1309 16.4506 79.589C16.0831 80.047 15.5196 80.5051 14.8336 80.9631C14.5886 81.1077 14.3436 81.2524 14.0741 81.3729C13.8046 81.4934 13.5351 81.5899 13.2656 81.6622C12.9961 81.7345 12.7266 81.8068 12.4571 81.855C12.1876 81.9033 11.9426 81.9515 11.7221 81.9997L11.3791 79.4684C11.5506 79.4443 11.7466 79.4202 11.9671 79.3961C12.1876 79.372 12.4326 79.3479 12.6776 79.2997C12.9226 79.2515 13.1921 79.2033 13.4616 79.1068C13.7311 79.0345 13.9761 78.914 14.2211 78.7934C14.4171 78.697 14.5886 78.5765 14.7601 78.4318C14.9316 78.2872 15.0786 78.1425 15.2011 77.9738C15.3236 77.8292 15.4216 77.6604 15.4951 77.4917C15.5686 77.3229 15.6176 77.1783 15.6176 77.0336C15.6176 76.9613 15.6176 76.889 15.6421 76.8167C15.6666 76.7443 15.6421 76.672 15.6421 76.5756C15.5441 76.6961 15.4216 76.8167 15.2991 76.9372C15.1766 77.0577 15.0051 77.1542 14.8091 77.2506C14.6131 77.347 14.3926 77.4193 14.1476 77.4675C13.9026 77.5158 13.5841 77.5399 13.2411 77.5399C12.9226 77.5399 12.6286 77.4675 12.3836 77.3229C12.1141 77.1783 11.8936 76.9854 11.6976 76.7202C11.5016 76.455 11.3546 76.1658 11.2321 75.8042C11.134 75.4425 11.0605 75.0568 11.0605 74.5988C11.0605 74.4783 11.0605 74.3095 11.085 74.0443C11.1095 73.7791 11.1586 73.514 11.2076 73.2006C11.2566 72.8872 11.3791 72.5979 11.5016 72.2845C11.6241 71.9711 11.8201 71.7059 12.0406 71.4649C12.4081 71.055 12.8246 70.7899 13.2656 70.6693C13.7066 70.5247 14.1231 70.4524 14.4906 70.4524C14.7846 70.4524 15.0296 70.4765 15.2256 70.5247C15.4216 70.5729 15.5931 70.597 15.7646 70.5729C15.7891 70.4765 15.7891 70.4041 15.7891 70.3559C15.7891 70.3077 15.7891 70.2354 15.8136 70.1149C15.9851 70.0908 16.2056 70.0666 16.4506 70.0425C16.7201 70.0184 16.9651 69.9943 17.2102 69.9702C17.5042 69.9943 17.7737 69.9943 18.0922 69.9702ZM15.9606 73.6345C15.9606 73.514 15.9361 73.3693 15.9116 73.2488C15.8871 73.1041 15.8136 72.9836 15.7156 72.8872C15.6176 72.7666 15.5196 72.6943 15.3726 72.5979C15.2256 72.5256 15.0541 72.4774 14.8336 72.4774C14.6621 72.4774 14.5151 72.5497 14.4171 72.6943C14.2946 72.839 14.1966 72.9836 14.1231 73.1524C14.0496 73.3211 13.9761 73.4658 13.9271 73.6104C13.8781 73.755 13.8536 73.8515 13.8536 73.8515C13.8536 74.0684 13.8781 74.2613 13.9516 74.43C14.0251 74.5988 14.0986 74.7193 14.2211 74.8158C14.3191 74.9122 14.4416 74.9845 14.5641 75.0327C14.6866 75.0809 14.8091 75.105 14.9071 75.105C15.0541 75.105 15.1766 75.0568 15.3236 74.9604C15.4461 74.864 15.5686 74.7434 15.6666 74.5747C15.7646 74.43 15.8381 74.2613 15.8871 74.0925C15.9361 73.9479 15.9606 73.7792 15.9606 73.6345Z" fill="#95C11F"/>
<path d="M25.4422 77.4682C25.1972 77.4682 24.8787 77.4923 24.4867 77.5165C24.0947 77.5406 23.6536 77.5647 23.0901 77.6129C23.0656 77.2995 23.0411 77.0343 23.0411 76.7932C23.0411 76.5522 23.0411 76.3352 23.0166 76.1423C22.9431 76.2388 22.8451 76.3593 22.6981 76.504C22.5756 76.6486 22.4286 76.7691 22.2571 76.8897C22.0856 77.0102 21.9141 77.1066 21.7426 77.2031C21.5711 77.2995 21.3751 77.3236 21.2036 77.3236C21.0076 77.3236 20.8116 77.2513 20.5911 77.1307C20.3706 77.0102 20.1746 76.8173 19.9786 76.5763C19.7826 76.3352 19.6111 76.0218 19.4396 75.6361C19.2681 75.2504 19.1456 74.8165 19.0476 74.2861C18.9986 74.0932 18.9741 73.8281 18.9496 73.5147C18.9251 73.2013 18.9006 72.8638 18.8761 72.5263C18.8516 72.1888 18.8516 71.8272 18.8516 71.4656C18.8516 71.104 18.8516 70.7906 18.8761 70.5254C19.0231 70.5013 19.2436 70.4772 19.4886 70.4772C19.7581 70.4772 20.0031 70.4772 20.2726 70.4772H21.0566C21.3016 70.4772 21.5221 70.4772 21.6691 70.4531C21.6446 70.8147 21.5956 71.2004 21.5466 71.562C21.4976 71.9236 21.4486 72.3334 21.4486 72.7673C21.4486 73.37 21.5221 73.8281 21.6936 74.1414C21.8651 74.4548 22.1346 74.6236 22.4776 74.6236C22.6001 74.6236 22.6981 74.5754 22.7471 74.4548C22.7961 74.3343 22.8451 74.1897 22.8696 74.0209C22.8941 73.8522 22.8941 73.6593 22.8941 73.4665V72.8879C22.8941 72.6468 22.8941 72.4298 22.8696 72.237C22.8451 72.0441 22.8206 71.8272 22.7961 71.6343C22.7716 71.4414 22.7226 71.2486 22.6981 71.0557C22.6736 70.8629 22.6246 70.6459 22.6001 70.4048C22.6491 70.4048 22.7961 70.3807 23.0166 70.3807C23.2371 70.3807 23.5066 70.3566 23.8006 70.3566C24.0947 70.3566 24.3887 70.3325 24.7072 70.3325C25.0012 70.3325 25.2462 70.3325 25.4177 70.3325L25.4422 77.4682Z" fill="#95C11F"/>
<path d="M32.6705 70.6698C32.6705 71.0073 32.6705 71.3448 32.646 71.6582C32.646 71.9474 32.6215 72.2367 32.6215 72.5501C32.6215 72.8635 32.6215 73.1528 32.6215 73.418C32.45 73.3939 32.303 73.3939 32.156 73.3698C32.009 73.3457 31.862 73.3457 31.715 73.3216C31.568 73.2974 31.3965 73.2975 31.225 73.2733C31.0535 73.2492 30.8575 73.2492 30.637 73.2251C30.637 73.418 30.6615 73.6349 30.6615 73.9001V74.7439C30.6615 75.0332 30.6615 75.3225 30.6615 75.6358C30.6615 75.9492 30.6615 76.2385 30.6615 76.5037C30.6615 76.793 30.6615 77.0341 30.6615 77.251C30.6615 77.468 30.6615 77.6367 30.686 77.7573C30.539 77.7091 30.3675 77.6608 30.147 77.5885C29.9265 77.5162 29.706 77.4439 29.461 77.3716C29.216 77.2992 28.9955 77.2269 28.775 77.1787C28.5544 77.1064 28.3829 77.0582 28.2359 77.01C28.2359 76.4555 28.2604 75.9251 28.2849 75.3948C28.3094 74.9367 28.3094 74.5028 28.3339 74.0207C28.3339 73.5626 28.3584 73.1769 28.3584 72.8876C28.2604 72.8876 28.1134 72.8635 27.9419 72.8394C27.7704 72.8153 27.5744 72.7912 27.3784 72.7671C27.1824 72.743 26.9864 72.7189 26.7904 72.6948C26.5944 72.6707 26.4229 72.6466 26.3004 72.6466C26.3004 72.526 26.2759 72.3573 26.2759 72.0921C26.2759 71.8269 26.2514 71.5617 26.2269 71.2724C26.2024 70.9591 26.1779 70.6216 26.1289 70.2358C26.5454 70.2599 26.9619 70.2841 27.3539 70.3082C27.6969 70.3323 28.0644 70.3564 28.4809 70.3805C28.8975 70.4046 29.2405 70.4287 29.5835 70.4528C29.902 70.4769 30.2205 70.501 30.588 70.501C30.9555 70.5251 31.274 70.5492 31.5925 70.5492C31.9355 70.6216 32.303 70.6457 32.6705 70.6698Z" fill="#95C11F"/>
<path d="M39.8733 77.7573C39.7998 77.7332 39.6773 77.7091 39.4813 77.6367C39.2853 77.5885 39.0893 77.5162 38.8443 77.4439C38.5993 77.3716 38.4032 77.2993 38.1827 77.251C37.9622 77.1787 37.7907 77.1305 37.6437 77.0823C37.6927 76.7689 37.7417 76.4314 37.7417 76.0457C37.7417 75.66 37.7662 75.3466 37.8152 75.0814C37.6682 75.0091 37.4967 74.9126 37.3007 74.8403C37.1047 74.7439 36.9332 74.6716 36.8107 74.5993C36.7372 74.7921 36.6147 75.0091 36.4922 75.2984C36.3697 75.5876 36.2472 75.8769 36.1247 76.1662C36.0022 76.4555 35.8797 76.7448 35.7572 77.01C35.6347 77.2751 35.5612 77.468 35.4877 77.5885L32.3271 75.8046C32.8417 75.4189 33.3317 75.0091 33.8462 74.5751C34.3362 74.1653 34.7527 73.7796 35.0712 73.4903C34.9732 73.418 34.8507 73.3457 34.7527 73.2492C34.6547 73.1528 34.5322 73.0564 34.4097 72.9117C34.3117 72.7671 34.2137 72.5984 34.1402 72.4055C34.0667 72.2126 34.0177 71.9475 33.9932 71.6341C33.9687 71.3207 34.0177 71.0314 34.1892 70.8144C34.3362 70.5975 34.5567 70.4287 34.8017 70.2841C35.0467 70.1394 35.3407 70.043 35.6347 69.9948C35.9287 69.9466 36.2472 69.8984 36.5412 69.8742C36.8352 69.8501 37.1292 69.8742 37.4967 69.8984C37.8397 69.9466 38.1827 69.9948 38.5013 70.0671C38.8198 70.1394 39.1138 70.2117 39.3833 70.2841C39.6528 70.3564 39.8488 70.4046 39.9713 70.4528L39.8733 77.7573ZM37.7417 71.9234C37.5457 71.851 37.3252 71.7546 37.0557 71.6341C36.8107 71.5376 36.5902 71.4653 36.4432 71.4653C36.2962 71.4894 36.1737 71.5376 36.0757 71.6582C35.9777 71.7546 35.9287 71.8992 35.9287 72.0921C35.9532 72.3091 36.1002 72.526 36.3942 72.6948C36.6882 72.8635 37.0067 73.0564 37.3987 73.2251C37.5702 72.7671 37.6927 72.3332 37.7417 71.9234Z" fill="#95C11F"/>
<path d="M47.3708 77.4198C47.2483 77.4439 47.0523 77.468 46.8073 77.5162C46.5623 77.5644 46.2928 77.6126 45.9987 77.6849C45.7047 77.7573 45.4352 77.8055 45.1412 77.8778C44.8717 77.9501 44.6267 77.9983 44.4552 78.0466C44.4552 77.8537 44.4797 77.6367 44.4797 77.3716C44.4797 77.1064 44.4797 76.8412 44.4552 76.5519C44.4552 76.2626 44.4307 75.9733 44.4307 75.7082C44.4307 75.4189 44.4062 75.1778 44.4062 74.9367C44.3327 74.9608 44.2102 75.0091 44.0877 75.0573C43.9652 75.1055 43.8427 75.1296 43.6957 75.1778C43.5487 75.2019 43.4017 75.2501 43.2547 75.2742C43.1077 75.2983 42.9607 75.3224 42.8382 75.3224C42.6422 75.3224 42.4217 75.2742 42.1522 75.2019C41.8827 75.1296 41.6377 75.009 41.3927 74.8644C41.1477 74.7198 40.9517 74.5269 40.7802 74.3341C40.6087 74.1171 40.5352 73.876 40.5352 73.5867C40.5352 73.418 40.5352 73.201 40.5597 72.8876C40.5842 72.5742 40.5842 72.2849 40.6087 71.9474C40.6332 71.6099 40.6332 71.2965 40.6577 70.9832C40.6577 70.6698 40.6822 70.4287 40.6822 70.2599C40.8537 70.2599 41.0497 70.284 41.2702 70.284C41.4907 70.284 41.7112 70.3081 41.9562 70.3081C42.2012 70.3323 42.4217 70.3323 42.6422 70.3564C42.8627 70.3805 43.0832 70.4046 43.2547 70.4046C43.2302 70.5733 43.2057 70.7421 43.2057 70.9108C43.2057 71.0796 43.2057 71.3207 43.1812 71.6582C43.1812 71.8269 43.1567 71.9957 43.1567 72.1644C43.1567 72.3332 43.1322 72.5019 43.1322 72.6707C43.1322 72.8153 43.1077 72.9599 43.1077 73.1046C43.1077 73.2251 43.1077 73.3216 43.1077 73.3939C43.1077 73.5144 43.1812 73.5867 43.3037 73.6349C43.4262 73.6832 43.5977 73.6832 43.7692 73.6832C43.8672 73.6832 43.9897 73.659 44.1612 73.6108C44.3327 73.5626 44.4552 73.5144 44.5287 73.4662C44.5287 73.2492 44.5042 72.9358 44.5042 72.5501V71.4171C44.5042 70.9832 44.5042 70.5251 44.5287 70.043C44.8717 70.0912 45.1657 70.1394 45.4352 70.1876C45.6802 70.2358 45.9252 70.2599 46.1457 70.284C46.3663 70.3081 46.5623 70.3564 46.7338 70.3805C46.9053 70.4046 47.1013 70.4528 47.2973 70.501L47.3708 77.4198Z" fill="#95C11F"/>
<path d="M54.9656 77.4682C54.7206 77.4682 54.4021 77.4923 54.0101 77.5165C53.6181 77.5406 53.1771 77.5647 52.6136 77.6129C52.5891 77.2995 52.5646 77.0343 52.5646 76.7932C52.5646 76.5522 52.5646 76.3352 52.5401 76.1423C52.4666 76.2388 52.3686 76.3593 52.2216 76.504C52.0991 76.6486 51.9521 76.7691 51.7806 76.8897C51.6091 77.0102 51.4375 77.1066 51.266 77.2031C51.0945 77.2995 50.8985 77.3236 50.727 77.3236C50.531 77.3236 50.335 77.2513 50.1145 77.1307C49.894 77.0102 49.698 76.8173 49.502 76.5763C49.306 76.3352 49.1345 76.0218 48.963 75.6361C48.7915 75.2504 48.669 74.8165 48.571 74.2861C48.522 74.0932 48.4975 73.8281 48.473 73.5147C48.4485 73.2013 48.424 72.8638 48.3995 72.5263C48.375 72.1888 48.375 71.8272 48.375 71.4656C48.375 71.104 48.375 70.7906 48.3995 70.5254C48.5465 70.5013 48.767 70.4772 49.012 70.4772C49.2815 70.4772 49.5265 70.4772 49.796 70.4772H50.58C50.825 70.4772 51.0455 70.4772 51.1925 70.4531C51.168 70.8147 51.119 71.2004 51.07 71.562C51.021 71.9236 50.972 72.3334 50.972 72.7673C50.972 73.37 51.0455 73.8281 51.217 74.1414C51.3886 74.4548 51.6581 74.6236 52.0011 74.6236C52.1236 74.6236 52.2216 74.5754 52.2706 74.4548C52.3196 74.3343 52.3686 74.1897 52.3931 74.0209C52.4176 73.8522 52.4176 73.6593 52.4176 73.4665V72.8879C52.4176 72.6468 52.4176 72.4298 52.3931 72.237C52.3686 72.0441 52.3441 71.8272 52.3196 71.6343C52.2951 71.4414 52.2461 71.2486 52.2216 71.0557C52.1971 70.8629 52.1481 70.6459 52.1236 70.4048C52.1726 70.4048 52.3196 70.3807 52.5401 70.3807C52.7606 70.3807 53.0301 70.3566 53.3241 70.3566C53.6181 70.3566 53.9121 70.3325 54.2306 70.3325C54.5246 70.3325 54.7696 70.3325 54.9411 70.3325L54.9656 77.4682Z" fill="#95C11F"/>
<path d="M62.5607 77.5401C62.3157 77.5401 61.9727 77.5642 61.5317 77.5642C61.1152 77.5642 60.6497 77.5642 60.1842 77.5883C60.1842 77.3714 60.1597 77.1303 60.1597 76.9133C60.1597 76.6964 60.1597 76.4553 60.1352 76.2625C60.0617 76.3589 59.9637 76.4794 59.8167 76.6C59.6942 76.7446 59.5472 76.8651 59.3756 76.9857C59.2041 77.1062 59.0326 77.2026 58.8611 77.2991C58.6896 77.3955 58.4936 77.4196 58.3221 77.4196C58.1261 77.4196 57.9301 77.3473 57.7096 77.2267C57.4891 77.1062 57.2931 76.9133 57.0971 76.6723C56.9011 76.4312 56.7296 76.1178 56.5581 75.7321C56.3866 75.3464 56.2641 74.9125 56.1661 74.4062C56.1171 74.2133 56.0926 73.9482 56.0681 73.6348C56.0436 73.3214 56.0191 72.9839 55.9946 72.6464C55.9701 72.3089 55.9701 71.9473 55.9701 71.5857C55.9701 71.2241 55.9701 70.9107 55.9946 70.6455C56.1416 70.6214 56.3621 70.5973 56.6071 70.5973C56.8766 70.5973 57.1216 70.5973 57.3911 70.5973H58.1751C58.4201 70.5973 58.6406 70.5973 58.7876 70.5732C58.7631 70.9348 58.7141 71.3205 58.6651 71.6821C58.6161 72.0678 58.5671 72.4535 58.5671 72.8875C58.5671 73.4901 58.6406 73.9482 58.8121 74.2616C58.9836 74.5749 59.2531 74.7437 59.5962 74.7437C59.7187 74.7437 59.8167 74.6955 59.8657 74.575C59.9147 74.4544 59.9637 74.3098 59.9882 74.141C60.0127 73.9723 60.0127 73.7794 60.0127 73.5866V73.008C60.0127 72.7669 60.0127 72.5499 59.9882 72.3571C59.9637 72.1642 59.9392 71.9473 59.9147 71.7544C59.8902 71.5616 59.8412 71.3687 59.8167 71.1758C59.7922 70.983 59.7432 70.766 59.7187 70.5249C59.7677 70.5249 59.9147 70.5008 60.1352 70.5008C60.3557 70.5008 60.6252 70.4767 60.9192 70.4767C61.2132 70.4767 61.5072 70.4526 61.8257 70.4526C62.1197 70.4526 62.3647 70.4526 62.5362 70.4526L62.5607 77.5401ZM62.2422 68.283C62.1197 68.3794 61.9482 68.5241 61.7522 68.6928C61.5562 68.8616 61.3357 69.0303 61.0907 69.1749C60.8457 69.3196 60.5762 69.4642 60.2577 69.5848C59.9637 69.7053 59.6452 69.7535 59.3267 69.7535C59.0326 69.7535 58.7631 69.7053 58.4691 69.633C58.1751 69.5607 57.9301 69.4401 57.6606 69.2955C57.3911 69.1508 57.1706 69.0062 56.9501 68.8615C56.7296 68.6928 56.5091 68.5482 56.3376 68.4035C56.3866 68.3553 56.4601 68.2589 56.5826 68.1142C56.7051 67.9696 56.8276 67.8249 56.9501 67.7044C57.0971 67.5357 57.2686 67.3669 57.4401 67.174C57.5626 67.2705 57.7096 67.3669 57.8566 67.4633C58.0036 67.5598 58.1506 67.6562 58.2976 67.7526C58.4691 67.8249 58.6161 67.8973 58.8121 67.9455C59.0081 67.9937 59.1796 68.0178 59.3756 67.9696C59.5227 67.9455 59.6697 67.8732 59.8167 67.7767C59.9882 67.6562 60.1352 67.5357 60.2822 67.4151C60.4537 67.2705 60.6007 67.0776 60.7722 66.8848C60.8702 66.9571 60.9682 67.0535 61.0907 67.174C61.2132 67.2946 61.3357 67.4151 61.4582 67.5598L62.2422 68.283Z" fill="#95C11F"/>
<path d="M72.9242 75.901C72.8752 76.1421 72.7527 76.3591 72.5812 76.576C72.4097 76.793 72.1647 76.9617 71.8952 77.1064C71.6257 77.251 71.3317 77.3716 70.9887 77.4439C70.6702 77.5162 70.3272 77.5644 69.9842 77.5644C69.8372 77.5644 69.6167 77.5162 69.2982 77.4198C68.9797 77.3233 68.6857 77.1546 68.3917 76.8894C68.0977 76.6242 67.8282 76.2626 67.6077 75.8046C67.3871 75.3466 67.2646 74.7198 67.2646 73.9725C67.2646 73.418 67.3626 72.8876 67.5832 72.3332C67.8037 71.7787 68.0977 71.2966 68.4407 70.8626C68.7837 70.4287 69.2002 70.0912 69.6657 69.8019C70.1067 69.5367 70.5722 69.3921 71.0622 69.3921C71.1357 69.3921 71.2337 69.3921 71.3807 69.4162C71.5277 69.4403 71.6747 69.4644 71.8217 69.5126C71.9687 69.5608 72.1157 69.5849 72.2382 69.6573C72.3607 69.7055 72.4342 69.7778 72.4342 69.8501C72.4342 69.9948 72.3607 70.2358 72.1892 70.5974C72.0177 70.9591 71.7727 71.4412 71.4542 72.0439C71.3072 71.9716 71.1602 71.8751 71.0132 71.7305C70.8662 71.5858 70.6702 71.5376 70.4742 71.5376C70.4497 71.5376 70.3762 71.5617 70.2782 71.6341C70.1557 71.6823 70.0332 71.7787 69.9107 71.9233C69.7882 72.0439 69.6657 72.2367 69.5677 72.4296C69.4697 72.6466 69.4207 72.9117 69.4207 73.201C69.4207 73.3457 69.4697 73.5144 69.5432 73.6591C69.6167 73.8037 69.7147 73.9483 69.8127 74.0689C69.9107 74.1894 70.0332 74.2858 70.1312 74.3582C70.2292 74.4305 70.3272 74.4546 70.4007 74.4546C70.5477 74.4546 70.6947 74.4064 70.7927 74.3582C70.9152 74.31 71.0377 74.2376 71.1357 74.1653C71.2582 74.0689 71.3562 73.9725 71.4787 73.8519C71.6012 73.7314 71.7237 73.6108 71.8707 73.4662C71.9197 73.5385 71.9687 73.6832 72.0667 73.9001C72.1647 74.1171 72.2627 74.3341 72.3852 74.5992C72.4832 74.8403 72.6057 75.0814 72.7037 75.3225C72.8017 75.6117 72.8752 75.7805 72.9242 75.901Z" fill="#95C11F"/>
<path d="M80.5448 70.2358C80.4468 71.4171 80.3733 72.5019 80.2998 73.5144C80.2753 73.9483 80.2508 74.3582 80.2018 74.7921C80.1528 75.226 80.1283 75.6117 80.1038 75.9733C80.0793 76.335 80.0548 76.6725 80.0303 76.9376C80.0058 77.2269 80.0058 77.4198 80.0058 77.5403C79.7608 77.5403 79.5403 77.5644 79.3443 77.5644C79.1728 77.5644 78.9768 77.5644 78.8053 77.5644C78.6338 77.5644 78.4868 77.5644 78.3888 77.5403C78.3888 77.2992 78.3888 77.0582 78.4133 76.8412C78.4133 76.6242 78.4133 76.4314 78.4133 76.2385C78.2908 76.5037 78.1438 76.7207 77.9478 76.8894C77.7518 77.0582 77.5313 77.2028 77.2863 77.2992C77.0413 77.3957 76.7718 77.468 76.4778 77.5162C76.1838 77.5644 75.8898 77.5644 75.5958 77.5644C75.3018 77.5644 75.0323 77.4921 74.7627 77.3716C74.4932 77.2269 74.2482 77.0341 74.0522 76.7689C73.8562 76.5037 73.6847 76.1903 73.5867 75.8287C73.4642 75.4671 73.4152 75.0573 73.4397 74.5751C73.4397 74.0448 73.5377 73.5385 73.7092 73.0564C73.8807 72.5742 74.1012 72.1644 74.3707 71.8269C74.6402 71.4653 74.9832 71.2001 75.3508 70.9832C75.7183 70.7662 76.1348 70.6457 76.5513 70.6216C76.7473 70.6216 76.8943 70.6216 77.0413 70.6216C77.1638 70.6216 77.2863 70.6216 77.4088 70.6457C77.5068 70.6457 77.6293 70.6698 77.7518 70.6939C77.8743 70.718 77.9968 70.7421 78.1438 70.7662C78.1683 70.6698 78.1928 70.5974 78.2173 70.5251C78.2418 70.4769 78.2663 70.4046 78.2663 70.3564C78.3398 70.3564 78.5113 70.3323 78.7563 70.3323C79.0013 70.3082 79.2708 70.3082 79.5403 70.284C79.8098 70.2599 80.1773 70.2599 80.5448 70.2358ZM78.3398 73.7555C78.3398 73.418 78.2418 73.1528 77.9968 72.9358C77.7518 72.7189 77.4823 72.6224 77.1393 72.6224C76.9923 72.6224 76.8453 72.6707 76.7473 72.7912C76.6248 72.9117 76.5268 73.0564 76.4533 73.201C76.3798 73.3698 76.3063 73.5144 76.2818 73.6832C76.2573 73.8519 76.2328 73.9483 76.2328 74.0207C76.2818 74.4064 76.3798 74.6957 76.5513 74.9367C76.7228 75.1537 76.9433 75.2742 77.2373 75.2742C77.3353 75.2742 77.4333 75.226 77.5558 75.1537C77.6783 75.0814 77.8008 74.9608 77.9233 74.8403C78.0458 74.6957 78.1438 74.551 78.2173 74.3582C78.2908 74.1894 78.3153 73.9725 78.3398 73.7555Z" fill="#95C11F"/>
<path d="M88.2377 69.9702C88.2377 70.139 88.2132 70.38 88.2132 70.7175C88.2132 71.055 88.1887 71.4166 88.1642 71.8506C88.1397 72.2604 88.1152 72.7184 88.0907 73.1765C88.0662 73.6345 88.0172 74.0684 87.9927 74.4783C87.9437 75.2015 87.8702 75.8765 87.8212 76.455C87.7722 77.0577 87.6252 77.5881 87.4537 78.1184C87.2822 78.6488 86.9882 79.1309 86.5961 79.589C86.2286 80.047 85.6651 80.5051 84.9791 80.9631C84.7341 81.1077 84.4891 81.2524 84.2196 81.3729C83.9501 81.4934 83.6806 81.5899 83.4111 81.6622C83.1416 81.7345 82.8721 81.8068 82.6026 81.855C82.3331 81.9033 82.0881 81.9515 81.8676 81.9997L81.5246 79.4684C81.6961 79.4443 81.8921 79.4202 82.1126 79.3961C82.3331 79.372 82.5781 79.3479 82.8231 79.2997C83.0681 79.2515 83.3376 79.2033 83.6071 79.1068C83.8766 79.0345 84.1216 78.914 84.3666 78.7934C84.5626 78.697 84.7341 78.5765 84.9056 78.4318C85.0771 78.2872 85.2241 78.1425 85.3466 77.9738C85.4691 77.805 85.5671 77.6604 85.6406 77.4917C85.7141 77.3229 85.7631 77.1783 85.7631 77.0336C85.7631 76.9613 85.7631 76.889 85.7876 76.8167C85.8121 76.7443 85.7876 76.672 85.7876 76.5756C85.6896 76.6961 85.5671 76.8167 85.4446 76.9372C85.3221 77.0577 85.1506 77.1542 84.9546 77.2506C84.7586 77.347 84.5381 77.4193 84.2931 77.4675C84.0481 77.5158 83.7296 77.5399 83.3866 77.5399C83.0681 77.5399 82.7741 77.4675 82.5291 77.3229C82.2596 77.1783 82.0391 76.9854 81.8431 76.7202C81.6471 76.455 81.5001 76.1658 81.3776 75.8042C81.2551 75.4425 81.2061 75.0568 81.2061 74.5988C81.2061 74.4783 81.2061 74.3095 81.2306 74.0443C81.2551 73.7791 81.3041 73.514 81.3531 73.2006C81.4021 72.8872 81.5246 72.5979 81.6471 72.2845C81.7696 71.9711 81.9656 71.7059 82.1861 71.4649C82.5536 71.055 82.9701 70.7899 83.4111 70.6693C83.8521 70.5247 84.2686 70.4524 84.6361 70.4524C84.9301 70.4524 85.1751 70.4765 85.3711 70.5247C85.5671 70.5729 85.7386 70.597 85.9101 70.5729C85.9346 70.4765 85.9346 70.4041 85.9346 70.3559C85.9346 70.3077 85.9346 70.2354 85.9591 70.1149C86.1306 70.0908 86.3511 70.0666 86.5961 70.0425C86.8657 70.0184 87.1107 69.9943 87.3557 69.9702C87.6252 69.9943 87.9192 69.9943 88.2377 69.9702ZM86.1061 73.6345C86.1061 73.514 86.0816 73.3693 86.0571 73.2488C86.0326 73.1041 85.9591 72.9836 85.8611 72.8872C85.7631 72.7666 85.6651 72.6943 85.5181 72.5979C85.3711 72.5256 85.1996 72.4774 84.9791 72.4774C84.8076 72.4774 84.6606 72.5497 84.5626 72.6943C84.4401 72.839 84.3421 72.9836 84.2686 73.1524C84.1951 73.3211 84.1216 73.4658 84.0726 73.6104C84.0236 73.755 83.9991 73.8515 83.9991 73.8515C83.9991 74.0684 84.0236 74.2613 84.0971 74.43C84.1706 74.5988 84.2441 74.7193 84.3666 74.8158C84.4646 74.9122 84.5871 74.9845 84.7096 75.0327C84.8321 75.0809 84.9546 75.105 85.0526 75.105C85.1996 75.105 85.3221 75.0568 85.4691 74.9604C85.5916 74.864 85.7141 74.7434 85.8121 74.5747C85.9101 74.4059 85.9836 74.2613 86.0326 74.0925C86.0816 73.9479 86.1061 73.7792 86.1061 73.6345Z" fill="#95C11F"/>
<path d="M96.0038 73.8037C96.0038 74.3822 95.9058 74.9126 95.7098 75.3947C95.5138 75.8769 95.2443 76.2867 94.8768 76.6242C94.5338 76.9617 94.0928 77.2269 93.6273 77.4197C93.1618 77.6126 92.6228 77.6849 92.0348 77.6849C91.5447 77.6608 91.1037 77.5644 90.6872 77.3474C90.2952 77.1546 89.9522 76.8894 89.6827 76.576C89.4132 76.2626 89.1927 75.9251 89.0457 75.5635C88.8987 75.2019 88.8252 74.8403 88.8252 74.5028C88.8252 73.9483 88.8987 73.3697 89.0457 72.7912C89.1927 72.2126 89.4377 71.7063 89.7317 71.2242C90.0502 70.7662 90.4422 70.3804 90.9077 70.0912C91.3732 69.8019 91.9367 69.6572 92.5738 69.6572C93.1373 69.6572 93.6273 69.7295 94.0193 69.8742C94.4113 70.0188 94.7298 70.2358 94.9993 70.4769C95.2443 70.7179 95.4403 71.0072 95.5873 71.2965C95.7343 71.5858 95.8078 71.8992 95.8813 72.2126C95.9548 72.526 95.9793 72.8153 95.9793 73.0804C95.9793 73.3456 96.0038 73.6108 96.0038 73.8037ZM93.5538 72.9117C93.5538 72.6706 93.5048 72.4537 93.4068 72.2849C93.3088 72.1162 93.1863 71.9474 93.0638 71.851C92.9168 71.7304 92.7943 71.6581 92.6473 71.5858C92.5003 71.5376 92.3778 71.4894 92.2798 71.4894C92.0838 71.4894 91.8877 71.5617 91.7162 71.6822C91.5447 71.8028 91.3977 71.9474 91.2752 72.1162C91.1527 72.2849 91.0547 72.4537 90.9812 72.6465C90.9077 72.8394 90.8832 72.9599 90.8832 73.0563C90.8832 73.201 90.9077 73.3697 90.9812 73.5385C91.0547 73.7072 91.1282 73.876 91.2507 74.0206C91.3487 74.1653 91.4957 74.2858 91.6427 74.3822C91.7897 74.4787 91.9367 74.551 92.1082 74.551C92.2553 74.551 92.4023 74.5269 92.5738 74.4304C92.7453 74.334 92.9168 74.2135 93.0638 74.0688C93.2108 73.9242 93.3333 73.7313 93.4313 73.5385C93.5048 73.3215 93.5538 73.1287 93.5538 72.9117Z" fill="#95C11F"/>
<path d="M103.231 72.9844C103.109 73.0326 103.011 73.1049 102.888 73.1772C102.766 73.2495 102.643 73.346 102.472 73.4424C102.3 73.5388 102.104 73.6594 101.884 73.7799C101.663 73.9004 101.394 74.0451 101.075 74.2379L103.084 76.2629C102.839 76.4317 102.521 76.6245 102.129 76.8174C101.761 77.0103 101.32 77.2513 100.806 77.5647C100.634 77.179 100.438 76.7692 100.242 76.3112C100.046 75.8531 99.8504 75.4192 99.6543 74.9853L99.1888 77.637C99.1153 77.637 98.9683 77.5888 98.7233 77.5406C98.4783 77.4924 98.2088 77.4442 97.9393 77.3719C97.6698 77.2996 97.3758 77.2513 97.1308 77.179C96.8858 77.1067 96.6898 77.0585 96.5918 77.0344C96.5918 76.8174 96.6163 76.4799 96.6653 76.0701C96.6898 75.6362 96.7388 75.1781 96.7878 74.6478C96.8368 74.1174 96.9103 73.5388 96.9838 72.9361C97.0573 72.3335 97.1308 71.7308 97.2043 71.1522C97.2778 70.5736 97.3513 70.0192 97.4003 69.4888C97.4738 68.9585 97.5228 68.5245 97.5963 68.1629C97.8413 68.1147 98.1353 68.0665 98.4538 68.0183C98.7968 67.9701 99.1153 67.9219 99.4338 67.8736C99.8014 67.8254 100.169 67.7772 100.536 67.729L100.512 67.9701C100.487 68.1147 100.463 68.3076 100.438 68.5486C100.414 68.7897 100.365 69.0549 100.316 69.3683C100.267 69.6817 100.242 69.971 100.193 70.3085C100.071 71.0558 99.9484 71.8995 99.8259 72.8397C99.9239 72.7192 100.095 72.5745 100.291 72.3817C100.487 72.1888 100.732 71.9719 100.977 71.7308C101.247 71.4897 101.516 71.2487 101.786 70.9835C102.08 70.7183 102.349 70.5013 102.643 70.2603C102.692 70.429 102.741 70.6701 102.79 70.9594C102.839 71.2728 102.913 71.562 102.962 71.8513C103.084 72.237 103.133 72.5986 103.231 72.9844Z" fill="#95C11F"/>
</svg>
